<?xml version="1.0" encoding="UTF-8"?>
<svg id="Layer_1" xmlns="http://www.w3.org/2000/svg" width="1cm" height="1cm" viewBox="0 0 28.35 28.35">
  <defs>
    <style>
      .cls-1 {
        fill: #bb464b;
      }

      .cls-2 {
        fill: #d5d2ca;
      }

      .cls-3 {
        fill: #fff;
      }

      .cls-4 {
        fill: #e0ded8;
      }

      .cls-5 {
        fill: #e0684b;
      }
    </style>
  </defs>
  <path class="cls-3" d="M14.17,1.04L2.8,7.6v13.13l11.37,6.57,11.37-6.56V7.61L14.17,1.04Z"/>
  <polygon class="cls-5" points="25.54 7.61 21.98 5.55 18.56 7.53 22.12 9.58 25.54 7.61"/>
  <polygon class="cls-5" points="6.23 9.58 17.6 3.02 14.17 1.04 2.8 7.61 6.23 9.58"/>
  <polygon class="cls-5" points="10.61 16.23 14.17 18.28 17.73 16.23 14.17 14.17 10.61 16.23"/>
  <polygon class="cls-1" points="22.12 9.58 22.12 18.76 14.17 23.35 6.23 18.76 6.23 9.58 2.8 7.61 2.8 20.74 14.17 27.3 25.54 20.74 25.54 7.61 22.12 9.58"/>
  <polygon class="cls-1" points="14.17 10.06 10.61 12.12 10.61 16.23 14.17 14.17 17.73 16.23 17.73 12.12 14.17 10.06"/>
  <polygon class="cls-4" points="22.12 9.58 17.73 12.12 17.73 16.23 14.17 18.28 14.17 23.35 22.12 18.76 22.12 9.58"/>
  <polygon class="cls-2" points="6.23 9.58 10.61 12.12 10.61 16.23 14.17 18.28 14.17 23.35 6.23 18.76 6.23 9.58"/>
  <polygon class="cls-3" points="17.6 3.02 21.98 5.55 18.56 7.53 22.12 9.58 17.73 12.12 14.17 10.06 10.61 12.12 6.23 9.58 17.6 3.02"/>
</svg>