<svg xmlns="http://www.w3.org/2000/svg" width="24" height="24" viewBox="0 0 24 24"><path d="M4.5,5.8A1.22,1.22,0,0,1,5.7,4.6h2a.79.79,0,0,0,.8-.8A.71.71,0,0,0,7.8,3h-2A2.73,2.73,0,0,0,3,5.8v2a.79.79,0,0,0,.8.8.74.74,0,0,0,.8-.8v-2Z" style="fill:#fff"/><path d="M4.5,18.2a1.22,1.22,0,0,0,1.2,1.2h2a.79.79,0,0,1,.8.8.71.71,0,0,1-.7.8h-2A2.73,2.73,0,0,1,3,18.2v-2a.79.79,0,0,1,.8-.8.74.74,0,0,1,.8.8v2Z" style="fill:#fff"/><path d="M18.2,4.5a1.22,1.22,0,0,1,1.2,1.2v2a.79.79,0,0,0,.8.8.71.71,0,0,0,.8-.7v-2A2.73,2.73,0,0,0,18.2,3h-2a.79.79,0,0,0-.8.8.74.74,0,0,0,.8.8h2Z" style="fill:#fff"/><path d="M19.5,18.2a1.22,1.22,0,0,1-1.2,1.2h-2a.79.79,0,0,0-.8.8.74.74,0,0,0,.8.8h2a2.8,2.8,0,0,0,2.8-2.8v-2a.79.79,0,0,0-.8-.8.74.74,0,0,0-.8.8Z" style="fill:#fff"/></svg>