<svg xmlns="http://www.w3.org/2000/svg" width="24" height="24" viewBox="0 0 24 24"><path d="M8.5,3.8A.71.71,0,0,0,7.8,3a.74.74,0,0,0-.8.8V6.3a.71.71,0,0,1-.8.7H3.8a.74.74,0,0,0-.8.8.79.79,0,0,0,.8.8H6.3A2.22,2.22,0,0,0,8.5,6.4Z" style="fill:#fff"/><path d="M8.5,20.2a.79.79,0,0,1-.8.8.71.71,0,0,1-.7-.8V17.7a.71.71,0,0,0-.8-.7H3.8a.8.8,0,1,1,0-1.6H6.3a2.22,2.22,0,0,1,2.2,2.2Z" style="fill:#fff"/><path d="M16.2,3a.79.79,0,0,0-.8.8V6.3a2.22,2.22,0,0,0,2.2,2.2h2.5a.79.79,0,0,0,.8-.8c.1-.4-.2-.7-.7-.7H17.7a.71.71,0,0,1-.7-.8V3.8A.74.74,0,0,0,16.2,3Z" style="fill:#fff"/><path d="M15.5,20.2a.79.79,0,0,0,.8.8.74.74,0,0,0,.8-.8V17.7a.79.79,0,0,1,.8-.8h2.5a.79.79,0,0,0,.8-.8.74.74,0,0,0-.8-.8H17.9a2.22,2.22,0,0,0-2.2,2.2v2.7Z" style="fill:#fff"/></svg>