<?xml version="1.0" encoding="UTF-8"?><svg id="Layer_1" xmlns="http://www.w3.org/2000/svg" width="24" height="24" viewBox="0 0 24 24"><defs><style>.cls-1{fill:#fff;}</style></defs><path class="cls-1" d="m12,2c5.52,0,10,4.48,10,10s-4.48,10-10,10S2,17.52,2,12,6.48,2,12,2Zm0,1.5C7.31,3.5,3.5,7.31,3.5,12s3.81,8.5,8.5,8.5,8.5-3.81,8.5-8.5S16.69,3.5,12,3.5Zm3.45,4.9l.08.07c.27.27.29.68.07.98l-.07.08-2.47,2.47,2.47,2.47c.27.27.29.68.07.98l-.07.08c-.27.27-.68.29-.98.07l-.08-.07-2.47-2.47-2.47,2.47c-.27.27-.68.29-.98.07l-.08-.07c-.27-.27-.29-.68-.07-.98l.07-.08,2.47-2.47-2.47-2.47c-.27-.27-.29-.68-.07-.98l.07-.08c.27-.27.68-.29.98-.07l.08.07,2.47,2.47,2.47-2.47c.27-.27.68-.29.98-.07Z"/></svg>