<?xml version="1.0" encoding="UTF-8"?><svg id="Layer_1" xmlns="http://www.w3.org/2000/svg" width="24" height="24" viewBox="0 0 24 24"><defs><style>.cls-1{fill:#fff;}</style></defs><path class="cls-1" d="m16.62,11.81l-.08-.07c-.29-.22-.71-.19-.98.07l-2.72,2.72v-6.69s0-.1,0-.1c-.05-.37-.36-.65-.74-.65h-.1c-.37.06-.65.37-.65.75v6.69s-2.72-2.72-2.72-2.72l-.08-.07c-.29-.22-.71-.19-.98.07-.29.29-.29.77,0,1.06l4,4,.08.07c.29.22.71.19.98-.07l4-4,.07-.08c.22-.29.19-.71-.07-.98Zm-14.53.28c0,5.52,4.48,10,10,10s10-4.48,10-10c0-5.52-4.48-10-10-10S2.09,6.57,2.09,12.09Zm18.5,0c0,4.69-3.81,8.5-8.5,8.5S3.59,16.79,3.59,12.09,7.4,3.59,12.09,3.59s8.5,3.81,8.5,8.5Z"/></svg>