<?xml version="1.0" encoding="UTF-8"?><svg id="Layer_1" xmlns="http://www.w3.org/2000/svg" width="24" height="24" viewBox="0 0 24 24"><defs><style>.cls-1{fill:#fff;}</style></defs><path class="cls-1" d="m7.47,12.28l.08.07c.29.22.71.19.98-.07l2.72-2.72v6.69s0,.1,0,.1c.05.37.36.65.74.65h.1c.37-.06.65-.37.65-.75v-6.69s2.72,2.72,2.72,2.72l.08.07c.29.22.71.19.98-.07.29-.29.29-.77,0-1.06l-4-4-.08-.07c-.29-.22-.71-.19-.98.07l-4,4-.07.08c-.22.29-.19.71.07.98Zm14.53-.28c0-5.52-4.48-10-10-10S2,6.48,2,12s4.48,10,10,10,10-4.48,10-10Zm-18.5,0C3.5,7.31,7.31,3.5,12,3.5s8.5,3.81,8.5,8.5-3.81,8.5-8.5,8.5S3.5,16.69,3.5,12Z"/></svg>