{"asset":{"version":"2.0","generator":"babylon.js glTF exporter for Maya 2018 v20200917.1"},"scene":0,"scenes":[{"nodes":[0,1,2,3]}],"nodes":[{"mesh":0,"name":"groundPlane_low"},{"mesh":1,"translation":[-0.0275,0.0,0.0],"name":"d20_basePBR_left_low"},{"mesh":2,"name":"d20_basePBR_middle_low"},{"mesh":3,"translation":[0.0275,0.0,0.0],"name":"d20_basePBR_right_low"}],"meshes":[{"primitives":[{"attributes":{"POSITION":1,"TANGENT":2,"NORMAL":3,"TEXCOORD_0":4},"indices":0,"material":0}],"name":"groundPlane_low"},{"primitives":[{"attributes":{"POSITION":6,"TANGENT":7,"NORMAL":8,"TEXCOORD_0":9},"indices":5,"material":1}],"name":"d20_basePBR_left_low"},{"primitives":[{"attributes":{"POSITION":11,"TANGENT":12,"NORMAL":13,"TEXCOORD_0":14},"indices":10,"material":1}],"name":"d20_basePBR_middle_low"},{"primitives":[{"attributes":{"POSITION":16,"TANGENT":17,"NORMAL":18,"TEXCOORD_0":19},"indices":15,"material":1}],"name":"d20_basePBR_right_low"}],"accessors":[{"bufferView":0,"componentType":5123,"count":6,"type":"SCALAR","name":"accessorIndices"},{"bufferView":1,"componentType":5126,"count":6,"max":[0.149999991,0.0,0.149999991],"min":[-0.149999991,0.0,-0.149999991],"type":"VEC3","name":"accessorPositions"},{"bufferView":2,"componentType":5126,"count":6,"type":"VEC4","name":"accessorTangents"},{"bufferView":1,"byteOffset":72,"componentType":5126,"count":6,"type":"VEC3","name":"accessorNormals"},{"bufferView":3,"componentType":5126,"count":6,"type":"VEC2","name":"accessorUVs"},{"bufferView":0,"byteOffset":12,"componentType":5123,"count":1428,"type":"SCALAR","name":"accessorIndices"},{"bufferView":1,"byteOffset":144,"componentType":5126,"count":1428,"max":[0.008926011,0.0158931315,0.009429324],"min":[-0.00896086,3.27825553E-08,-0.00992760248],"type":"VEC3","name":"accessorPositions"},{"bufferView":2,"byteOffset":96,"componentType":5126,"count":1428,"type":"VEC4","name":"accessorTangents"},{"bufferView":1,"byteOffset":17280,"componentType":5126,"count":1428,"type":"VEC3","name":"accessorNormals"},{"bufferView":3,"byteOffset":48,"componentType":5126,"count":1428,"type":"VEC2","name":"accessorUVs"},{"bufferView":0,"byteOffset":2868,"componentType":5123,"count":1428,"type":"SCALAR","name":"accessorIndices"},{"bufferView":1,"byteOffset":34416,"componentType":5126,"count":1428,"max":[0.009169802,0.0158940312,0.009274188],"min":[-0.009092639,9.256601E-07,-0.009945075],"type":"VEC3","name":"accessorPositions"},{"bufferView":2,"byteOffset":22944,"componentType":5126,"count":1428,"type":"VEC4","name":"accessorTangents"},{"bufferView":1,"byteOffset":51552,"componentType":5126,"count":1428,"type":"VEC3","name":"accessorNormals"},{"bufferView":3,"byteOffset":11472,"componentType":5126,"count":1428,"type":"VEC2","name":"accessorUVs"},{"bufferView":0,"byteOffset":5724,"componentType":5123,"count":1428,"type":"SCALAR","name":"accessorIndices"},{"bufferView":1,"byteOffset":68688,"componentType":5126,"count":1428,"max":[0.00890745,0.0158881936,0.009263403],"min":[-0.009355003,-4.90084267E-06,-0.009955853],"type":"VEC3","name":"accessorPositions"},{"bufferView":2,"byteOffset":45792,"componentType":5126,"count":1428,"type":"VEC4","name":"accessorTangents"},{"bufferView":1,"byteOffset":85824,"componentType":5126,"count":1428,"type":"VEC3","name":"accessorNormals"},{"bufferView":3,"byteOffset":22896,"componentType":5126,"count":1428,"type":"VEC2","name":"accessorUVs"}],"bufferViews":[{"buffer":0,"byteLength":8580,"name":"bufferViewScalar"},{"buffer":0,"byteOffset":8580,"byteLength":102960,"byteStride":12,"name":"bufferViewFloatVec3"},{"buffer":0,"byteOffset":111540,"byteLength":68640,"byteStride":16,"name":"bufferViewFloatVec4"},{"buffer":0,"byteOffset":180180,"byteLength":34320,"byteStride":8,"name":"bufferViewFloatVec2"}],"buffers":[{"uri":"d20_scene.bin","byteLength":214500}],"materials":[{"pbrMetallicRoughness":{"baseColorFactor":[0.3835,0.3835,0.3835,1.0],"metallicFactor":0.0,"roughnessFactor":0.2},"name":"groundMat"},{"pbrMetallicRoughness":{"metallicRoughnessTexture":{"index":1}},"normalTexture":{"index":0},"occlusionTexture":{"index":1},"name":"d20mat"}],"textures":[{"sampler":0,"source":0,"name":"d20_normal.png"},{"sampler":0,"source":1,"name":"d20_numbersMask.png"}],"images":[{"uri":"d20_normal.png"},{"uri":"d20_numbersMask.png"}],"samplers":[{"magFilter":9729,"minFilter":9987}]}