<svg xmlns="http://www.w3.org/2000/svg" width="64" height="32" viewBox="0 0 64 32"><rect width="64" height="32" style="fill:none"/><path d="M13.52,19.64l-.82,4.08H9.8L13.56,7.48h3.77l3.79,16.24h-3l-.8-4.08Zm3.24-2.52c-.6-3.12-1.08-5.4-1.35-6.93h-.07c-.19,1.49-.72,3.93-1.32,6.93Z" style="fill:#fff"/><path d="M32,19c-.07.81-.38,5-4.87,5S22,20,22,15.59c0-5.26,1.54-8.35,5.33-8.35,4.3,0,4.63,3.69,4.7,5H29.16c0-.55-.07-2.55-1.87-2.55S25,11.92,25,15.64c0,3.07.31,5.95,2.21,5.95,1.73,0,1.87-2,1.94-2.59Z" style="fill:#fff"/><path d="M42,16.5H36.72v4.73h5.86l-.36,2.49H33.87V7.48H42.2V10H36.72v4H42Z" style="fill:#fff"/><path d="M46.66,19.19c.14,1.34.7,2.52,2.18,2.52s1.95-.89,1.95-2.11-.65-2.12-2.69-3.08C45.31,15.2,44.21,14,44.21,11.6c0-2.59,1.68-4.36,4.61-4.36,3.67,0,4.56,2.47,4.61,4.58H50.57c-.07-.94-.31-2.3-1.8-2.3-1.15,0-1.65.74-1.65,1.84s.52,1.73,2.42,2.62c2.9,1.34,4.22,2.64,4.22,5.35S52.18,24,48.75,24c-3.75,0-4.87-2.4-5-4.82Z" style="fill:#fff"/></svg>