<svg xmlns="http://www.w3.org/2000/svg" width="64" height="32" viewBox="0 0 64 32"><rect width="64" height="32" style="fill:none"/><path d="M48.1,16.52c2,1,2.69,1.76,2.69,3.08a3.13,3.13,0,0,1-.08.7l2.67,1a5.22,5.22,0,0,0,.38-2c0-2.71-1.32-4-4.22-5.35-1.9-.89-2.42-1.44-2.42-2.62s.5-1.84,1.65-1.84c1.49,0,1.73,1.36,1.8,2.3h2.86c0-2.11-.94-4.58-4.61-4.58-2.93,0-4.61,1.77-4.61,4.36C44.21,14,45.31,15.2,48.1,16.52Z" style="fill:#fff"/><line x1="9" y1="7" x2="56" y2="25" style="fill:none;stroke:#fff;stroke-miterlimit:10;stroke-width:2px"/><path d="M15.8,12.28c.26,1.31.59,2.92,1,4.84H14c.4-2,.76-3.74,1-5.13l-2.32-.89L9.8,23.72h2.9l.82-4.08h3.76l.8,4.08h3L18.71,13.4Z" style="fill:#fff"/><path d="M25.71,10.72a1.71,1.71,0,0,1,1.58-1c1.64,0,1.81,1.65,1.86,2.36l.49.19H32c-.07-1.3-.4-5-4.7-5A4.46,4.46,0,0,0,23.1,9.72Z" style="fill:#fff"/><path d="M27.22,21.59c-1.86,0-2.2-2.77-2.21-5.78l-3-1.14c0,.3,0,.6,0,.92C22,20,22.54,24,27.17,24S32,19.81,32,19H29.16C29.09,19.62,29,21.59,27.22,21.59Z" style="fill:#fff"/><polygon points="40.8 16.5 41.96 16.5 41.96 13.98 36.72 13.98 36.72 10.02 42.2 10.02 42.2 7.47 33.87 7.47 33.87 13.85 40.8 16.5" style="fill:#fff"/><polygon points="39.16 21.23 36.72 21.23 36.72 20.3 33.87 19.2 33.87 23.73 42.22 23.73 42.4 22.47 39.16 21.23" style="fill:#fff"/></svg>