<svg xmlns="http://www.w3.org/2000/svg" width="32" height="32" viewBox="0 0 32 32"><rect width="32" height="32" style="fill:none"/><path d="M16,.87,2.9,8.44V23.56L16,31.13l13.1-7.57V8.44L25,6.07,24.64,6,20,3.44l0-.29Z" style="fill:#bb464b"/><polygon points="29.1 8.44 25 6.07 21.05 8.35 25.16 10.71 29.1 8.44" style="fill:#e0684b"/><polygon points="6.84 10.71 19.94 3.15 16 0.87 2.9 8.44 6.84 10.71" style="fill:#e0684b"/><polygon points="11.9 18.37 16 20.73 20.1 18.37 16 16 11.9 18.37" style="fill:#e0684b"/><polygon points="25.16 10.71 20.1 13.63 20.1 18.37 16 20.73 16 26.57 25.16 21.29 25.16 10.71" style="fill:#e0ded8"/><polygon points="6.84 10.71 11.9 13.63 11.9 18.37 16 20.73 16 26.57 6.84 21.29 6.84 10.71" style="fill:#d5d2ca"/><polygon points="19.94 3.15 25 6.07 21.05 8.35 25.16 10.71 20.1 13.63 16 11.27 11.9 13.63 6.84 10.71 19.94 3.15" style="fill:#fff"/></svg>