<svg xmlns="http://www.w3.org/2000/svg" width="32" height="32" viewBox="0 0 32 32"><rect width="32" height="32" style="fill:none"/><path d="M25.27,5.52a1.46,1.46,0,0,1,.6.12,1.49,1.49,0,0,1,.48.32,1.64,1.64,0,0,1,.34.5,1.24,1.24,0,0,1,.12.6V27H8L5.29,24.27V7.06a1.46,1.46,0,0,1,.12-.6A1.37,1.37,0,0,1,5.74,6a1.59,1.59,0,0,1,.49-.34,1.24,1.24,0,0,1,.6-.12ZM9.9,14.74H22.2V7.06H9.9Zm9.23,6.15H11.44V25.5H13V22.43h1.54V25.5h4.61ZM25.27,7.06H23.74v9.22H8.37V7.06H6.83V23.64L8.68,25.5H9.9V19.35H20.66V25.5h4.61Z" style="fill:#fff"/></svg>