<?xml version="1.0" encoding="UTF-8"?><svg id="Layer_1" xmlns="http://www.w3.org/2000/svg" width="512" height="512" viewBox="0 0 512 512"><defs><style>.cls-1{fill:#fff;}.cls-2{stroke-width:2.83px;}.cls-2,.cls-3{fill:none;stroke:#fff;stroke-miterlimit:10;}.cls-3{stroke-width:8.5px;}</style></defs><rect width="512" height="512"/><polygon class="cls-3" points="51.25 137.79 51.25 374.21 256 492.43 460.75 374.21 460.75 137.79 256 19.57 51.25 137.79"/><path class="cls-1" d="m256,18.99c32,0,63.04,6.26,92.25,18.62,28.22,11.94,53.57,29.03,75.34,50.8,21.77,21.77,38.86,47.12,50.8,75.34,12.36,29.21,18.62,60.25,18.62,92.25s-6.26,63.04-18.62,92.25c-11.94,28.22-29.03,53.57-50.8,75.34-21.77,21.77-47.12,38.86-75.34,50.8-29.21,12.36-60.25,18.62-92.25,18.62s-63.04-6.26-92.25-18.62c-28.22-11.94-53.57-29.03-75.34-50.8-21.77-21.77-38.86-47.12-50.8-75.34-12.36-29.21-18.62-60.25-18.62-92.25s6.26-63.04,18.62-92.25c11.94-28.22,29.03-53.57,50.8-75.34s47.12-38.86,75.34-50.8c29.21-12.36,60.25-18.62,92.25-18.62m0-14.17C117.28,4.82,4.82,117.28,4.82,256s112.46,251.18,251.18,251.18,251.18-112.46,251.18-251.18S394.72,4.82,256,4.82h0Z"/><path class="cls-1" d="m256,59.26l170.38,98.37v196.74l-170.38,98.37-170.38-98.37v-196.74l170.38-98.37m0-4.91l-174.64,100.83v201.65l174.64,100.83,174.64-100.83v-201.65l-174.64-100.83h0Z"/><path class="cls-1" d="m356.1,82.63l100.1,173.37-100.1,173.37h-200.19l-100.1-173.37,100.1-173.37h200.19m1.64-2.83h-203.47l-101.73,176.21,101.73,176.21h203.47l101.73-176.21-101.73-176.21h0Z"/><circle class="cls-3" cx="256" cy="256" r="137.75"/><circle cx="256" cy="67.84" r="51.41" transform="translate(131.16 301.4) rotate(-76.72)"/><path class="cls-1" d="m256,19.06c26.9,0,48.78,21.88,48.78,48.78s-21.88,48.78-48.78,48.78-48.78-21.88-48.78-48.78,21.88-48.78,48.78-48.78m0-5.27c-29.85,0-54.05,24.2-54.05,54.05s24.2,54.05,54.05,54.05,54.05-24.2,54.05-54.05-24.2-54.05-54.05-54.05h0Z"/><path d="m93,213.34c-8.97,0-17.84-2.39-25.66-6.9-24.55-14.18-32.99-45.68-18.82-70.23,9.16-15.86,26.24-25.72,44.58-25.72,8.97,0,17.84,2.39,25.66,6.9,11.89,6.87,20.4,17.95,23.96,31.22,3.55,13.27,1.73,27.12-5.14,39.01-9.16,15.86-26.24,25.72-44.58,25.72Z"/><path class="cls-1" d="m93.1,107.86v5.27s0,0,0,0c8.51,0,16.92,2.26,24.34,6.54,23.29,13.45,31.3,43.34,17.85,66.63-8.69,15.05-24.9,24.4-42.29,24.4-8.51,0-16.92-2.26-24.34-6.54-11.28-6.51-19.36-17.03-22.73-29.62-3.37-12.59-1.64-25.73,4.87-37.01,8.69-15.05,24.89-24.4,42.29-24.4v-5.27m0,0c-18.68,0-36.85,9.69-46.86,27.03-14.93,25.85-6.07,58.91,19.78,73.83,8.51,4.91,17.8,7.25,26.97,7.25,18.68,0,36.85-9.69,46.86-27.03,14.93-25.85,6.07-58.91-19.78-73.83-8.51-4.91-17.8-7.25-26.97-7.25h0Z"/><path d="m93.1,401.5c-18.34,0-35.42-9.85-44.58-25.72-6.87-11.89-8.69-25.75-5.14-39.01,3.55-13.27,12.06-24.35,23.96-31.22,7.82-4.51,16.69-6.9,25.66-6.9,18.34,0,35.42,9.85,44.58,25.72,14.18,24.55,5.73,56.06-18.82,70.23-7.82,4.51-16.69,6.9-25.66,6.9Z"/><path class="cls-1" d="m93,301.29c17.4,0,33.6,9.35,42.29,24.4,13.45,23.29,5.44,53.18-17.85,66.63-7.42,4.28-15.83,6.54-24.34,6.54-17.4,0-33.61-9.35-42.29-24.4-13.45-23.29-5.44-53.18,17.85-66.63,7.41-4.28,15.83-6.54,24.34-6.54h0m0-5.27c-9.17,0-18.46,2.34-26.97,7.25-25.85,14.93-34.71,47.98-19.78,73.83,10.01,17.34,28.18,27.03,46.86,27.03,9.17,0,18.46-2.34,26.97-7.25,25.85-14.93,34.71-47.98,19.78-73.83-10.01-17.34-28.18-27.04-46.86-27.03h0Z"/><circle cx="256" cy="444.16" r="51.42" transform="translate(-223.43 625.71) rotate(-80.78)"/><path class="cls-1" d="m256,395.38c26.9,0,48.78,21.88,48.78,48.78s-21.88,48.78-48.78,48.78-48.78-21.88-48.78-48.78,21.88-48.78,48.78-48.78m0-5.27c-29.85,0-54.05,24.2-54.05,54.05s24.2,54.05,54.05,54.05,54.05-24.2,54.05-54.05-24.2-54.05-54.05-54.05h0Z"/><path d="m418.9,401.5c-8.97,0-17.84-2.38-25.66-6.9-24.55-14.18-32.99-45.68-18.82-70.23,9.16-15.86,26.24-25.72,44.58-25.72,8.97,0,17.84,2.38,25.66,6.9,24.55,14.18,32.99,45.68,18.82,70.23-9.16,15.86-26.24,25.72-44.58,25.72Z"/><path class="cls-1" d="m419.01,296.02v5.27s0,0,0,0c8.51,0,16.92,2.26,24.34,6.54,23.29,13.45,31.3,43.34,17.85,66.63-8.69,15.05-24.9,24.4-42.29,24.4-8.51,0-16.92-2.26-24.34-6.54-11.28-6.51-19.36-17.03-22.73-29.62-3.37-12.59-1.64-25.73,4.87-37.01,8.69-15.05,24.89-24.4,42.29-24.4v-5.27m0,0c-18.68,0-36.85,9.7-46.86,27.03-14.93,25.85-6.07,58.91,19.78,73.83,8.51,4.91,17.8,7.25,26.97,7.25,18.68,0,36.85-9.69,46.86-27.03,14.93-25.85,6.07-58.91-19.78-73.83-8.51-4.91-17.8-7.25-26.97-7.25h0Z"/><path d="m419,213.34c-18.34,0-35.42-9.85-44.58-25.72-6.87-11.89-8.69-25.75-5.14-39.01,3.55-13.27,12.06-24.35,23.96-31.22,7.82-4.51,16.69-6.9,25.66-6.9,18.34,0,35.42,9.85,44.58,25.72,14.17,24.55,5.73,56.06-18.82,70.23-7.81,4.51-16.69,6.9-25.66,6.9Z"/><path class="cls-1" d="m418.91,113.13c17.4,0,33.6,9.35,42.29,24.4,6.51,11.28,8.25,24.43,4.87,37.01-3.37,12.59-11.44,23.1-22.73,29.62-7.42,4.28-15.83,6.54-24.34,6.54-17.4,0-33.61-9.35-42.29-24.4-6.51-11.28-8.25-24.43-4.87-37.01,3.37-12.59,11.44-23.1,22.73-29.62,7.41-4.28,15.83-6.54,24.34-6.54h0m0-5.27c-9.17,0-18.46,2.34-26.97,7.25-25.85,14.93-34.71,47.98-19.78,73.83,10.01,17.34,28.18,27.03,46.86,27.03,9.17,0,18.46-2.34,26.97-7.25,25.85-14.93,34.71-47.98,19.78-73.83-10.01-17.34-28.18-27.04-46.86-27.03h0Z"/><polygon class="cls-2" points="256 16.36 48.47 375.82 463.53 375.82 256 16.36"/><polygon class="cls-2" points="256 495.64 463.53 136.18 48.47 136.18 256 495.64"/><path d="m394.52,273.38c-3.03,0-6.03-.81-8.67-2.33-8.3-4.79-11.15-15.44-6.36-23.74,3.09-5.36,8.87-8.69,15.07-8.69,3.03,0,6.03.81,8.67,2.33,4.02,2.32,6.89,6.07,8.1,10.55,1.2,4.48.58,9.17-1.74,13.19-3.09,5.36-8.87,8.69-15.07,8.69Z"/><path class="cls-1" d="m394.56,241.46h0c2.53,0,5.04.67,7.25,1.95,6.94,4.01,9.33,12.92,5.32,19.86-2.59,4.49-7.42,7.27-12.61,7.27-2.53,0-5.04-.67-7.25-1.95-3.36-1.94-5.77-5.08-6.78-8.83-1.01-3.75-.49-7.67,1.45-11.03,2.59-4.49,7.42-7.27,12.61-7.27m0-5.67c-6.98,0-13.78,3.63-17.52,10.11-5.58,9.67-2.27,22.03,7.4,27.61,3.18,1.84,6.66,2.71,10.09,2.71,6.98,0,13.78-3.63,17.52-10.11,5.58-9.67,2.27-22.03-7.4-27.61-3.18-1.84-6.66-2.71-10.09-2.71h0Z"/><path d="m325.29,153.4c-6.2,0-11.97-3.33-15.07-8.69-4.79-8.3-1.94-18.94,6.36-23.74,2.64-1.53,5.64-2.33,8.67-2.33,6.2,0,11.97,3.33,15.07,8.69,2.32,4.02,2.94,8.7,1.74,13.19-1.2,4.48-4.08,8.23-8.1,10.55-2.64,1.53-5.64,2.33-8.67,2.33Z"/><path class="cls-1" d="m325.25,115.81v5.67c5.19,0,10.02,2.79,12.61,7.27,4.01,6.94,1.62,15.85-5.32,19.86-2.21,1.28-4.72,1.95-7.25,1.95-5.19,0-10.02-2.79-12.61-7.27-4.01-6.94-1.62-15.85,5.32-19.86,2.21-1.28,4.72-1.95,7.25-1.95v-5.67m0,0c-3.43,0-6.9.87-10.09,2.71-9.67,5.58-12.98,17.94-7.4,27.61,3.74,6.48,10.54,10.11,17.52,10.11,3.43,0,6.9-.87,10.09-2.71,9.67-5.58,12.98-17.94,7.4-27.61-3.74-6.48-10.54-10.11-17.52-10.11h0Z"/><path d="m186.73,153.4c-9.58,0-17.38-7.79-17.38-17.38s7.79-17.38,17.38-17.38,17.38,7.79,17.38,17.38-7.79,17.38-17.38,17.38Z"/><path class="cls-1" d="m186.73,121.48c8.02,0,14.54,6.52,14.54,14.54s-6.52,14.54-14.54,14.54-14.54-6.52-14.54-14.54,6.52-14.54,14.54-14.54m0-5.67c-11.16,0-20.21,9.05-20.21,20.21s9.05,20.21,20.21,20.21,20.21-9.05,20.21-20.21-9.05-20.21-20.21-20.21h0Z"/><path d="m117.44,273.38c-3.03,0-6.03-.81-8.67-2.33-8.3-4.79-11.15-15.44-6.36-23.74,3.1-5.36,8.87-8.69,15.07-8.69,3.03,0,6.03.81,8.67,2.33,8.3,4.79,11.15,15.44,6.36,23.74-3.09,5.36-8.87,8.69-15.07,8.69Z"/><path class="cls-1" d="m117.48,241.46h0c2.53,0,5.04.67,7.25,1.95,3.36,1.94,5.77,5.08,6.78,8.83,1.01,3.75.49,7.67-1.45,11.03-2.59,4.49-7.42,7.27-12.61,7.27-2.53,0-5.04-.67-7.25-1.95-6.94-4.01-9.33-12.92-5.32-19.86,2.59-4.49,7.42-7.27,12.61-7.27m0-5.67c-6.98,0-13.78,3.63-17.52,10.11-5.58,9.67-2.27,22.03,7.4,27.61,3.18,1.84,6.66,2.71,10.09,2.71,6.98,0,13.78-3.63,17.52-10.11,5.58-9.67,2.27-22.03-7.4-27.61-3.18-1.84-6.66-2.71-10.09-2.71h0Z"/><path d="m186.75,393.36c-6.2,0-11.97-3.33-15.07-8.69-2.32-4.02-2.94-8.7-1.74-13.18,1.2-4.48,4.08-8.23,8.1-10.55,2.64-1.53,5.64-2.33,8.67-2.33,6.2,0,11.97,3.33,15.07,8.69,2.32,4.02,2.94,8.7,1.74,13.18-1.2,4.48-4.08,8.23-8.1,10.55-2.64,1.53-5.64,2.33-8.67,2.33Z"/><path class="cls-1" d="m186.71,355.77v5.67c5.19,0,10.02,2.79,12.61,7.27,1.94,3.36,2.46,7.28,1.45,11.03-1.01,3.75-3.41,6.89-6.77,8.83-2.21,1.28-4.72,1.95-7.25,1.95-5.19,0-10.02-2.79-12.61-7.27-4.01-6.94-1.62-15.85,5.32-19.86,2.21-1.28,4.72-1.95,7.25-1.95v-5.67m0,0c-3.43,0-6.9.87-10.09,2.71-9.67,5.58-12.98,17.94-7.4,27.61,3.74,6.48,10.54,10.11,17.52,10.11,3.43,0,6.9-.87,10.09-2.71,9.67-5.58,12.98-17.94,7.4-27.61-3.74-6.48-10.54-10.11-17.52-10.11h0Z"/><path d="m325.27,393.36c-9.58,0-17.38-7.79-17.38-17.38s7.79-17.38,17.38-17.38,17.38,7.79,17.38,17.38-7.79,17.38-17.38,17.38Z"/><path class="cls-1" d="m325.27,361.44c8.02,0,14.54,6.52,14.54,14.54s-6.52,14.54-14.54,14.54-14.54-6.52-14.54-14.54,6.52-14.54,14.54-14.54m0-5.67c-11.16,0-20.21,9.05-20.21,20.21s9.05,20.21,20.21,20.21,20.21-9.05,20.21-20.21-9.05-20.21-20.21-20.21h0Z"/></svg>