<?xml version="1.0" encoding="UTF-8"?><svg id="Layer_1" xmlns="http://www.w3.org/2000/svg" width="1024" height="512" viewBox="0 0 1024 512"><defs><style>.cls-1{fill:#fff;}</style></defs><rect width="1024" height="512"/><path class="cls-1" d="m1024,56.42c-1.5,214.54-10.53,296.74-24.56,296.74-14.04,0-19.09-99.21-22.06-138.35-2.32,58.95-3.51,228.57-29.07,228.57-25.56,0-34.35-225.11-38.6-296.74-3.01,114.29-8.69,200.44-17.71,200.44s-15.36-86.53-18.38-136.28c-2.6,60.98-5.01,216.54-31.58,216.54s-36.91-324.01-39.1-372.93c-1.28,50.25-1.79,282.54-14.49,279.46-10.9-2.64-12.39-82.57-14.08-117.05-.78,32.5-9.51,193.02-22.72,193.68-13.87.69-22.24-181.43-24-260.84-3.74,126.97-19.32,278.68-34.68,274.72-15.16-3.91-27.41-280.73-29.15-339.88-3.22,63.11-14.54,262.66-32.58,262.66s-21.33-140.1-22.56-188.47c-1.92,49.69-9.5,262.29-27.57,262.66-19.59.39-25.87-239.39-28.18-309.4-2.48,66.72-6.77,284.04-27.96,285.34-18.94,1.17-22.41-119.55-24.56-172.43-2.64,56.19-7.09,220.67-28.07,220.55-27.07-.15-28.07-344.69-29.89-396.22-2.31,66.72-9.74,348.77-35.28,350.1-17.04.89-21.86-204.78-24.06-258.65-3.58,67.74-9.81,233.76-26.04,234.86-13.04.88-19.82-187.6-21.58-238.87-2.2,47.31-10.55,293.56-30.11,294.35-16.18.66-20.31-103.71-22.02-135.96-1.5,34.09-4.57,118.16-18.44,117.46-13.21-.66-14.37-163.16-15.15-195.66-1.7,34.48-3.18,114.41-14.08,117.05-12.7,3.08-13.21-229.21-14.49-279.46-2.19,48.93-12.53,372.93-39.1,372.93s-28.98-155.57-31.58-216.54c-3.02,49.75-9.35,136.28-18.38,136.28s-14.71-86.15-17.71-200.44c-4.25,71.63-13.03,296.74-38.6,296.74s-26.75-169.62-29.07-228.57c-2.97,39.13-8.02,138.35-22.06,138.35S1.67,270.95.17,56.42L.06,364.26c4.29,103.05,27.74,231.19,44.92-50.2,7.93,307.82,52.18,171.74,60.44,89.83,12.55,149.28,38.97,1.32,43.27-72.66,15.52,311.78,61.76,138.72,66.39,35.67,2.64,72.66,19.49,107.01,30.72,3.96,4.29,114.94,22.13,183.63,36.99,51.52,3.96,88.51,43.27,105.69,51.19,14.53,7.93,81.91,42.28,62.09,47.89-108.33,1.32,134.75,45.25,216.66,62.42,33.03,0,114.94,40.29,219.3,54.17,14.53,7.6,121.54,42.28,165.14,52.18,19.82,2.97,79.27,42.94,158.53,52.51-36.99,6.94,137.39,45.58,198.17,57.14-83.23,10.24,186.28,28.4,314.42,56.48,140.04,10.9,128.15,53.17,93.8,58.46-43.6,5.28,144,23.78,140.04,28.73-38.31,3.63,169.1,53.17,236.92,67.71,21.14,1.65,105.69,36.66,99.08,42.61,9.25,12.55,161.17,56.48,194.2,67.71,42.28,12.55,112.29,35.67,70.46,42.04-42.28V56.42Z"/></svg>