{"asset":{"version":"2.0","generator":"babylon.js glTF exporter for Maya 2018 v20200917.1"},"scene":0,"scenes":[{"nodes":[0,1]}],"nodes":[{"mesh":0,"name":"sodaBottle_low"},{"mesh":1,"name":"soda_low"}],"meshes":[{"primitives":[{"attributes":{"POSITION":1,"TANGENT":2,"NORMAL":3,"TEXCOORD_0":4},"indices":0,"material":0}],"name":"sodaBottle_low"},{"primitives":[{"attributes":{"POSITION":6,"TANGENT":7,"NORMAL":8,"TEXCOORD_0":9},"indices":5,"material":1}],"name":"soda_low"}],"accessors":[{"bufferView":0,"componentType":5123,"count":25200,"type":"SCALAR","name":"accessorIndices"},{"bufferView":1,"componentType":5126,"count":25200,"max":[0.03242412,0.230555192,0.0324241258],"min":[-0.0324241258,-0.0004895153,-0.032424178],"type":"VEC3","name":"accessorPositions"},{"bufferView":2,"componentType":5126,"count":25200,"type":"VEC4","name":"accessorTangents"},{"bufferView":1,"byteOffset":302400,"componentType":5126,"count":25200,"type":"VEC3","name":"accessorNormals"},{"bufferView":3,"componentType":5126,"count":25200,"type":"VEC2","name":"accessorUVs"},{"bufferView":0,"byteOffset":50400,"componentType":5123,"count":4320,"type":"SCALAR","name":"accessorIndices"},{"bufferView":1,"byteOffset":604800,"componentType":5126,"count":4320,"max":[0.0315191746,0.087027736,0.0315190852],"min":[-0.0315191969,0.0021929536,-0.03151925],"type":"VEC3","name":"accessorPositions"},{"bufferView":2,"byteOffset":403200,"componentType":5126,"count":4320,"type":"VEC4","name":"accessorTangents"},{"bufferView":1,"byteOffset":656640,"componentType":5126,"count":4320,"type":"VEC3","name":"accessorNormals"},{"bufferView":3,"byteOffset":201600,"componentType":5126,"count":4320,"type":"VEC2","name":"accessorUVs"}],"bufferViews":[{"buffer":0,"byteLength":59040,"name":"bufferViewScalar"},{"buffer":0,"byteOffset":59040,"byteLength":708480,"byteStride":12,"name":"bufferViewFloatVec3"},{"buffer":0,"byteOffset":767520,"byteLength":472320,"byteStride":16,"name":"bufferViewFloatVec4"},{"buffer":0,"byteOffset":1239840,"byteLength":236160,"byteStride":8,"name":"bufferViewFloatVec2"}],"buffers":[{"uri":"sodaBottle.bin","byteLength":1476000}],"materials":[{"pbrMetallicRoughness":{"baseColorTexture":{"index":2},"metallicRoughnessTexture":{"index":1}},"normalTexture":{"index":0},"occlusionTexture":{"index":1},"name":"sodaBottleMat"},{"pbrMetallicRoughness":{"baseColorTexture":{"index":5},"metallicRoughnessTexture":{"index":4}},"normalTexture":{"index":3},"occlusionTexture":{"index":4},"name":"sodaMat"}],"textures":[{"sampler":0,"source":0,"name":"sodaBottleMat_normal.png"},{"sampler":0,"source":1,"name":"sodaBottleMat_ORM.png"},{"sampler":0,"source":2,"name":"sodaBottleMat_baseColor.png"},{"sampler":0,"source":3,"name":"sodaMat_normal.png"},{"sampler":0,"source":4,"name":"sodaMat_ORM.png"},{"sampler":0,"source":5,"name":"sodaMat_baseColor.png"}],"images":[{"uri":"sodaBottleMat_normal.png"},{"uri":"sodaBottleMat_ORM.png"},{"uri":"sodaBottleMat_baseColor.png"},{"uri":"sodaMat_normal.png"},{"uri":"sodaMat_ORM.png"},{"uri":"sodaMat_baseColor.png"}],"samplers":[{"magFilter":9729,"minFilter":9987}]}