{"asset":{"version":"2.0","generator":"babylon.js glTF exporter for Maya 2018 v20200917.1"},"scene":0,"scenes":[{"nodes":[0]}],"nodes":[{"mesh":0,"translation":[0.0,-0.005000004,0.0],"name":"table_low"}],"meshes":[{"primitives":[{"attributes":{"POSITION":1,"TANGENT":2,"NORMAL":3,"TEXCOORD_0":4},"indices":0,"material":0}],"name":"table_low"}],"accessors":[{"bufferView":0,"componentType":5123,"count":3120,"type":"SCALAR","name":"accessorIndices"},{"bufferView":1,"componentType":5126,"count":3120,"max":[0.299999982,0.005,0.2999998],"min":[-0.299999565,-0.00500000035,-0.2999994],"type":"VEC3","name":"accessorPositions"},{"bufferView":2,"componentType":5126,"count":3120,"type":"VEC4","name":"accessorTangents"},{"bufferView":1,"byteOffset":37440,"componentType":5126,"count":3120,"type":"VEC3","name":"accessorNormals"},{"bufferView":3,"componentType":5126,"count":3120,"type":"VEC2","name":"accessorUVs"}],"bufferViews":[{"buffer":0,"byteLength":6240,"name":"bufferViewScalar"},{"buffer":0,"byteOffset":6240,"byteLength":74880,"byteStride":12,"name":"bufferViewFloatVec3"},{"buffer":0,"byteOffset":81120,"byteLength":49920,"byteStride":16,"name":"bufferViewFloatVec4"},{"buffer":0,"byteOffset":131040,"byteLength":24960,"byteStride":8,"name":"bufferViewFloatVec2"}],"buffers":[{"uri":"table.bin","byteLength":156000}],"materials":[{"pbrMetallicRoughness":{"baseColorTexture":{"index":2},"metallicRoughnessTexture":{"index":1}},"normalTexture":{"index":0},"occlusionTexture":{"index":1},"name":"tableMat"}],"textures":[{"sampler":0,"source":0,"name":"tableMat_normal.png"},{"sampler":0,"source":1,"name":"tableMat_ORM.png"},{"sampler":0,"source":2,"name":"tableMat_baseColor.png"}],"images":[{"uri":"tableMat_normal.png"},{"uri":"tableMat_ORM.png"},{"uri":"tableMat_baseColor.png"}],"samplers":[{"magFilter":9729,"minFilter":9987}]}