{
  "accessors": [
    {
      "bufferView": 0,
      "componentType": 5125,
      "count": 4998,
      "type": "SCALAR"
    },
    {
      "bufferView": 1,
      "componentType": 5126,
      "count": 988,
      "max": [
        1.0,
        1.0,
        0.999999761581421
      ],
      "min": [
        -0.999999523162842,
        -1.0,
        -0.999999403953552
      ],
      "type": "VEC3"
    },
    {
      "bufferView": 2,
      "componentType": 5126,
      "count": 988,
      "type": "VEC3"
    },
    {
      "bufferView": 3,
      "componentType": 5126,
      "count": 988,
      "type": "VEC2"
    }
  ],
  "asset": {
    "generator": "Substance Painter 2019.2.3",
    "version": "2.0"
  },
  "bufferViews": [
    {
      "buffer": 0,
      "byteLength": 19992,
      "target": 34963,
      "byteOffset": 0
    },
    {
      "buffer": 0,
      "byteLength": 11856,
      "byteOffset": 19992,
      "target": 34962
    },
    {
      "buffer": 0,
      "byteLength": 11856,
      "byteOffset": 31848,
      "target": 34962
    },
    {
      "buffer": 0,
      "byteLength": 7904,
      "byteOffset": 43704,
      "target": 34962
    }
  ],
  "buffers": [
    {
      "byteLength": 51608,
      "uri": "moon_pbrmr.bin"
    }
  ],
  "images": [
    {
      "uri": "moon_pbrmr_image0.png"
    },
    {
      "uri": "moon_pbrmr_image1.png"
    },
    {
      "uri": "moon_pbrmr_image2.png"
    }
  ],
  "materials": [
    {
      "alphaMode": "OPAQUE",
      "name": "MoonMat",
      "normalTexture": {
        "index": 2
      },
      "occlusionTexture": {
        "index": 1
      },
      "pbrMetallicRoughness": {
        "baseColorTexture": {
          "index": 0
        },
        "metallicRoughnessTexture": {
          "index": 1
        }
      }
    }
  ],
  "meshes": [
    {
      "name": "moon_low",
      "primitives": [
        {
          "attributes": {
            "NORMAL": 2,
            "POSITION": 1,
            "TEXCOORD_0": 3
          },
          "indices": 0,
          "material": 0,
          "mode": 4
        }
      ]
    }
  ],
  "nodes": [
    {
      "children": [
        1
      ],
      "name": "root",
      "translation": [
        2.38418579101563E-07,
        0.0,
        1.78813934326172E-07
      ]
    },
    {
      "children": [
        2
      ],
      "name": "moon_low"
    },
    {
      "mesh": 0,
      "name": "moon_low"
    }
  ],
  "samplers": [
    {
      "magFilter": 9729,
      "minFilter": 9985,
      "wrapS": 10497,
      "wrapT": 10497
    }
  ],
  "scene": 0,
  "scenes": [
    {
      "name": "Scene",
      "nodes": [
        0
      ]
    }
  ],
  "textures": [
    {
      "sampler": 0,
      "source": 0
    },
    {
      "sampler": 0,
      "source": 1
    },
    {
      "sampler": 0,
      "source": 2
    }
  ]
}