<?xml version="1.0" encoding="UTF-8"?><svg xmlns="http://www.w3.org/2000/svg" width="4096" height="2048" xmlns:xlink="http://www.w3.org/1999/xlink" viewBox="0 0 4096 2048"><defs><style>.cls-1{fill:#e8b118;}.cls-2{fill:url(#radial-gradient);}.cls-3{clip-path:url(#clippath);}.cls-4{fill:none;}.cls-5{fill:#202226;}</style><clipPath id="clippath"><rect class="cls-4" y="2298.72" width="4096" height="2048"/></clipPath><radialGradient id="radial-gradient" cx="1660.74" cy="3173.26" fx="1660.74" fy="3173.26" r="1668.25" gradientUnits="userSpaceOnUse"><stop offset=".37" stop-color="#f7931e"/><stop offset=".47" stop-color="#f08219"/><stop offset="1" stop-color="#d12f00"/></radialGradient></defs><g id="moon"><g class="cls-3"><circle class="cls-2" cx="1660.74" cy="3173.26" r="1668.25"/></g></g><g id="Houses"><polygon class="cls-1" points="3759.53 1246.65 3609.81 1246.65 3582.5 1102.21 3589.99 1061.26 3656.93 1063.02 3656.93 974.94 3692.6 974.94 3692.6 1056.41 3730.47 1043.2 3770.54 1109.26 3759.53 1246.65"/><polygon class="cls-1" points="3095.46 1221.99 2984.16 1220.01 2957.07 1016.89 3015.86 985.51 3015.86 917.48 3065.4 917.48 3065.4 984.85 3117.59 996.41 3095.46 1221.99"/><rect class="cls-1" x="2049.15" y="944.89" width="31.38" height="46.24"/><rect class="cls-1" x="381.26" y="952.49" width="73.32" height="70.68"/><polygon class="cls-1" points="1391.9 1221.33 1231.39 1225.95 1209.59 1061.41 1403.79 1061.41 1391.9 1221.33"/><polygon class="cls-1" points="1319.9 1017.88 1286.21 1017.88 1276.96 939.28 1319.9 939.28 1319.9 1017.88"/><rect class="cls-1" x="515.79" y="899.64" width="25.98" height="33.47"/><rect class="cls-1" x="358.58" y="1083.42" width="166.9" height="144.73"/><polygon class="cls-1" points="2073.26 1237.51 1930.91 1238.17 1914.39 1112.67 1973.88 1106.43 1980.12 1049.26 2103.97 1044.96 2073.26 1237.51"/><g><path class="cls-5" d="M493.84,1009.24c1.85,1.26,2.36,3.17,3.7,4.38,1.68,1.52,1.02,2.96-.44,3.8-2.74,1.57-2.25,4.11-2.43,6.51-.1,1.29,.49,1.95,1.76,2.05,.26,.02,.52,.07,.78,.09,6.83,.34,6.39,1.76,6.97-5.46,.92-11.56,2.8-23,4.24-34.49,1.18-9.45,1.1-18.98,1.29-28.49,.28-13.68-.22-27.35-.39-41.02-.09-7.55-.5-15.09-.5-22.65,0-1.56,.01-3.14-.17-4.68-.32-2.61-1.01-3.1-3.57-2.8-1.26,.15-2.52,.75-3.8,.07-.21-1.01,.42-1.75,.78-2.56,4.31-9.76,8.58-19.54,12.98-29.26,.86-1.9,.68-2.95-1.14-4.12-2.4-1.54-4.54-3.49-6.79-5.25-1.54-1.21-2.16-2.65-2.08-4.72,.16-4.34,1.31-8.48,2.01-12.71,.51-3.11,.47-3.12-2.83-4.89,2.7-2.71,5.31-5.36,7.97-7.96,.58-.56,1.29-.33,1.6,.35,1.18,2.61,2.32,5.23,3.39,7.89,.41,1.01-.1,1.81-1.1,2.16-.91,.31-1.66,.62-1.74,1.77-.19,2.99-.47,5.97-.68,8.96-.07,.94,.13,1.81,.88,2.48,1.62,1.45,3.04,3.18,5.19,3.86,1.06-.67,1.25-1.75,1.66-2.67,4.79-10.69,9.58-21.39,13.36-32.5,.38-1.1,1.04-2.11,1.39-3.22,.69-2.16,2.28-2.58,4.27-2.51,1.87,.06,2.74,.84,3,2.79,1.06,8,2.02,16.03,3.51,23.95,2.5,13.3,5.21,26.57,9.07,39.57,1.66,5.61,3.61,11.15,4.69,16.92,.69,3.71-.32,4.79-4.05,4.25-.39-.06-.77-.15-1.16-.2-4.89-.71-5.26-.16-6.14,4.8-2.92,16.3-4.27,32.8-6.37,49.2-2.12,16.54-4.91,32.98-6.83,49.54-1.11,9.57-3.32,18.99-4.08,28.61-.04,.52-.12,1.04-.16,1.56-.52,6.31-.35,4.85,4.58,5.48,2.71,.34,2.85,.17,3.42-2.42,.28-1.26,.41-2.55,.69-4.31-1.69,1.04-2.77,.75-3.47-.89-.65-1.53,.41-2.12,1.27-2.87,1.47-1.29,2.94-2.57,4.4-3.87,1.19-1.05,2.13-.83,2.71,.6,.59,1.44,1.14,2.91,1.61,4.4,.78,2.43,.47,3.51-1.97,4.05-2.85,.63-1.7,2.71-2.01,4.23-.34,1.67,1.05,1.8,2.21,2.03,.89,.18,1.79,.35,2.68,.54,3.53,.77,5.38-.48,5.94-3.93,.21-1.25-.77-1.87-1.25-2.73-.68-1.19-.72-2.03,.45-3.01,1.88-1.58,3.68-3.27,6.08-4.76,1.29,2.4,1.85,4.93,2.39,7.38,.41,1.87-1.37,2.85-2.81,2.96-1.27,.1-1.48,.61-1.78,1.5-1.22,3.58-2.09,7.25-2.91,10.94-.31,1.41,.03,2.29,1.6,2.43,.25,.02,.5,.13,.75,.22,4.82,1.59,4.94,1.76,4.13,6.64-.41,2.46-.25,4.94-.25,7.41,0,1.61-.03,3.16-1.62,4.11-1.31,.79-.87,2.06-.79,3.17,.71,10.52,1.38,21.04,2.76,31.51,1.41,10.73,3.14,21.38,5.85,31.87,.31,1.19,.89,2.43,.43,4.12-3.2-.59-6.36-1.16-9.51-1.75-.9-.17-1.78-.38-2.68-.53-3.51-.56-4.24-.16-5.47,3.33-.65,1.84-1.05,3.76-1.61,5.62-7.4,24.72-10.15,50.23-13.07,75.72-.8,6.99-1.5,13.98-2.34,20.96-1.04,8.55-.83,17.17-1.42,25.75-.22,3.24-.17,3.32-3.25,3.37-6.38,.09-12.78,.34-19.15,.09-18.76-.75-37.52-.33-56.29-.38-4.14-.01-8.3,.75-12.46,.54-25.11-1.26-50.24-.44-75.37-.71-2.89-.03-2.9-.07-3.43-2.96-3.05-16.52-5.3-33.16-7.72-49.78-2.58-17.79-4.23-35.67-6.34-53.51-1.29-10.86-2.52-21.73-3.79-32.6-.3-2.57-.35-2.66-2.88-2.2-4.6,.84-9.32,1.07-13.82,2.48-1.05,.33-2.1,.51-2.87-.46-.9-1.14,.2-1.93,.69-2.75,9.68-16.32,15.17-34.2,19.52-52.5,.62-2.61,.85-5.18-1.45-7.24-.63-.56-.77-1.34-.75-2.14,.04-2.52-.57-4.89-1.44-7.23-.37-1-.59-2.22,.34-2.92,1.65-1.23,1.01-2.41,.26-3.71-.52-.9-1.05-1.8-1.5-2.74-.62-1.27-1.12-2.15-2.99-2.25-2.37-.13-2.92-1.6-1.95-3.83,.71-1.65,1.1-3.47,2.33-5.03,1.97,.45,3.33,1.96,5.01,2.89,1.44,.79,1.96,1.67,1.19,3.47-1.07,2.48,.67,4.27,3.27,3.65,1.9-.45,3.78-.98,5.66-1.5,.84-.23,2.07-.33,1.73-1.59-.28-1.07,.11-2.9-1.99-2.66-.59,.07-.99-.18-1.41-.48-1.17-.83-1.88-1.71-.89-3.24,.98-1.52,1.76-3.18,2.73-4.97,1.71,.55,2.81,1.85,4.15,2.77,1.53,1.05,2.75,2.14,1.19,4.07-.57,.7-.32,1.47-.23,2.24,.16,1.39,.62,2.23,2.25,1.71,1.86-.59,3.78-1,5.62-1.65,1.19-.42,1.38-2.2,.26-2.7-1.07-.48-2.54-.58-2.77-1.82-.27-1.41,.73-2.72,1.36-3.99,1.47-3,1.89-3.06,4.55-1,.52,.4,.97,.88,1.52,1.23,1.39,.87,1.53,1.91,.69,3.28-.4,.65-.65,1.43-.8,2.18-.15,.74,.28,1.35,1.07,1.2,1.53-.28,3.12-.53,4.51-1.16,1.11-.51,.64-1.86,.6-2.86-.21-5.86-.49-11.71-.71-17.57-.63-16.97-3.25-33.67-6.71-50.26-.52-2.5-.53-2.49-3.01-1.95-4.19,.92-8.25,2.38-12.51,3.06-1.57,.25-3.08,.53-4.47-.66,.1-.37,.12-.78,.31-1.09,8.72-14.87,13.75-31.13,17.95-47.69,1.25-4.92,2.48-9.85,3.57-14.81,.36-1.65,1.06-2.42,2.78-2.63,2.97-.35,5.9-1.05,8.86-1.43,1.49-.19,2.06-.76,1.9-2.24-.72-6.45-1.18-12.94-2.41-19.24-.85-.21-1.11,.29-1.43,.68-.41,.5-.8,1.14-1.56,.61-.73-.51-1.66-.97-1.37-2.12,1.03-4.07,2.77-7.85,4.8-11.49,.57-1.03,1.48-.9,2.15,.11,1.81,2.71,3.77,5.31,5.84,7.82,1.53,1.85,1.42,2.2-.46,3.79-.73,.62-2,.69-1.8,2.17,.25,1.8,.03,3.66,.75,5.38,.31,.75,1.06,.59,1.7,.51,4.01-.5,8.01-1.03,12.02-1.49,1.24-.14,1.97-.6,1.84-1.94-.19-1.94-.39-3.88-.62-5.82-.08-.65-.32-.47-.94-.36-2.7,.48-4.19-1.3-3.08-3.59,1.36-2.81,2.79-5.6,4.37-8.29,.95-1.63,1.84-1.62,2.92-.02,1.67,2.48,3.19,5.07,4.74,7.63,1.27,2.11,1.24,3.2-.89,3.96-1.54,.54-1.66,1.24-1.63,2.44,0,.13,0,.26,0,.39q0,5.04,5.04,4.83c2.08-.09,4.16-.24,6.25-.25,1.53,0,2.09-.7,1.99-2.16-.06-.91-.02-1.82,.01-2.74,.04-1.04-.17-1.35-1.46-1.52-2.22-.3-3.07-1.96-1.92-3.57,2.1-2.94,3.44-6.33,5.64-9.57,2.58,2.84,3.9,6.11,5.74,9.04,.56,.89,.12,1.56-.6,1.94-3.37,1.75-1.65,4.77-1.83,7.29-.06,.79,.76,.94,1.44,.91,3.25-.15,6.5-.31,9.76-.47,1.25-.06,1.46-.97,1.41-1.91-.06-1.02,.73-2.49-1.15-2.73-.67-.08-1.22-.3-1.76-.71-1.24-.94-1.68-1.97-.54-3.27,2.08-2.37,3.56-5.12,5.01-7.9,.36-.69,.73-1.46,1.67-1.44,.96,.02,1.18,.85,1.53,1.54,1.11,2.21,2.23,4.41,3.38,6.6,1.38,2.61,1.41,3.28-1.39,4.41-1.69,.68-1.6,1.68-1.78,2.93-.26,1.92,.55,2.59,2.42,2.45,2.73-.2,5.46-.3,8.2-.36,1.43-.03,2.31-.62,2.18-2.08-.12-1.3,1.36-2.88-1.18-3.8-2.93-1.06-2.97-2.28-.56-4.3,2.5-2.09,4.29-4.83,6.82-7.42,1.41,3.39,2.39,6.59,4.06,9.48,.47,.81,.21,1.62-.57,2-3.51,1.73-3.64,5.1-3.82,8.25-.19,3.37,.05,6.77-.69,10.11-.38,1.73,.46,2.33,2.09,2.4,1.82,.08,3.63,.48,5.45,.45,2.1-.03,2.93,.9,3.41,2.87,1.66,6.83,3.39,13.65,5.29,20.42,2.46,8.77,4.43,17.67,7.32,26.32,.3,.89,.34,1.76,.43,2.67,.13,1.41-.37,1.97-1.77,1.65-.25-.06-.49-.2-.75-.23-4.92-.64-5.35-.52-7.24,4.22-3.59,8.98-6.08,18.27-7.22,27.9-1.4,11.77-2.82,23.54-3.31,35.39-.14,3.51-.81,6.99-.74,10.52,.06,3.15,.02,3.16,3.31,3.08,.91-.02,1.82-.06,2.73-.09,3.48-.12,3.65-.3,3.59-3.88-.02-1.06,.03-1.59-1.54-1.87-2.55-.46-2.84-2.53-.99-4.49,4.06-4.31,3.37-4.72,7.37,.71,.75,1.02,.77,1.8-.01,2.77-.56,.7-1.11,1.48-1.38,2.32-.85,2.71,0,3.71,2.86,3.7,2.73-.01,5.47-.03,8.2,.11,1.61,.08,2.5-.32,2.46-2.07-.02-1.04,.05-2.08,.13-3.12,.09-1.16-.07-1.66-1.54-1.98-2.27-.5-2.47-1.69-1.21-3.75,1.24-2.03,3.12-3.47,4.93-5.35Zm23.2,178.89c-4.42-.43-8.67,.12-12.92,.45-1.39,.11-1.59,.98-1.72,2.12-.66,5.81-1.35,11.63-2.09,17.43-.2,1.56,.51,2.1,1.9,2.26,3.1,.36,6.21,.72,9.3,1.18,1.62,.24,2.43-.31,2.64-1.96,.93-7.09,1.9-14.17,2.89-21.47Zm-25.57,.73c-2.29,0-3.98,.06-5.66-.02-1.93-.09-2.79,.72-3,2.66-.55,5.16-1.31,10.31-1.88,15.47-.26,2.35,.1,2.79,2.46,2.88,3.37,.13,6.76,0,10.13,.1,1.53,.04,2-.6,2.14-2.03,.4-4,.99-7.99,1.37-11.99,.2-2.19,1.69-4.83,.47-6.43-1.42-1.86-4.38-.23-6.02-.65Zm-.19-4.25s0-.05,0-.08c.39,0,.78,.02,1.17,0,7.2-.48,5.82,1.33,7.46-6.4,.89-4.2,1.68-8.42,2.47-12.65,.15-.83,.53-2.24-.64-2.3-2.77-.16-5.87-1.1-8.18,1.07-1.92,1.79-3.91,3.42-6.08,4.85-1.05,.69-1.76,1.49-1.92,2.76-.46,3.62-.94,7.23-1.46,10.84-.2,1.4,.43,1.91,1.71,1.91,1.82,0,3.64,0,5.47,0Zm22.31-1.04c1.22-.08,2.39-.18,3.55-.23,1.1-.05,1.59-.63,1.74-1.68,.72-4.87,1.47-9.73,2.2-14.6,.23-1.52-.23-2.48-1.94-2.68-3.09-.37-6.16-.83-9.24-1.28-1.59-.23-2.35,.48-2.76,1.99-.93,3.51-1.83,7.02-2.4,10.61-.1,.63-.34,1.5-.04,1.89,1.51,1.93,3.08,3.83,4.81,5.57,1.14,1.15,2.74,.19,4.06,.42Zm-130.32,.98c-1.08,.56-2,.27-2.88,.32-.73,.04-1.75-.28-1.84,.82-.07,.87,.06,1.89,.48,2.62,.47,.81,1.38,.31,2.1,.07,1.72-.57,3.44-1.16,5.16-1.74q2.83-.96,2.43-3.77c-.83-5.91-1.64-11.82-2.48-17.72-.23-1.63,.04-3.34-.73-5.07-2.74,.54-5.38,1.11-7.98,1.95-1.51,.49-2.08,1.26-1.85,2.85,.78,5.39,1.53,10.78,2.17,16.19,.22,1.88,1.13,2.77,2.93,2.96,.75,.08,1.56-.13,2.49,.52Zm6.24,4.67c-2-.12-3.64,.76-5.33,1.3-4.71,1.51-4.78,1.57-4.26,6.37,.52,4.77,1.28,9.51,1.88,14.27,.2,1.63,.94,2.14,2.59,1.95,2.31-.27,4.66-.24,6.99-.38,2.36-.14,2.53-.3,2.03-2.51-.6-2.66-1.03-5.34-1.49-8.02-.73-4.32-.95-8.75-2.41-12.98Zm-21.93,4.13c1.74-.65,3.3-1.29,4.89-1.81,1.44-.47,2.06-1.27,1.84-2.87-1.06-7.59-2.14-15.18-2.7-22.83-.12-1.61-.89-2.38-2.53-2.06-1.78,.35-3.56,.69-5.33,1.11-1.53,.36-2.06,1.1-1.46,2.81,1.51,4.31,1.94,8.86,2.69,13.34,.68,4.06,1.15,8.19,2.59,12.3Zm74.17-205.71c4.74,.11,4.07,.83,5.15-4.07,.7-3.16,1.26-6.35,1.92-9.52q1.52-7.27-5.79-8.79c-2.8-.58-3.16-.48-3.67,2.35-.87,4.84-1.68,9.7-2.23,14.58-.62,5.46-1.62,5.05,4.62,5.45Zm8.45,215.74h-.24c0-3.5,.04-7.01-.01-10.51-.05-3.28-.09-3.28-3.13-3.57-.13-.01-.26-.02-.39-.03-3.85-.29-3.94-.18-4.02,3.61-.15,6.76,.46,13.48,.8,20.22,.2,3.92,.88,4.34,4.78,3.98,1.63-.15,2.27-.77,2.24-2.42-.08-3.76-.02-7.52-.02-11.28Zm-12.27-190.55c4.52-.06,4.72,.92,5.24-4.79,.33-3.61,1.06-7.19,1.32-10.8,.15-2,1.77-4.41,.26-5.88-1.39-1.35-3.98-.37-6.02-.64-1.88-.25-2.8,.35-2.97,2.44-.41,5.17-.98,10.33-1.63,15.47-.52,4.12-.62,4.11,3.41,4.2,.13,0,.26,0,.39,0Zm-32.71-45.25c-2.2-.11-4.16,.67-6.21,.89-1.85,.2-2.67,1.2-2.52,3.14,.47,6.44,.84,12.88,1.26,19.44,2.38,.08,4.21-1.04,6.2-1.4,1.6-.29,2.07-1.21,2.04-2.73-.1-4.27-.09-8.54-.19-12.81-.05-2.17,.21-4.38-.57-6.52Zm20.91,7.43c-.17,0-.33,0-.5,0,0,3.38,0,6.76,0,10.14,0,.51-.03,1.09,.47,1.38,.71,.42,1.19-.13,1.68-.55,6.54-5.72,6.74-6.09,7.85-15.15,.17-1.42,.3-2.85,.51-4.26,.28-1.84-.14-3-2.29-3.17-1.67-.13-3.32-.64-4.99-.87-2.47-.35-2.63-.26-2.71,2.35-.1,3.38-.02,6.76-.02,10.14Zm.55,214.14c-3.18-.07-3.2-.05-2.93,3.25,.11,1.29,.29,2.58,.35,3.87,.28,5.96,.51,11.92,.79,17.87,.05,.97-.28,2.11,1.16,2.53,4.22,1.25,6.21-.23,5.9-4.54-.46-6.46-1-12.92-1.47-19.38-.25-3.53-.21-3.54-3.81-3.61Zm-20.41-184.15c-.07,0-.14,0-.2,0,0-3.36,.02-6.73-.01-10.09,0-.94-.2-1.99-1.49-1.68-2.13,.51-4.41,.97-6.05,2.39-1.28,1.11,.01,2.95-.14,4.46-.11,1.02,.04,2.07,.14,3.1,.37,3.86,.81,7.72,1.14,11.59,.17,1.94,1.06,2.45,2.81,1.74,.6-.24,1.22-.46,1.85-.56,1.89-.28,2.59-1.2,2.35-3.19-.31-2.56-.28-5.17-.39-7.75Zm-31.32,188.9c-2.14,.76-3.7,1.37-5.3,1.87-1.37,.43-1.81,1.28-1.62,2.65,.31,2.19,.57,4.38,.83,6.58,.36,3.1,.7,6.2,1.03,9.3,.16,1.48,.83,1.88,2.36,1.6,6.48-1.2,6.48-1.15,5.25-7.4-.15-.77-.26-1.54-.39-2.31-.69-3.95-1.38-7.89-2.16-12.29Zm59.23,8.53c.16,0,.33,0,.49,0,0,4.03-.06,8.06,.03,12.09,.04,1.73,1.09,2.16,3.76,2.17,1.91,0,1.62-1.26,1.6-2.39-.08-3.9-.14-7.8-.3-11.69-.14-3.64-.35-7.27-.63-10.9-.17-2.21-.61-2.37-3.05-2.31-1.85,.05-2.01,.96-1.95,2.51,.13,3.5,.04,7.02,.04,10.52Zm-30.42-320.13c-3.34,.45-6.3,.73-9.21,1.3-1.93,.38-4.74-.76-5.61,1.45-.68,1.74,.14,4.07,.26,6.13,.07,1.29,.62,1.83,1.99,1.64,3.73-.5,7.47-.95,11.21-1.35,1.29-.14,1.86-.71,1.79-1.99-.13-2.19-.26-4.38-.42-7.2Zm21.81,119.3h-.02c0,2.98,0,5.95,0,8.93,0,.76-.22,1.63,.53,2.15,1.54,1.06,4.26-.33,4.51-2.3,.62-4.88,1.17-9.77,1.8-14.65,.72-5.61,1.67-4.93-4.6-5.26-1.67-.09-2.33,.46-2.26,2.2,.12,2.97,.03,5.96,.03,8.93Zm-9.46-110.62c1.86-.38,4.93,.86,6.25-.86,1.39-1.8,.18-4.72-.03-7.14-.01-.13-.05-.25-.07-.38-.11-1.1-.71-1.55-1.82-1.48-3.22,.21-6.45,.36-9.68,.54-1.28,.07-1.86,.72-1.64,2.03,.11,.64,.15,1.28,.21,1.93q.57,5.78,6.78,5.36Zm17.17-.42c7.26,.11,5.98,.45,6.5-6.18,.04-.52,.02-1.04,.08-1.55,.19-1.6-.34-2.44-2.12-2.35-2.72,.14-5.44,.19-8.16,.22-1.7,.02-2.28,.89-2.12,2.47,.05,.51,.03,1.04,.04,1.55q.03,5.74,5.79,5.83Zm5.88,241.15c5.77-.52,11.41-8.12,11.32-14.96-3.38-.12-6.62,.79-9.9,1.37-1.39,.24-1.44,1.21-1.43,2.31,.02,3.75,0,7.49,0,11.28Zm-16.51-13.3c3.42-.86,6.56-1.65,9.69-2.45,.91-.23,1.86-.57,1.73-1.74-.39-3.72,0-7.53-1.2-11.17-6.37,1.97-10.68,8.27-10.22,15.37Zm-32.43-124.55c4.48-.78,4.53-.8,4.26-4.84-.37-5.59-.8-11.17-1.2-16.75-.05-.64,.03-1.38-.62-1.73-1.64-.88-5.1,1.37-4.96,3.25,.16,2.08,.4,4.15,.72,6.21,.71,4.6,.75,9.3,1.81,13.86Zm60.15-103.13c.91,0,1.82,0,2.73,0,2.69-.02,2.92-.21,3.25-2.71q.91-6.97-6.31-7.26c-.91-.04-1.83,.02-2.73-.1-2.12-.27-2.8,.78-2.68,2.7,.03,.39-.02,.78-.04,1.17q-.22,5.99,5.77,6.2Zm-14.95,237.81c-.24-2.31-.54-4.62-.7-6.94-.11-1.51-.75-2.14-2.23-1.7-2.6,.77-5.19,1.58-7.78,2.36-1.29,.39-1.54,1.28-1.1,2.41,1.26,3.24,3.29,5.91,6.45,7.44,4.61,2.24,5.57,1.52,5.36-3.58Zm-41.15-131.6c-3.83,1.16-3.85,1.17-3.49,4.97,.47,4.89,.97,9.78,1.47,14.66,.27,2.66,1.53,3.21,3.81,1.8,1.2-.74,.87-1.78,.74-2.74-.76-5.51-1.47-11.02-1.74-16.58-.04-.75-.13-1.56-.8-2.12Zm43.65,108.05c.14,1.96,.33,4.55,.52,7.13,.08,1.08,.56,1.75,1.72,1.49,2.78-.61,5.51-1.43,8.36-1.77,1.1-.13,1.52-.98,.95-2.01-2.05-3.73-5.03-6.93-9.9-7.17-1.3-.06-2.02,.26-1.65,2.33Zm80.98-190.19c3.26,.38,6.02-.63,8.85-.71,1.1-.03,1.48-.89,1.58-1.88,.25-2.45,.53-4.9,.76-7.35,.22-2.42-.42-2.97-2.48-1.92-4.81,2.46-7.43,6.53-8.71,11.87Zm18.4,1.52c-.64,.07-1.28,.14-1.92,.2-3.08,.29-3.13,.28-3.6,3.24-.32,2.03-.44,4.1-.76,6.13-.28,1.77,.57,2,1.99,1.71,3.55-.72,6.27-3.96,6.98-8.37,.47-2.92,.32-3.08-2.7-2.91Zm-18.32,1.94c.75,2.89,1.98,5,3.31,7.03,.86,1.32,2.15,2.22,3.6,2.84,1.2,.52,2.02,.2,2.18-1.2,.28-2.56,.53-5.13,.81-7.69,.14-1.31-.38-1.96-1.74-1.82-2.55,.26-5.11,.53-8.15,.84Zm-79.96,252.36c.09-1.82,.17-3.11,.2-4.4,.02-.66-.13-1.38-.85-1.55-1.79-.42-3.72-.52-5.3,.32-1.6,.84-.56,2.54-.45,3.86,.14,1.8,.37,3.59,.55,5.39,.12,1.21,.77,1.73,2,1.89,3.25,.43,3.76,.05,3.85-3.33,.02-.9,0-1.81,0-2.18Zm45.67-136.26s0-.06,0-.08c1.29,0,2.65-.27,3.85,.06,2.22,.6,2.37-.63,2.45-2.22,.13-2.58,0-2.91-2.23-3.01-2.84-.13-5.69-.13-8.53-.07-2.27,.04-2.44,.33-2.39,2.88,.05,2.51,.16,2.65,2.59,2.63,1.42-.01,2.84-.12,4.26-.18Zm-61.83,141.79c1.75,0,3.41-.05,5.06,.02,1.58,.07,2.03-.75,1.95-2.14-.11-2.19-.2-4.38-.29-6.58-.06-1.44-.82-1.7-2.08-1.35-4.71,1.33-5.5,2.43-5.03,7.26,.09,.89,.23,1.76,.37,2.8Zm111.16-273.43c-1.37,3.03-.9,6.31-1.31,9.46-.07,.54,.07,1.19,.62,1.23,2.05,.15,4.12,.28,6.12-.39,.57-.19,.61-.76,.65-1.28,.28-3.34-2.55-7.6-6.08-9.02Zm-91.37,264.13c0,2.6,0,5.17,0,7.75,0,.82,.14,1.6,1.15,1.73,1.41,.19,2.83,.35,4.25,.48,.77,.07,1.12-.37,1.31-1.1,.98-3.83-.13-6.35-3.71-8.22-.68-.35-1.31-.88-3-.64Zm26.14-131.81s0,.03,0,.05c1.16-.1,2.32-.26,3.48-.28,1.52-.03,2.04-.81,1.93-2.23-.05-.64-.02-1.3,.02-1.94,.08-1.32-.53-1.96-1.85-1.8-2.06,.24-4.11,.58-6.17,.78-1.36,.13-1.61,.98-1.75,2.11-.41,3.19-.04,3.62,3.18,3.43,.39-.02,.77-.07,1.16-.11Zm73.4,.95c-.39,1.58,.58,2.54,2.71,2.65,.77,.04,1.52,.28,2.28,.47,1.26,.31,1.84-.27,2.32-1.4,1.63-3.81,1.23-4.64-2.84-5.46-.76-.15-1.52-.3-2.28-.48-1.13-.27-1.73,.22-1.88,1.32-.11,.77-.16,1.54-.31,2.91Zm-42.99-1.44c1.07-.38,2.57,1.1,3.46-.37,.73-1.22,.92-2.79,.4-4.15-.45-1.21-1.79-.73-2.76-.89-.9-.15-1.81-.2-2.71-.31-3.02-.35-3.29-.03-3.31,2.95,0,1.78,.63,2.69,2.47,2.65,.78-.02,1.56,.07,2.45,.12Zm-53.14,151.93c4.03,.14,4.05,.13,3.54-3.75-.11-.87,.05-2.02-1.09-2.19-1.64-.24-3.31-.22-4.97-.25-.55,0-.84,.41-1.02,.96-1.07,3.22,.14,5.1,3.41,5.22,.13,0,.26,0,.14,0Zm88.25-155.9c-2.35-.07-2.71,.03-3.14,.86-.59,1.14-.22,4.09,.6,4.81,.72,.62,5.42,1.22,6.02,.74,.19-.15,.33-.39,.44-.62,1.54-3.16,.23-5.52-3.16-5.74-.26-.02-.52-.03-.78-.05Zm-172.32,12.73c.78-.06,1.55-.1,2.33-.18,4.43-.46,3.6-.67,2.71-4.63-.25-1.09-.96-1.39-2.06-1.01-1.84,.63-3.7,1.17-5.56,1.74-1.07,.33-1.42,1.01-1.11,2.08,.28,.97,.26,2.16,1.75,2.1,.65-.03,1.29-.06,1.94-.09Zm64.49,142.43c1.09-.33,2.69,.71,3.37-.98,1.05-2.61-.25-4.55-3.03-4.66-.78-.03-1.56-.03-2.34,0-.53,.01-1.22,.14-1.22,.7,0,1.42-.09,2.93,.36,4.23,.4,1.15,1.83,.52,2.86,.72Zm-49.99-146.71c.02-2.93-.4-3.68-2.08-3.66-2.58,.03-3.85,.76-3.77,2.16,.17,3,.95,4.21,2.75,4.24,2.52,.05,3.08-.45,3.1-2.74Zm62.52,143.91c-.04-2.79-.25-3.02-2.76-2.95-2.37,.06-2.53,.25-2.46,2.81,.09,3.07,.39,3.43,2.85,3.47,2.21,.03,2.4-.25,2.36-3.32Zm-93.46-138.83c3.5,1.08,6.32,0,9.15-.24,.64-.05,.66-.72,.52-1.22-.21-.72-.48-1.79-1.4-1.51-2.58,.8-5.44,.93-8.27,2.97Zm83.58-57.38c4.85,.8,4.63,.39,4.71-5.2-1.87,1.65-3.48,2.92-4.71,5.2Zm57.4,181.45c1.74-1.35,3.42-2.33,4.5-4.24-4.63-.57-4.82-.41-4.5,4.24Zm20.99,15.28c-.9-1.59-1.91-2.58-3.24-3.45-.57,1.41-.97,2.57-.63,3.8,1.36,.3,2.46,.41,3.87-.35Z"/><path class="cls-5" d="M2921.79,1032.2c1.62-4.01,3.4-7.76,4.79-11.67,2.79-7.86,5.14-15.85,7.74-23.76,.51-1.54,.55-3.06,.27-4.62-1.35-7.43-2.73-14.85-4.01-22.3-.31-1.78-.31-3.62-.37-5.44-.05-1.37,.32-2.82,1.56-3.38,2.97-1.34,2.93-3.99,3.34-6.56,.21-1.32-.53-3.36,1.21-3.72,1.55-.32,1.97,1.77,2.86,2.81,.67,.79,1.11,1.76,1.71,2.6,1.16,1.62,2.7,1.62,4.51,1.25,1.82-.37,2.23-1.73,2.52-3.08,.27-1.25,.1-2.59,.15-3.88,.03-.94,.17-1.91,1.33-2.05,.87-.1,1.46,.45,1.78,1.23,.75,1.82,1.66,3.55,2.96,5.03,1.57,1.78,3.7,1.38,4.47-.87,.59-1.71,1.14-3.47,1.03-5.34-.05-.91,.04-1.79,.71-2.55,1.03-1.16,2.09-1.15,2.72,.27,.79,1.78,1.35,3.64,2.33,5.36,1.24,2.17,2.9,1.52,4.74,1.25,1.98-.29,2.69-1.37,2.69-3.15,0-1.56,.02-3.13-.16-4.68-.17-1.5,.68-2.22,1.82-2.62,1.41-.49,1.71,.79,2.16,1.68,.7,1.39,1.25,2.88,2.08,4.19,1.28,2.01,2.69,2.45,4.6,2,2.06-.49,2.05-2.1,2.18-3.65,.1-1.17,.12-2.34,.13-3.51,.02-1.6,1.08-2.4,2.4-2.66,1.51-.29,1.39,1.18,1.76,2.07,.7,1.68,1.37,3.38,2.13,5.03,.4,.86,1.08,1.44,2.16,1.35,1.11-.1,1.37-.82,1.69-1.78,.9-2.7,1.26-5.59,2.75-8.1,.4-.68,.62-1.53,1.59-1.4,.94,.13,1.1,.98,1.25,1.76,.34,1.79,.51,3.62,1.34,5.28,.35,.7,.64,1.43,1.02,2.11,.42,.75,1.1,1.11,1.96,.96,1.03-.19,1.03-1.03,1-1.81-.17-5.61,.25-11.2,.53-16.79,.08-1.69,.11-3.38,.17-5.08,.1-2.98,.11-3.07-2.78-3.31-2.65-.22-5.06-1.2-7.48-2.14-2.35-.91-2.41-1.07-1.04-3.39,2.98-5.06,5.25-10.47,7.91-15.7,4.03-7.93,6.07-16.62,9.51-24.78,2.44-5.78,3.78-11.9,5.05-18.02,1.67-8.03,4.41-15.81,5.59-23.95,.19-1.29,.35-2.58,.55-3.86,.39-2.53,.34-5.08,1.86-7.44,.84-1.3,.63-3.27,.9-4.94,.14-.87,.03-1.84,1.04-2.6,1.01,.18,1.1,1.2,1.41,1.95,.56,1.32,1.02,2.67,1.53,4.01,.43,1.14,1.03,2.35,2.39,2.14,1.25-.19,1.1-1.66,1.3-2.59,.3-1.38,.22-2.85,.42-4.26,.09-.65,.57-1.21,1.3-1.23,.78-.02,1.12,.58,1.26,1.25,.25,1.14,.35,2.33,.67,3.45,.47,1.67,1.45,2.95,3.2,3.8,1.12-1.47,1.33-2.97,1.43-4.52,.05-.78,0-1.59,.19-2.33,.25-.95,.99-1.56,2-1.57,1.17,0,1.49,.86,1.52,1.86,.07,2.08,0,4.18,1.25,6.23,1.85-1.2,1.64-3,1.64-4.77,0-1.23-.35-2.97,1.54-2.99,1.67-.01,1.71,1.58,1.95,2.89,.4,2.21,.17,4.64,2.94,5.86,1.16,.52,.89,2.31,.9,3.61,.04,5.87,.55,11.72,1.28,17.53,1.6,12.83,4.92,25.28,8.58,37.65,2.26,7.63,4.89,15.12,8.25,22.33,1.7,3.65,3.87,7.08,5.74,10.66,1.54,2.95,1.43,3.31-1.43,4.85-2.06,1.11-4.18,2.12-6.33,3.07-1.18,.52-1.89,1.12-1.89,2.57,0,6.78,.37,13.54,1.08,20.28,.04,.36,.31,.69,.58,1.28,2.35-.85,3.23-2.82,4.01-4.82,.28-.71,.26-1.53,.42-2.29,.15-.7,.57-1.2,1.31-1.2,.74,0,1.14,.51,1.28,1.22,.35,1.8,.78,3.57,1.64,5.2,1.02,1.94,2.21,2.09,3.52,.32,1.16-1.56,2.19-3.23,2.69-5.17,.24-.93,.73-1.8,1.85-1.62,1.23,.19,1.07,1.29,1.08,2.18,.01,1.31,.07,2.6,.53,3.85,.83,2.24,2.65,2.76,4.56,1.27,1.52-1.19,2.2-2.85,2.6-4.68,.19-.88,.09-1.85,.75-2.58,.67-.73,1.42-.77,1.87,.13,.33,.67,.41,1.49,.5,2.25,.21,1.73,.89,3.27,1.87,4.67,1.36,1.96,3.31,2,4.69,.1,1.07-1.49,1.89-3.11,2.43-4.88,.19-.62,.41-1.24,.63-1.85,.32-.88,.74-1.88,1.83-1.65,1.11,.23,1.15,1.23,.92,2.22-.43,1.87,.07,3.64,.8,5.31,1.3,2.95,3.35,3.13,5.22,.51,.84-1.17,1.5-2.45,1.85-3.85,.23-.9,.54-1.74,1.21-2.41,.6-.59,1.32-.8,2.14-.51,.76,.27,.85,.95,.82,1.6-.1,1.84-.06,3.64,.65,5.38,1.03,2.53,3.3,2.92,5.09,.84,1.15-1.34,1.46-3.03,1.96-4.64,.23-.74,.26-1.54,.49-2.28,.21-.66,.73-1.11,1.47-1.02,.75,.09,1.08,.68,1.15,1.36,.18,1.81,.35,3.61,.87,5.38,.57,1.96,1.57,3,3.74,3.28,3.26,.42,3.38,.79,3.1,4.01-.77,8.95-1.51,17.91-2.3,26.86-.41,4.63,.35,8.86,2.39,13.2,3.95,8.37,8.68,16.33,12.6,24.7,.99,2.12,1.9,4.28,2.71,6.47,.68,1.83-.04,2.78-1.95,2.65-1.42-.1-2.83-.45-4.24-.67-1.03-.16-2.06-.38-3.09-.44-5.17-.28-5.96,.43-6.81,5.49-2.59,15.55-4.47,31.18-6.18,46.85-.72,6.61-1.1,13.23-1.46,19.85-.08,1.46-.3,2.84-.98,4.14-.96,1.84-2.37,2.49-4.5,2.24-2-.24-2.06-1.82-2.17-3.18-.26-3.07-1.62-5.74-2.7-8.53-.58-1.5-1.61-1.58-2.81-1-2.61,1.26-4.05,3.49-5.16,6.1-3.5,8.23-4.83,17.01-6.65,25.66-.48,2.29-.86,4.61-1.16,6.93-.39,2.97-.21,3.27,2.68,3.15,13.76-.58,26.91,2.37,39.83,6.74,3.34,1.13,6.47,2.74,9.68,4.17,1.53,.68,2.38,1.92,3.02,3.42,1.33,3.11,2.6,6.26,4.17,9.26,.99,1.89,.81,3.44-.9,4.33-3.7,1.93-5.05,4.98-6.51,8.81-1.65,4.35-2.54,8.66-3.23,13.14-1.38,9.01-2.85,18-4.23,27.01-.44,2.83-.68,5.69-1.08,8.53-.46,3.29-.36,6.46,1.36,9.45,1.01,1.74,1.1,3.74,.97,5.71-.13,1.95,.21,3.65,2.1,4.65,1.69,.9,1.9,2.35,1.53,4.01-1.28,5.61-1.54,11.34-2.11,17.04-.26,2.64-.22,2.68-2.98,2.69-15.77,.02-31.53,.04-47.3,.03-58.24-.04-116.48-.08-174.72-.13-.65,0-1.3-.03-1.95-.02-1.37,.03-2.16-.5-2.32-1.99-.9-8.15-1.85-16.3-2.8-24.44-.13-1.09,.22-2.09,.66-3.02,1.35-2.85,1.27-5.7,.69-8.75-1.66-8.69-2.64-17.54-4.74-26.11-2.23-9.09-3.88-18.33-6.83-27.25-.46-1.38-.86-2.71-1.85-3.82-1.5-1.67-2.69-3.53-3.28-5.71-.43-1.6-1.37-2.02-2.92-1.52-2.23,.72-4.47,1.4-6.73,2.02-1.5,.42-3.02,.86-4.56,1.03-4.53,.49-5.03-.21-4.62-4.79,.75-8.45,.26-16.92-.05-25.38-.04-1.04-.07-2.1-.29-3.11-.77-3.5,.62-5.53,3.85-7.04,5.16-2.42,4.87-2.55,3.48-8-2.38-9.32-2.86-6.89,4.64-12.46,1.55-1.15,3.39-1.93,5.15-2.78,9.5-4.57,18.62-9.94,28.58-13.52,5.88-2.11,11.81-4.06,17.71-6.11,2.7-.94,2.7-.98,2.2-3.82-2.62-14.71-7.69-28.62-13.64-42.25-1.3-2.98-5.94-4.81-9.62-3.77-2.86,.81-5.74,1.62-8.47,2.9-.73,.34-1.69,.72-3.09,.09Zm56,7.9c-.07,.38,0,.87-.21,1.13-4.03,4.79-3.8,10.19-2.32,15.78,.07,.25,.06,.52,.11,.77,1.08,5.35,1.67,10.8,3.01,16.11,.4,1.6,1.06,1.79,2.43,1.51,3.18-.66,6.37-1.29,9.58-1.83,1.81-.3,2.37-1.1,1.95-2.94-.81-3.55-1.43-7.15-2.11-10.73-1.5-7.93-2.97-15.87-4.48-23.8-.23-1.2-.03-2.75-1.89-2.93,1.06-1.61,.64-3.19-.06-4.8-.93-2.13-1.49-4.48-3.53-5.93-.4-.28-.96-.36-1.46-.48-4.53-1.08-8.46,2.87-7.79,7.97,.44,3.34,1.08,6.67,1.72,9.98,.31,1.59-.05,3.35,1.06,4.89,1.98-1.18,2.05-3.75,4-4.71Zm109.15-4.71c.17-1.18,.46-2.37-1.42-2.38-1.4,0-2.63,.09-2.68,1.91-.03,1.09-.36,2.21,.26,3.43,1.73-.77,2.07-2.98,3.97-3.11-.7,1.09-1.23,2.37-2.15,3.23-2.39,2.21-2.32,4.97-2.35,7.86-.07,6.9-.66,13.77-1.57,20.62-.36,2.71-.21,2.91,2.5,2.93,5.99,.04,11.95,.6,17.89,1.26,2.68,.3,2.8,.41,3.03-2.48,.83-10.51,1.6-21.02,2.33-31.53,.18-2.54-.09-2.86-2.81-3.1-4.01-.36-8.02-.72-12.05-.87-2.28-.08-3.7,.62-4.96,2.24Zm43.11,157.47c0,.78,.02,1.56,0,2.34-.1,3.67-.1,3.74,3.42,3.75,4.3,0,8.57,.44,12.82,1.02,3.34,.45,3.46,.53,3.78-2.83,.77-8.15,1.73-16.28,3.02-24.36,.1-.63,.35-1.43,.08-1.9-1.86-3.27-1.39-6.8-1.26-10.28,.05-1.4-.47-2.14-1.87-2.46-3.8-.87-7.58-1.83-11.36-2.74-1.44-.35-2.28,.14-2.24,1.73,.07,2.18-.64,4.08-2.02,5.75-.68,.83-.9,1.85-1.06,2.89-1.36,9-2.56,18.02-3.31,27.1Zm-23.39-4.32c0,3.51-.01,7.02,0,10.53,0,1.09,.13,2.23,1.7,1.89,4.33-.94,8.73-1.31,13.14-1.66,1.81-.15,2.76-.88,2.93-2.83,.9-10.23,1.88-20.46,2.88-30.68,.13-1.34,.02-2.62-.56-3.8-.87-1.8-1.38-3.65-1.19-5.65,.17-1.75-.73-2.3-2.3-2.28-2.08,.03-4.16-.02-6.24,.02-7.19,.14-7.12,.16-7.9,7.23-.99,9.06-1.49,18.15-2.47,27.23Zm-67.36,2.26c.1-12.12-1.7-24.11-2.41-36.17-.14-2.43-.33-2.52-2.96-2.14-3.73,.53-7.43,1.3-11.17,1.76-1.95,.24-2.56,.82-2.39,2.94,.84,10.24,1.57,20.48,2.97,30.66,.61,4.4,.55,8.82,.63,13.24,.03,1.28,.19,2.4,1.89,2.23,3.75-.36,7.49-.79,11.25-1.07,1.66-.13,2.23-.88,2.19-2.47-.07-2.99-.02-5.98-.02-8.98Zm-71.96-13.75c-.56-7.27-1.12-14.91-1.75-22.55-.27-3.24-.8-6.45-.99-9.69-.11-1.98-1.03-2.38-2.75-2.22-4.95,.46-9.65,2.03-14.42,3.27-1.29,.33-1.49,1.23-1.29,2.41,.43,2.45,.67,4.86-.5,7.25-.36,.73-.16,1.8-.01,2.69,1.5,9.37,3.31,18.67,5.5,27.9,.38,1.61,1.13,1.73,2.5,1.17,3.37-1.37,6.77-2.66,10.18-3.92,3.57-1.31,3.58-1.28,3.52-5.16,0-.26,0-.52,0-1.16Zm91.11,15.85c-.74-7.64-1.03-15.29-.88-22.96,.04-2.08-.7-3.69-1.82-5.38-2.65-4.02-6.29-7.27-8.8-11.4-1.18-1.94-2.66-2.14-5.41-1.26-1.92,.61-1.18,2.11-1.13,3.24,.62,13.24,1.94,26.42,3.39,39.59,.23,2.12-.73,4.92,1.14,6.25,1.72,1.23,4.29,.28,6.48,.2q7.36-.26,7.05-7.89c0-.13-.02-.26-.03-.39Zm-126.29,5.33c4.35-2.45,8.14-4.74,12.08-6.72,1.86-.93,1.9-1.96,1.49-3.72-1.49-6.33-2.58-12.76-4.27-19.03-1.39-5.16-1.09-10.73-4.8-15.37-2.63-3.28-2.13-3.68-6.34-2.2-.25,.09-.51,.14-.74,.24-1.54,.69-3.26,1.15-4.55,2.15-1.11,.86,.14,2.37-.17,3.68-1.07,4.58-.92,9.15,.41,13.75,1.91,6.62,3.49,13.33,5.19,20.01,.57,2.24,1.08,4.5,1.72,7.2Zm61.47-45.36c-1.62,4.58,1.72,6.14,3.71,8.31,.79,.87,2.07,.12,2.1-1.09,.01-.51-.09-1.03-.17-1.55-.98-6.42-1.82-12.86-2.99-19.25-.74-4.06-1.09-8.22-2.5-12.36-4.38,1.19-8.45,2.79-12.45,4.64-2.7,1.25-2.74,1.26-2.16,4.07,1.24,6.11,2.31,12.24,2.54,18.5,.1,2.59,.59,5.16,.88,7.74,.15,1.39,.72,2.16,2.27,1.85,3.37-.68,6.75-1.32,10.33-2.01-1.44-3.37-5.19-4.94-5.59-8.89q1.97,1.22,4.03,.04Zm-45.86,44.19c-4.43,2.48-8.58,4.83-12.76,7.14-1.14,.63-1.16,1.54-1.04,2.65,.66,6.07,1.43,12.13,2.53,18.14,.24,1.3,.56,2.53,1.6,3.46,1.17,1.06,2.12,2.31,2.7,3.78,.51,1.31,1.43,1.41,2.5,.95,2.14-.93,4.27-1.91,6.37-2.93,.44-.21,1.11-.68,1.09-.99-.24-3.36,1.68-6.49,.89-9.95-.66-2.9-.73-5.94-1.28-8.87-.82-4.3-.91-8.76-2.6-13.38Zm181.61,16.49s.06,0,.1,0c0,2.6-.61,5.41,.16,7.75,.88,2.67,1.42,5.22,1.28,7.96-.07,1.47,.55,2.17,1.98,2.28,3.37,.25,6.74,.52,10.12,.75,.64,.04,1.54,.04,1.66-.68,.47-2.96,2.7-5.32,2.66-8.5-.04-2.72,.41-5.45,.62-8.17,.14-1.82,.26-3.64,.36-5.45,.08-1.51-.64-2.61-2.11-2.84-4.89-.75-9.76-1.63-14.75-1.5-1.51,.04-2.09,.73-2.08,2.14,.02,2.08,0,4.17,0,6.25Zm3.91-181.05c.12-2.21,.2-4.42,.39-6.63,.15-1.77-.63-2.33-2.3-2.11-1.93,.25-3.88,.37-5.82,.6-3.01,.35-3.55,.83-3.78,3.79-.17,2.2-.08,4.43-.22,6.63-.49,8.18-1.06,16.36-1.54,24.54-.16,2.66-.07,2.68,2.51,2.52,1.56-.1,3.11-.31,4.67-.35,4.7-.11,3.79,.05,4.19-4.1,.8-8.28,1.69-16.57,1.9-24.9Zm-26.83,186.56c-.15,0-.3,0-.44,0,0,3.38,.03,6.75-.01,10.13-.02,1.49,.58,2.14,2.1,2,3.36-.31,6.72-.62,10.08-.85,1.37-.09,1.73-.89,1.83-2.04,.15-1.68,.02-3.53,1.17-4.84,1.35-1.52,1.44-3.28,1.59-5.07,.3-3.62,.47-7.26,.84-10.87,.21-1.97-.58-2.51-2.4-2.43-4.42,.19-8.76,1.01-13.12,1.67-1.37,.21-1.64,1.05-1.64,2.18,0,3.37,0,6.75,0,10.12Zm-138.28-11.93c-.05,0-.11,0-.16,0,0-5.2,0-10.4,0-15.6,0-1.72-.77-2.35-2.47-1.77-2.33,.8-4.74,1.41-7.03,2.31-5.57,2.17-5.93,2.34-4.07,8.03,2.5,7.65,2.81,16.13,8.41,22.67,.94,1.1,1.46,1.76,3.08,1.35,1.74-.45,2.31-1.23,2.28-2.95-.08-4.68-.03-9.36-.03-14.04Zm128.83-46.7c1.5-1.99,.98-4.19,1.37-6.18,1-5.1,1.93-10.22,2.82-15.34,.24-1.36,.76-2.92-.93-3.82-3.43-1.82-6.64-4.08-10.48-5.13-1.73-.47-2.41-.08-2.45,1.7-.08,3.51-.26,7.02-.31,10.53-.02,1.6-.46,3.27,.24,5,1.83-.87,2.43-2.93,5-3.44-1.89,2.18-3.49,3.82-4.86,5.64-2.25,2.97-1.47,5.84,1.85,7.4,2.57,1.21,5.14,2.42,7.76,3.65Zm-95.01,22.97c-1.08-4.98-.52-10.12-1.45-15.13-.34-1.82-.96-2.53-2.81-2.07-4.04,1.01-8.07,2.01-12.14,2.9-1.33,.29-1.73,.97-1.57,2.17,.69,5.15,1.4,10.3,2.1,15.44,.22,1.64,1.26,1.91,2.53,1.33,3.62-1.65,7.41-2.37,11.36-2.43,1.45-.02,2.18-.69,1.98-2.22Zm93.43,4.43c.22-.39,.44-.61,.45-.83,.3-7.02,.57-14.04,.85-21.05,.03-.68-.04-1.4-.69-1.7-3.25-1.51-6.28-3.53-10.09-4.52-.97,7.87-1.05,15.51-1.21,23.14-.02,1.11,.67,1.58,1.61,1.9,3.04,1.01,6.08,2.06,9.08,3.07Zm-13.05-33.99c.13-6.92,.82-13.24,1.4-19.57,.37-4.06-3.44-8.59-7.35-9.24-2.2-.37-2.93,.03-3.04,2.27-.35,7.02-.55,14.05-.82,21.07-.05,1.16,.29,1.94,1.52,2.35,2.57,.88,5.08,1.89,8.3,3.11Zm-1.57,28.95c.16-2.42,.33-4.73,.47-7.05,.33-5.06,.66-10.12,.95-15.18,.06-1.12,.42-2.56-1.08-2.99-2.78-.8-5.46-2.11-8.62-2.15-.4,8.4,.26,16.61-.77,24.75-.14,1.13,.52,1.83,1.57,1.73,2.49-.24,4.82,.8,7.48,.89Zm-38.93-128.58v-.02c1.94,0,3.89-.01,5.83,0,1.2,.01,2.01-.35,2.01-1.74-.01-2.98,.02-5.96-.02-8.94-.02-1.33-.63-2.29-2.07-2.3-4.4-.04-8.81-.02-13.21,0-.92,0-1.41,.62-1.42,1.5-.03,2.58-.54,5.27,.37,7.72,1.5,4.01,.41,3.74,5.02,3.77,1.17,0,2.33,0,3.5,0Zm-.88-17.07c2.08,0,4.16-.07,6.24,.02,1.79,.08,2.62-.54,2.55-2.43-.09-2.47-.07-4.94,.04-7.41,.09-1.9-.75-2.5-2.55-2.46-3.62,.08-7.23-.02-10.85,.04-2.67,.05-3.58,.83-3.71,3.4-.11,2.33,.1,4.67,.13,7,.02,1.29,.61,1.87,1.91,1.85,2.08-.03,4.16,0,6.24-.01Zm4.97-89.09s0-.03,0-.05c-.91,.04-1.82,.03-2.72,.13-3.31,.37-3.48,.49-3.44,3.77,.05,3.63,.25,7.25,.35,10.87,.03,1.16,.29,2.05,1.65,2.16,2.58,.21,5.16,.46,7.74,.64,1.78,.13,2.56-.52,2.27-2.52-.61-4.23-1.05-8.49-1.44-12.75-.15-1.65-.91-2.31-2.47-2.27-.65,.02-1.3,0-1.95,0Zm-24.15,51.26c-3.53,3.16-5.25,7.19-6.35,11.48-.61,2.36,.58,3.52,3.22,3.55,4.29,.03,8.57,.01,12.86,0,1.04,0,2.1,.07,3.11-.1,1.18-.19,1.44-1.04,.86-2.02-.32-.55-.85-.98-1.29-1.45-3.83-4.08-8.24-7.52-12.41-11.46Zm39.18,25.55v.04c-1.95,0-3.89-.01-5.84,0-1.01,0-1.82,.35-1.81,1.54,.03,2.85-.23,5.71,.29,8.54,.28,1.51,1.06,2.21,2.67,2.16,2.85-.09,5.71-.09,8.57-.02,1.74,.04,2.64-.49,2.65-2.41,0-2.07,.28-4.14,.46-6.21,.32-3.53,.25-3.62-3.48-3.65-1.17,0-2.34,0-3.51,0Zm-19.18,44.62q8.63,0,7.91-7.94c-.01-.13,0-.26-.02-.39-.3-2.15-1.07-2.95-3.26-3.06-1.94-.1-3.89-.03-5.84-.03q-8.35,0-7.61,8.21c.01,.13,.01,.26,.02,.39,.11,1.86,1.04,2.85,2.96,2.84,1.95-.01,3.89,0,5.84,0Zm-16.27-73.31c4.06,4.32,8.86,7.74,12.46,12.36,.5,.64,1.15,.98,2.04,.59,.86-.38,1.05-1.05,1.05-1.87,0-5.05,0-10.11,.02-15.16,0-1.27-.42-1.89-1.85-1.67-4.91,.75-9.72,1.69-13.72,5.75Zm14.16-61.21c0,2.87,0,5.06,0,7.26,0,1.24,.53,1.97,1.85,1.91,2.07-.1,4.13-.21,6.2-.36,1.4-.1,2.06-.84,1.94-2.3-.25-2.96-.42-5.93-.68-8.9-.73-8.59-.08-6.56-8.04-6.47-1.48,.02-2.03,.61-1.83,2.17,.32,2.43,.42,4.89,.55,6.68Zm13.68,112.48c0,.26,0,.52,0,.78,.11,6.95-.9,5.94,5.97,5.96,2.02,0,4.46,.89,5.99-.6,1.37-1.33,.6-3.72,.99-5.61,.05-.25,.12-.51,.16-.76,.74-5.26,.12-6.01-5.05-6.05-.65,0-1.3-.01-1.95,0-7.07,.11-5.99-.96-6.1,6.27Zm-31.17-22.51c-1.39,0-2.94,.08-4.49-.02-1.84-.12-2.69,.63-2.52,2.47,.24,2.57,.59,5.14,.74,7.72,.1,1.72,.98,2.18,2.51,2.13,1.81-.06,3.62-.01,5.43-.03,6.18-.07,5.31,.6,5.35-5.41,.01-2.15,1.06-4.85-.49-6.32-1.52-1.45-4.21-.22-6.53-.53Zm25.51-34.74c-1.51-.26-2.17,.33-2.16,1.87,.04,4.92,.02,9.84,.04,14.77,0,.75-.12,1.62,.75,2.03,.84,.4,1.47-.09,2.06-.62,3.65-3.3,6.85-7.07,10.72-10.14,.71-.56,.92-1.29,.14-1.95-3.4-2.88-7.07-5.23-11.56-5.96Zm-24.37,63.99c1.04,0,2.08-.07,3.11,.01,1.97,.16,2.88-.6,2.74-2.66-.11-1.55,0-3.11,0-4.67-.04-4.53-1.21-5.68-5.78-5.72q-6.99-.06-6.51,7.08,.39,5.94,6.45,5.95Zm11.64-127.09c-1.98-.58-3.64-.02-5.3,.03-3.38,.1-3.47-.2-3.51,3.9-.03,2.99,.06,5.98,.16,8.97,.17,5.11,.19,5.11,5.35,4.7,3.19-.25,3.25-.25,3.28-3.33,.05-4.68,.01-9.36,.01-14.26Zm14.48,86.12c.18,.36,.36,.72,.53,1.07,5.15,0,10.29,.03,15.44-.02,1.6-.02,2.22-.97,2.09-2.59-.29-3.84-1.63-7.24-4.08-10.68-4.93,4.02-9.52,8.04-13.99,12.22Zm-22.97-47.86c2.5-.23,4.41-.44,6.34-.57,1.63-.11,2.2-.97,2.15-2.55-.08-2.46,.01-4.93-.04-7.39-.14-6.23,1.38-5.81-6.25-5.27-1.7,.12-2.22,.92-2.2,2.47,.03,4.26,.01,8.53,.01,13.31Zm-8.63,92.72c.33,3.39,.64,6.21,.88,9.04,.14,1.67,.78,2.55,2.66,2.49,8.03-.24,7.81,.98,7.77-7.39,0-.52-.02-1.04-.01-1.56,.03-1.8-.94-2.58-2.66-2.58-2.7,0-5.41,0-8.64,0Zm-82.21,34.43c-.67,0-.93-.03-1.19,0-3.2,.49-5.79,4.31-5.09,7.49q1.46,6.69,6.64,5.25c1.12-.31,2.25-.66,3.39-.84,1.46-.24,2.05-.9,1.6-2.39-.68-2.23-1.27-4.49-1.98-6.71-.58-1.8-1.92-2.69-3.37-2.81Zm125-34.42c-2.14,0-3.56-.01-4.98,0-.98,.01-1.93,.36-2.06,1.39-.38,3.07-1.04,6.49,.23,9.14,.99,2.05,4.26,.54,6.49,.84,.38,.05,.77,0,1.16-.02,1.67-.06,2.61-1.07,3-2.55,.26-.99,.28-2.04,.38-3.07,.71-7.14,.62-5.56-4.21-5.73Zm-110.74,43.9c1.66,.3,3.21-.56,4.86-.86,1.65-.3,2.13-1.21,1.65-2.79-.67-2.24-1.21-4.51-1.91-6.74-.98-3.16-2.73-4.3-5.4-3.67-2.61,.61-3.93,2.51-3.54,5.62,.28,2.17,1.06,4.28,1.43,6.45,.29,1.72,.9,2.71,2.91,2Zm180.59-35.98c-1.46,0-2.5-.09-3.52,.02-2.42,.24-5.66-1.11-7.1,.69-1.79,2.23-1.07,5.71-1.31,8.66-.11,1.32,.51,1.86,1.85,1.78,2.07-.11,4.16-.18,6.23-.14,1.63,.03,2.4-.81,2.67-2.24,.52-2.78,1.28-5.53,1.17-8.76Zm-213.65,45.62c1.46,.09,2.45-.62,3.48-1.09,1.74-.79,4.42-.66,5.08-2.32,.71-1.79-.88-3.87-1.63-5.77-1.03-2.63-2.99-3.65-5.41-2.96-2.69,.76-4.1,3.12-3.39,5.96,.53,2.11,1.26,4.17,1.87,6.18Zm102.44,35.09c-.03,3.18,.45,3.57,3.47,2.95,2.78-.57,5.57-1.08,8.35-1.62,.75-.14,1.72-.06,2-.9,.36-1.07-.65-1.61-1.33-2.11-1.77-1.29-3.64-2.45-5.45-3.69-4.24-2.91-4.55-2.83-6.32,1.97-.4,1.08-.82,2.18-.73,3.38Zm5.89-10.53c3.41,2.7,6.45,5.11,9.5,7.52,.54,.43,1.14,.65,1.79,.33,.72-.35,.68-1.05,.62-1.68-.34-3.23-.68-6.46-1.09-9.69-.19-1.5-1.06-1.91-2.5-1.43-3.01,1-5.66,2.56-8.32,4.95Zm20.41,10.4c3.78-.31,6.62-.55,9.47-.77,1.12-.09,1.64-.6,1.46-1.76-.45-2.97-1.94-5.33-4.24-7.22-.77-.64-1.4-.47-1.99,.23-2.1,2.47-4.27,4.9-6.28,7.44-.94,1.18-.52,1.91,.96,2.07,.51,.06,1.04,0,.62,0Zm3.05-12.37c-2.65-1.98-5.43-3.2-8.63-3.36-.83-.04-1.67,.11-1.57,1.19,.34,3.48,.69,6.95,1.18,10.41,.17,1.21,1.29,1.43,2.01,.59,2.41-2.81,5.16-5.38,7.01-8.83Zm-1.1,17.1c1.43,2.99,7.48,10.75,9.66,12.46,.37-4.1,.04-8.06,0-12.02-.02-1.48-.89-1.66-2.07-1.49-2.42,.35-4.84,.67-7.58,1.05Zm-143.32-40.9c.07,.47,.11,.99,.23,1.49,1.3,5.59,1.15,5.42,5.73,3.05,2.72-1.4,2.74-1.37,1.7-4.34-.21-.61-.44-1.22-.7-1.82-.67-1.58-2.05-2.62-3.55-2.68-1.77-.08-2.37,1.76-3.07,3.13-.17,.34-.22,.74-.34,1.17Z"/><path class="cls-5" d="M1201.48,1021.75c4.25-1.17,8.48-2.35,12.72-3.49,1.14-.3,1.52-.9,1.06-1.98-.4-.96-.77-1.94-1.28-2.84-2.76-4.88-.95-9.64,.54-14.31,.73-2.28,2.87-2.55,4.62-.78,2.56,2.59,4.76,5.52,7.52,7.93,1.28,1.13,.9,2.51,.68,3.97-.79,5.35-.69,5.41,4.52,4.13,2.28-.56,4.55-1.14,6.83-1.68,1.59-.37,2.73-.97,1.83-2.91-2.07-4.43-1.17-8.74,.22-13.17,1.22-3.91,2.56-4.47,5.62-1.5,1.86,1.81,3.49,3.86,5.22,5.8,1.13,1.27,1.14,2.83,1.15,4.41,.03,7.42,.02,14.85,.64,22.26,.05,.63,.17,1.26,.3,2.19,8.69-1.41,17.06-3.71,26.05-4.44-.95-4.52-1.9-8.66-2.67-12.84-2.51-13.59-6.24-26.88-10-40.15-.32-1.13-.68-2.24-1.02-3.36-.5-1.62-1.51-2.18-3.25-1.99-3.88,.41-7.79,.61-11.68,.9-1.03,.08-2.14,.36-2.86-.67-.88-1.24,.02-2.21,.64-3.18,.35-.55,.71-1.1,1.15-1.58,6.17-6.81,10.57-14.85,15.34-22.59,4.24-6.87,8.75-13.57,13.01-20.43,4.81-7.75,9.4-15.62,13.2-23.92,1.52-3.32,2.21-3.57,5.75-2.55,4.28,1.24,8.69,1.84,13.12,1.86,9.9,.06,19.8,.44,29.69-.23,5.06-.34,10.12-.81,15.06-2.13,3.12-.83,3.34-.65,4.71,2.39,6.74,14.97,14.31,29.53,22.44,43.78,4,7.01,7.86,14.11,12.38,20.81,2.09,3.09,1.67,3.83-2.24,4.09-4.42,.29-8.84,.75-13.26,.75-3.19,0-4.41,1.8-5.12,4.34-1.22,4.39-2.49,8.77-3.44,13.22-2.95,13.79-4.23,27.78-4.47,41.87-.09,5.42-.28,4.24,4.54,5.16,.62,.12,1.28,.02,2.1,.02,.83-7.1,1.48-14.2,.8-21.36-.05-.52-.12-1.04-.18-1.55-.25-2.19-1.14-4.57-.57-6.52,.51-1.74,2.7-2.96,4.05-4.5,.85-.97,1.49-2.12,2.29-3.15,1.21-1.56,2.21-1.56,3.39,.03,.86,1.17,1.13,2.62,1.71,3.92,1.34,2.96,2,5.83,.18,8.85-.69,1.16-.12,1.96,1.12,2.34,1.98,.6,3.95,1.22,5.85,1.81,.67-.83,.58-1.64,.55-2.4-.09-2.37,.74-4.16,2.62-5.76,1.96-1.68,3.65-3.71,4.94-6.01,.33-.59,.86-1.07,1.56-.95,.7,.12,1.15,.74,1.19,1.39,.28,4.88,1.37,9.8-.68,14.58-1.1,2.57-1.08,2.58,1.46,3.6,.24,.1,.48,.21,.73,.27,1.99,.53,4.11,2.51,5.8,1.64,2.03-1.06,.68-3.82,.8-5.82,.12-2.03,1.4-3.3,2.34-4.82,1.18-1.9,2.82-3.42,4.47-4.89,1.37-1.22,2.44-1.03,2.91,.74,1.18,4.46,2.49,8.71-.04,13.52-3.99,7.6-6.7,15.8-9.14,24.06-.48,1.63-.04,2.45,1.51,2.9,3.1,.91,3.96,2.8,3.79,6.14-.71,14.02,1.34,27.79,4.59,41.39,1.76,7.34,3.66,14.65,5.67,21.93,1.69,6.14,3.37,12.3,6.15,18.08,.5,1.03,1.36,2.15,.4,3.24-.86,.97-2.17,.72-3.33,.51-1.53-.28-3.05-.66-4.57-1.02-1.01-.24-2.01-.57-3.03-.78-4.99-1.05-5.31-.89-7.32,3.83-1.43,3.36-2.53,6.82-3.48,10.36-6.56,24.5-9.52,49.55-11.68,74.75-1.06,12.34-1.8,24.68-1.93,37.06-.03,3.01-.08,3.04-3.95,3.04-26.32-.02-52.64-.05-78.96-.08-16.94-.02-33.87-.03-50.81-.08-11.56-.03-23.12-.12-34.67-.2-3.48-.02-3.49-.08-4.43-3.53-2.19-8.06-3.08-16.37-4.76-24.52-2.21-10.7-4.19-21.46-7.26-31.97-4.2-14.38-7.82-28.9-10.99-43.53-1.08-4.97-2.73-9.77-4.61-14.5-.6-1.5-1.31-1.98-2.89-1.8-3.15,.37-6.04,1.53-9,2.52-1.54,.51-3.06,1.62-5.02,.55,.19-2.22,1.35-4.09,2.45-5.94,1.27-2.14,2.4-4.34,3.22-6.68,4.13-11.8,8.12-23.65,10.54-35.95,2.11-10.76,3.13-21.64,3.7-32.57,.07-1.3-.31-2.36-1.01-3.58-1.9-3.29-2.45-7.07-2.88-10.82-.32-2.73,1.93-3.01,3.93-3.69-2.33-6.8-5.05-13.33-9.07-19.06-3.73-5.33-2.38-10.98-2.53-16.59-.04-1.32,1.61-2.23,2.92-1.45,3.73,2.21,8.08,3.92,8.49,9.3,.17,2.16,.05,4.45,1.31,6.54Zm61.74,171.94c-1.02,.4-1.2,1.23-1.16,2.21,.12,2.81,.38,5.6,1.12,8.38,.57-.18,.94-.28,1.3-.43,1.36-.54,3.32-.32,3.39-2.53,.06-2.07,.24-4.12-2.36-5.14-1.01-.4-2.63-.8-2.4-2.61,1.71-.31,2.43,1.81,4.12,1.68,.75-1.54,.08-2.99-.25-4.45-.11-.49-.36-1.08-.97-1.03-1.43,.14-2.82,.73-3.74,1.71-.79,.85,.86,1.35,.97,2.21Zm-5.58-14.28c-1.51,.59-2.57,1.15-3.69,1.42-2.32,.56-3.94,1.84-4.92,4.02-.37,.83-.84,1.63-1.41,2.33-.8,.99-.99,1.95-.77,3.24,1.24,7.18,2.31,14.38,3.54,21.56,1.08,6.27,1.15,6.26,7.21,4.99,3.97-.83,4.31-1.25,3.68-5.19-.94-5.92-1.42-11.88-1.65-17.87-.18-4.8-.81-9.54-2-14.5Zm50.46-185.42c1.17,0,2.35-.03,3.52,0,1.7,.06,2.3-.75,2.16-2.39-.6-7.13-1.18-14.27-1.71-21.41-.11-1.51-.72-2.11-2.24-1.79-2.29,.48-4.6,.91-6.9,1.36-3.55,.69-3.62,.74-3,4.31,.89,5.13,1.87,10.24,2.72,15.38,.75,4.6,.69,4.61,5.46,4.54Zm-81.24,32.74c-.06,1.99,.32,4.69,.84,7.38,.25,1.28,.81,1.83,2.13,1.5,5.05-1.24,10.09-2.49,15.15-3.69,1.3-.31,1.68-1.01,1.38-2.26-.87-3.67-1.81-7.31-3.03-10.89-.56-1.66-1.5-1.79-2.98-1.39-2.88,.79-5.81,1.4-8.7,2.17-6.01,1.59-4.84,1.1-4.79,7.18Zm26.62,78.25c-.5-5.2-1.02-10.62-1.53-16.04-.13-1.4-.75-2.19-2.26-1.9-3.18,.61-6.36,1.22-9.54,1.87-1.31,.27-1.53,1.15-1.23,2.35,1.31,5.42,2.4,10.89,3.1,16.42,.2,1.59,.9,2.28,2.58,1.95,1.91-.37,3.85-.55,5.77-.84,3.18-.49,3.18-.5,3.11-3.82Zm43.99-161.2c-1.29-.05-2.86-.38-2.49,1.79,1.05,6.15,2.15,12.29,3.23,18.44,.22,1.27,.84,1.72,2.19,1.41,3.04-.71,6.1-1.33,9.17-1.91,1.5-.28,2-1.09,1.6-2.48-.65-2.25-1.05-4.56-1.62-6.82-1.35-5.4-8.67-10.56-12.08-10.43Zm-94.91,87.53c.91,2.99,1.83,5.97,2.72,8.96,.46,1.55,1.35,2,2.92,1.52,4.11-1.25,8.22-2.5,12.38-3.57,1.93-.5,2.18-1.47,1.58-3.12-1.15-3.18-2.28-6.37-3.37-9.57-.43-1.25-1.12-1.57-2.36-1.08-4,1.56-8.02,3.07-12.03,4.6-1.03,.39-1.94,.87-1.83,2.27Zm206.83-8.71c.29-1.13-.48-1.98-1.91-2.46-2.34-.79-4.68-1.56-7-2.42-1.76-.65-2.58-.07-3.05,1.72-1.13,4.27-2.44,8.49-3.64,12.74-.67,2.38-.62,2.49,1.86,3.28,2.72,.86,5.51,1.55,8.21,2.47,1.63,.56,2.33,.04,2.81-1.5,1.36-4.37,1.98-8.87,2.72-13.83Zm-173.93,41.12c-1.63-.26-2.54,.11-2.15,2.03,1.06,5.2,2.08,10.41,3.07,15.62,.27,1.43,.93,1.96,2.42,1.61,3.15-.74,6.31-1.44,9.5-1.99,1.61-.28,1.91-.99,1.46-2.39-1.35-4.24-3.27-8.18-6.3-11.48-2.12-2.31-5.01-3.07-8.01-3.4Zm1.17,45.75c-.37-2.17-.75-4.34-1.1-6.52-.29-1.85-.98-3.39-2.5-4.66-1.28-1.06-2.42-2.39-3.31-3.8-1.21-1.93-2.64-2.27-4.59-1.35-.7,.33-1.45,.6-2.2,.77-1.74,.38-1.87,1.45-1.45,2.92,1.43,4.98,2.83,9.98,4.24,14.96,.33,1.15,.89,1.74,2.26,1.36,2.37-.67,4.78-1.21,7.18-1.75,1.09-.24,1.55-.83,1.47-1.93Zm-9.02-44.55c-2.58,1.1-4.51,2.04-5.54,3.9-3.44,6.23-4.72,12.79-2.62,20.21,3.72-1.39,7.14-2.95,10.84-3.61,1.13-.2,1.19-1.14,.98-2.16-1.21-5.96-2.39-11.93-3.67-18.35Zm57.58-95.13c2.42-.77,4.5-1.48,6.61-2.07,1.22-.34,1.74-.96,1.5-2.24-1.16-6.27-1.94-12.58-2.41-18.94-.14-1.85-1.18-1.64-2.42-.94-4.3,2.46-6.13,6.38-5.88,11.08,.22,4.26,1.22,8.45,2.59,13.1Zm106.1,47.37c.32-1.29-.18-2.26-1.81-2.57-1.79-.34-3.58-.68-5.33-1.15-1.4-.38-2.17-.07-2.59,1.41-1.26,4.51-2.14,9.09-2.98,13.69-.22,1.22,.21,1.98,1.48,2.27,1.9,.44,3.8,.89,5.65,1.47,1.83,.58,2.68-.19,3.05-1.87,.94-4.31,2.01-8.6,2.53-13.25Zm-67.6,140.9c.39,6.46,1.74,12.52,2.8,18.62,.13,.74,.68,1.06,1.45,.9,2.42-.51,4.84-1,7.24-1.56,.91-.21,1.19-.89,.99-1.79-.7-3.17-1.07-6.46-2.44-9.42-1.87-4.06-5.12-6.33-10.04-6.74Zm-9.05,24.4c2.42-1.01,4.29-1.93,6.25-2.57,1.99-.64,2.62-1.72,2.18-3.77-.88-4.06-1.46-8.19-2.41-12.23-.36-1.53-.23-3.37-1.93-4.82-6.64,6.88-5.98,14.79-4.09,23.39Zm-25.45-189.92c2.08-1.21,2.67-2.91,3.83-4.08,4.99-5.04,3.91-4.14,2.6-11.1-.35-1.84,.1-4.61-1.77-5.28-2.11-.76-4.5,.7-6.73,1.34-1.08,.31-1.26,1.04-1.05,2.13,1.05,5.48,2.03,10.97,3.13,17Zm-35.37,129.65h-.06c0-1.69,0-3.38,0-5.08,0-1-.25-1.88-1.47-1.83-2.47,.1-4.93,.25-7.39,.44-1.15,.09-1.45,.89-1.37,1.94,.25,3.37,.48,6.75,.72,10.12,.06,.82,.23,1.63,1.26,1.62,2.74-.03,5.7-.06,7.98-1.33,1.79-1,.11-3.61,.33-5.5,.02-.13,0-.26,0-.39Zm69.99,60.7c-2.07,.46-4.34,.63-5.34,2.28-2.32,3.8-3.68,7.94-2.15,12.51,.34,1.01,.76,1.67,1.91,1.26,2.2-.77,4.39-1.58,6.58-2.38,.82-.3,1.26-.87,1.13-1.78-.57-3.94-.81-7.95-2.13-11.89Zm5.73,11.81c1.1-.25,1.87-.4,2.62-.6q5.84-1.62,5.33-7.66-.63-7.44-7.9-5.4c-.25,.07-.51,.11-.76,.2-.95,.33-1.53,.84-1.32,2.02,.67,3.69,.9,7.47,2.02,11.45Zm-96.53-63.98c6.2-.18,6.29-.27,5.74-6.26-.05-.52-.08-1.04-.14-1.55-1-7.64,.19-6.27-7.06-5.26-.77,.11-1.52,.35-2.28,.52-1.14,.25-1.42,.9-1.08,2,.92,2.98,1.8,5.97,2.65,8.98,.33,1.16,.89,1.87,2.17,1.58Zm77.66-119.17q5.21-.51,4.71-5.06c-.86-7.72-1.04-7.83-8.76-6.83-1.62,.21-2.37,.71-2.04,2.44,.32,1.66,.47,3.35,.72,5.02,.77,5.16,.48,5.15,5.38,4.42Zm34.76,163.14c1.93,.16,3.31-.77,4.84-1,2.16-.33,3.04-1.42,2.92-3.71-.19-3.51-.01-7.03-.07-10.55-.02-1.5,.26-3.06-.36-4.57-5.08,2.63-8.37,11.61-7.33,19.83Zm36.18-20.39c-5.12,1.99-8.62,6.35-9.11,10.81-.75,6.79-.75,6.75,5.97,5.76,1.27-.19,1.79-.65,1.88-1.91,.37-4.76,.81-9.52,1.26-14.66Zm-11.28,33.37c2.26-.14,4.3-.31,6.34-.38,1.3-.05,1.82-.72,1.94-1.93,.33-3.22,.69-6.44,1.02-9.66,.05-.49,.1-1.02-.33-1.43-.92-.85-7.5-.07-8.11,.99-.12,.22-.22,.49-.21,.73,.09,3.85-.99,7.65-.65,11.68Zm-17.49-4.13c.07,0,.15,0,.22,0,0-1.69,.01-3.38,0-5.07,0-.87-.3-1.54-1.34-1.46-2.08,.16-4.29,.31-5.97,1.48-1.36,.95-.56,2.92-.77,4.42-.16,1.15-.07,2.34-.01,3.5,.27,5.68,.25,5.6,5.81,4.09,1.58-.43,2.16-1.13,2.09-2.67-.07-1.43-.02-2.86-.02-4.29Zm-57.28-170.21c6.43-1.25,6.54,.58,5.02-6.69-.03-.13-.04-.26-.06-.38-1.16-6.44-1.29-6.5-7.59-4.93-1.44,.36-1.93,1.01-1.56,2.46,.67,2.64,1.3,5.28,1.86,7.95,.31,1.46,1.08,1.97,2.34,1.6Zm61.6,140.41c-.59,2.07-.37,3.62-.35,5.15,.04,2.86,.2,5.72,.2,8.58,0,5.04,.35,5.32,5.27,4.21,1.05-.24,1.65-.59,1.68-1.71,.14-6.21-1.08-11.87-6.8-16.23Zm12.46,43.23c-.46,7.1-.05,6.23,5.62,6.3,.25,0,.51-.04,.76-.09,.54-.12,.97-.45,1.02-1,.3-3.21,.58-6.42,.83-9.63,.07-.9-.43-1.36-1.35-1.53-4.92-.93-6.71,.5-6.89,5.57,0,.26,0,.52,0,.4Zm20.29-17.95s-.08-.01-.12-.02c.05-.78,.07-1.56,.16-2.34,.2-1.81-.59-2.7-2.4-2.7-.39,0-.78-.06-1.17-.07-2.97-.11-3.12-.05-3.48,2.8-.26,2.06-.28,4.15-.47,6.22-.43,4.65-.44,4.6,4.19,5.12,1.42,.16,2.22-.07,2.38-1.66,.24-2.46,.61-4.9,.93-7.35Zm-150.97,13.43c1.28-.25,2.28-.43,3.27-.65,.85-.2,1.44-.75,1.26-1.65-1.05-5.41-.23-11.48-5.44-15.49-1.47,.94-2.01,2.32-1.71,3.98,.83,4.56,1.73,9.11,2.63,13.82Zm88.31,13.52c-.02-.26-.04-.52-.07-.77-.69-6.88-.4-6.15-6.51-3.91-3.33,1.22-3.31,1.28-2.63,5.08q.82,4.58,5.16,3.51c.5-.12,1-.24,1.5-.37q2.8-.74,2.55-3.53Zm10.66-8.94c-2,0-3.71,.74-5.48,.93-2.27,.23-2.86,1.38-2.41,3.42,.11,.5,.12,1.03,.16,1.55,.5,5.48,.77,5.67,6.18,4.23,.25-.07,.5-.17,.75-.2,1.33-.16,1.7-.98,1.58-2.19-.27-2.56-.52-5.13-.78-7.73Zm-75.17-25.26c-3.75,5.41-1.75,10.9-1.07,16.4,5.54-1.85,5.29-.41,4.85-6.4-.08-1.17-.31-2.36-.17-3.5,.35-2.99-1.04-4.92-3.62-6.49Zm90.13,21.84c-7.04,.08-7.32,.36-6.96,6.67,.02,.39,.05,.78,.08,1.17,.3,3.7,.66,3.97,4.24,3.57,1.8-.2,2.83-.78,2.69-2.91-.19-2.71-.05-5.44-.05-8.51Zm31.45,9.63c1.76,.77,2.42-.48,2.64-2.33,.23-1.94,.47-3.88,.73-5.82,.45-3.45,.18-3.76-3.32-3.88-2.66-.09-2.86,.05-3.16,2.71-.21,1.94-.28,3.9-.47,5.84-.34,3.39-.36,3.39,3.57,3.47Zm-27.54-5.13h0c0,1.3,.02,2.6,0,3.9-.03,1.2,.29,2.17,1.71,1.92,1.38-.24,3.46,.77,3.92-1.44,.67-3.18,.87-6.44,.84-9.7,0-.89-.39-1.31-1.44-1.31-4.5-.02-5.03,.47-5.04,5.07,0,.52,0,1.04,0,1.56Zm-113.54-3.62c-2.46-.09-3.73,1.31-3.35,3.74,.4,2.55,.81,5.09,1.23,7.64,.19,1.14,.22,2.39,2,2.14,2.29-.33,3.58-1.28,3.29-2.87-.57-3.17-1.3-6.31-1.98-9.46-.14-.62-.32-1.27-1.2-1.19Zm147.13-29.73h-.18c0-1.56,.13-3.13-.04-4.67-.13-1.12-.47-2.38-1.7-2.86-.75-.29-3.1,1.7-3.43,2.78-.08,.25-.04,.53-.13,.77-1.44,3.91,1.02,6.69,2.86,9.6,.66,1.04,2.1,.67,2.28-.56,.25-1.66,.25-3.36,.36-5.05Zm-93.39-178.94c-1.47,1.6-2.45,2.61-3.36,3.68-1.17,1.38-2.26,2.83-3.4,4.23-.54,.66-.69,1.4-.36,2.17,.41,.93,1.25,.68,2.01,.6,6.73-.66,7.29-1.42,5.84-8.05-.14-.62-.34-1.22-.74-2.63Zm66.91,194.5h.09c0-.64-.05-1.3,.01-1.93,.18-1.82-.43-2.72-2.4-2.26-.5,.12-1.03,.07-1.54,.15-1.05,.18-2.57-.46-2.88,1.18-.25,1.34-.73,2.82,.39,4.05,.69,.76,1.37,1.57,2.19,2.17,1.02,.75,2.21,1.69,3.51,1.01,1.06-.55,.46-1.86,.6-2.83,.08-.5,.01-1.03,.01-1.54Zm-117.92,38.44c2.71,0,3.11-.44,2.7-2.76-.27-1.52-.61-3.03-.98-4.52-.15-.59-.34-1.19-1.17-1.32-2.95-.46-4.47,1.07-3.96,4.06,.11,.63,.3,1.25,.39,1.89,.29,2.03,1.46,2.88,3.02,2.66Zm22.63-6.97c-.08-.87-.12-1.51-.21-2.15-.32-2.3-1-2.95-2.79-2.7-2.22,.31-2.61,.9-2.24,3.4,.13,.88,.24,1.77,.34,2.66,.27,2.42,.96,2.79,3.15,1.95,1.69-.64,1.92-1.88,1.74-3.16Zm88.19-28.76c0,2.06,.01,3.22,0,4.37-.02,1.15,.52,1.69,1.67,1.55,1.41-.18,2.83-.36,4.23-.63,.47-.09,.96-.41,.95-1.07,0-.61-.38-.92-.87-1.16-1.74-.85-3.75-1.03-5.98-3.05Zm-97.89-12.03c-1.18-1.09-2.24-2.12-3.36-3.09-.56-.48-1.16-.48-1.62,.21-.94,1.42-.2,3.34,1.44,3.5,1.09,.1,2.27,.31,3.55-.62Zm-29.26-78.73c.94,1.95,2.09,3.67,4.09,5.05,.55-1.58,.02-2.75-.3-3.93-.69-2.54-.7-2.54-3.78-1.12Zm23.01,86.04c-.14-1.12-1.83-2.59-2.75-2.31-1.24,.38-2,1.43-1.74,2.61,.25,1.15,1.53,1.25,2.56,1.07,.81-.14,1.88-.15,1.93-1.38Zm-7.47-.48c1-1.05,2.43-2.04,1.62-3.26-.78-1.18-2.33-.37-3.52,.08-.21,.08-.37,.31-.57,.49,.16,1.32,1.28,1.78,2.47,2.69Zm13.06-3.22c-.11-.77-.8-1.02-2.64-.84-.83,.08-2.05-.16-2.01,1.2,.03,1.13,.78,1.95,1.97,2.01,1.08,.05,2.79-1.57,2.68-2.37Zm-12.03,11.88c1.24-1.6,2.34-2.63,2.57-4.32-1.13-.52-2.4-1.37-3.2-.15-.81,1.23,.14,2.62,.62,4.47Zm-2.97-15.03c1.36,.22,2.76,.85,3.39-.79,.35-.9-.42-1.99-1.27-1.99-1.58,0-1.79,1.43-2.12,2.77Zm7-5.89c-.63,.4-1.97,.17-2.2,1.51-.13,.75,.49,1.21,1.17,1.26,1.23,.1,1.95-.62,2.16-1.79,.1-.56-.21-.98-1.13-.99Zm65.07,23.06c.85-1.04,1.35-1.81,.67-2.78-.06-.09-.51-.02-.68,.11-.9,.67-.64,1.47,.01,2.67Zm68.59-21.02c.4,1.3-.72,2.36,.69,3.07,.29,.15,.95,.13,1.09-.06,.76-1.1-.15-1.81-.74-2.58-.06-.08-.22-.1-1.04-.43Zm3.08-11.45c.07-.69-.14-1.03-.49-1.15-.66-.24-.88,.26-.89,.75,0,.31,.21,.87,.39,.9,.51,.08,.94-.2,.99-.5Z"/><path class="cls-5" d="M2001.47,985.89c-.27-1.38-1.15-2.35-2-3.27-1.53-1.64-2.11-3.47-1.77-5.72,.28-1.92,.28-3.89,.36-5.85,.06-1.39-.12-2.46-1.94-2.74-2.13-.33-1.9-1.98-1.03-3.27,2.41-3.58,4.18-7.47,5.8-11.69,1.52,.8,1.85,2.09,2.32,3.19,.87,2.04,1.82,4.03,2.95,5.94,1.73,2.92,1.61,3.69-.67,6.68-.22,.29-.51,.71-.46,1.01,.51,2.92-.77,6.18,2.37,8.6,2.01,1.55,3.42,3.9,5,5.97,.87,1.14,1.85,1.66,3.29,1.64,5.6-.07,11.2-.11,16.81-.06,1.79,.01,2.49-.7,2.76-2.46,1.46-9.82,1.55-19.72,2.02-29.61,0-.13-.02-.26-.03-.39q-.33-5.07-5.45-4.96c-1.9,.04-3.8,0-6.16,0,2.47-3.37,4.67-6.37,6.85-9.37,7.42-10.22,15.04-20.29,21.45-31.2,.72-1.23,1.27-2.57,1.77-3.9,1.28-3.41,1.26-3.48,5.02-3.52,5.73-.05,11.45-.16,17.16-.85,4.33-.53,4.98,.15,6.13,4.55,2.57,9.83,5.35,19.59,9.2,29.01,1.39,3.41,3.24,6.52,5.73,9.25,.26,.29,.53,.58,.77,.88,2.81,3.62,2.44,4.65-1.93,5.47-2.15,.4-4.84-.01-6.3,1.55-1.57,1.68-.05,4.24-.12,6.42-.24,7.16,.01,14.32,.06,21.49,.03,4.94,1.23,9.49,3.37,13.89,8.61,17.72,19.72,33.68,33.55,47.73,1.74,1.77,3.44,3.59,4.6,5.8,.96,1.81,.54,2.63-1.49,2.99-2.96,.53-5.97,.4-8.97,.4-3.43,0-3.45,0-4.16,3.19-4.85,21.99-9.93,43.92-13.58,66.17-3.1,18.89-6.38,37.74-8.67,56.75-1.32,10.98-3.31,21.89-4.82,32.85-1.07,7.73-1.76,15.52-2.78,23.26-.98,7.49-2.24,14.94-3.21,22.42-.27,2.12-1.23,2.95-3.21,3.04-2.08,.1-4.15,.38-6.23,.39-8.47,.05-16.94,.02-25.41,.04-23.45,.05-46.89,.09-70.34,.17-16.42,.06-32.83,.17-49.25,.25-1.04,0-2.08-.02-3.13-.02-1.29,0-1.73-.64-1.87-1.92-1.83-16.58-5.24-32.9-7.79-49.36-2.7-17.36-6.32-34.57-8.64-51.99-1.05-7.87-2.59-15.67-3.75-23.53-.29-1.97-1.12-2.73-2.98-2.72-1.43,0-2.87,0-4.3-.13-1.68-.14-3.4-.21-5.01-.66-2.22-.61-2.6-1.92-1.3-3.78,.59-.85,1.28-1.65,2.02-2.38,8.74-8.73,15.27-19.07,21.6-29.57,2.84-4.7,5.17-9.61,6.99-14.8,1.56-4.45,2.43-4.89,7.19-4.95,9.9-.11,19.8,.37,29.69-.45,3.09-.26,3.3-.21,2.91-3.07-.8-5.79-1.87-11.55-2.78-17.33-.24-1.5-1.11-1.86-2.45-1.81-2.6,.09-5.21,.14-7.81,.16-1.04,0-2.11,.04-3.11-.17-1.29-.27-1.81-1.13-.87-2.26,1.42-1.7,2.96-3.3,4.44-4.94,5.66-6.29,11.39-12.49,16.33-19.42,5.11-7.16,9.29-14.76,12.62-22.85,1.63-3.97,3.9-7.69,4.81-11.93,.37-1.72,1.6-1.8,2.97-1.79,3.65,0,7.3,.02,10.94-.02,1.25-.02,2.55,.29,3.93-.45Zm58.67-10.75c1.22,.39,2.57,1.15,2.45-1.25-.09-1.67,.03-3.36,.09-5.04,.04-1.26-.48-2.08-1.78-1.9-1.37,.19-3.19-1.19-4.05,.99-.76,1.92-.14,4.24,1.46,5.58,.68,.57,1.62,.83,1.97,1.77-1.07,.29-1.83-1-2.94-.57-.55,1.09-.25,2.25-.23,3.39,.03,1.46,.68,2.25,2.17,1.68,1.02-.39,2.55-.04,2.99-1.29,.41-1.19-.96-1.64-1.61-2.38-.24-.27-.35-.64-.52-.97Zm-94.71,224.51c-1.57-.71-2.74-1.91-3.85-3.19-1.21-1.4-2.73-2.4-4.33-3.23-1.83-.95-5.37,.1-5.19,1.5,.5,3.91,.01,7.96,1.48,11.83,.68-.14,1.19-.22,1.68-.36,2.62-.71,5.25-1.4,7.85-2.17,3.02-.9,3.01-.94,2.31-4.43-.24-.86,.55-1.4,.69-2.16,1.08-5.81,.24-6.68-5.48-5.52-.58,.12-1.34-.05-1.69,.91,1.94,2.44,5.28,3.66,6.53,6.82Zm-28.05-45.45c-1.81-1.4-3.68-.54-5.56-.17-1.82,.35-2.21,1.42-1.95,3.11,.5,3.2,.94,6.41,1.27,9.63,.17,1.66,1.04,1.88,2.38,1.56,3.15-.75,6.29-1.54,9.45-2.23,1.27-.28,1.79-.94,1.59-2.17-.29-1.88-.31-3.66-2.81-4.48-2.33-.77-4.19-2.58-4.5-5.35,2.04,1.27,2.71,4.42,6.13,4.4-.21-1.42-.32-2.67-.61-3.88-.25-1.07-.31-2.57-1.86-2.49-1.43,.08-3.23-.06-3.55,2.08Zm66.44-89.19c-2.6,3.96-.55,8.07-.33,12.11,.06,.98,1.02,.97,1.85,.8,2.93-.62,5.86-1.23,8.78-1.84,.85-.18,1.54-.62,1.39-1.56-.67-4.09-.99-8.32-3.25-11.95-2.32-3.71-3.28-3.75-6.63-.72,.41-.79,.87-1.57,1.23-2.38,.21-.49,.14-1.04-.42-1.3-1.51-.71-3.21-1.71-4.75-.99-1.48,.69-.28,2.3-.2,3.49,.1,1.41,.25,2.84,.63,4.18,.29,1.02,1.05,.9,1.7,.16Zm40.68,131.14c0-9.18,.07-15.69-.03-22.2-.04-2.77-.21-2.88-2.93-2.86-3.9,.03-7.81,.2-11.71,.37-3.14,.14-3.31,.23-2.91,3.48,.57,4.63,.65,9.3,.85,13.92,.35,8.18,.94,16.35,1.15,24.53,.04,1.67,.79,2.28,2.41,2.23,3.38-.09,6.77-.01,10.16-.15,2.93-.11,3.04-.2,2.97-3.26-.15-6.25-.07-12.49,.05-16.07Zm-25.22-93.9c.02,.13-.08-.38-.15-.9-.64-5.16-1.06-10.35-1.95-15.46-1.25-7.16,.36-5.77-6.77-4.69-1.15,.17-2.29,.48-3.45,.64-1.95,.27-2.55,1.26-2.17,3.21,.83,4.2,1.47,8.44,2.22,12.66,.47,2.65-.26,6.26,1.73,7.7,1.99,1.44,5.21-.49,7.93-.53,.51,0,1.02-.17,1.53-.29,.91-.21,1.3-.78,1.07-2.34Zm-22.97,5.35c1.25-.18,3.3-.52,5.37-.74,1.33-.14,1.79-.79,1.65-2.07-.73-6.47-1.7-12.89-2.96-19.28-.31-1.56-1.14-1.89-2.5-1.37-2.43,.93-4.88,1.81-7.28,2.82-2.53,1.07-2.73,1.4-2.12,4.16,1.01,4.57,2.05,9.14,3.23,13.67,.93,3.59,.12,2.83,4.61,2.81Zm67.01-11.36c.06,0,.12,0,.18,0,0,1.82-.01,3.64,0,5.45,.01,.98,.28,1.79,1.47,1.9,2.2,.2,4.39,.44,6.58,.63,1.19,.1,1.94-.31,2.06-1.69,.51-5.95,1.04-11.9,1.65-17.85,.2-1.96-.35-2.92-2.48-2.93-1.94,0-3.92-.14-5.81-.54-2.04-.43-2.51,.47-2.63,2.2-.3,4.27-.68,8.54-1.03,12.81Zm29.52-28.48c-.12-1.03-.14-2.48-.47-3.86-.8-3.29-2.47-6-5.69-7.47-2.54-1.16-3.24-.89-3.58,1.95-.73,6.06-1.23,12.15-1.88,18.22-.16,1.53,.19,2.48,1.9,2.73,1.92,.29,3.84,.7,5.72,1.18,1.47,.37,2.22-.1,2.48-1.56,.62-3.58,1.43-7.14,1.52-11.2Zm-97.51-8.3c-6.71,2.47-8.85,7.87-9.59,14.15-.27,2.29-.07,4.68,.66,6.93,.45,1.38,1.21,2.17,2.91,1.63,2.71-.86,5.48-1.55,8.24-2.28,1.17-.31,1.83-.96,1.57-2.23-1.25-6.05-2.51-12.1-3.78-18.19Zm-64.67,71.55c-.98-.09-1.75-.17-2.53-.24-1.36-.13-2,.49-1.69,1.82,1.2,5.2,1.75,10.5,2.52,15.76,.2,1.33,.88,1.8,2.15,1.49,2.27-.56,4.52-1.21,6.81-1.66,1.81-.35,2.28-1.3,2.08-3.03-.42-3.61-.71-7.24-1.05-10.86-.13-1.43-.61-2.47-2.32-2.54-2.07-.08-4.06-.92-5.98-.72Zm149.25-75.45c-3.84,.54-6.72,1.72-8.65,4.33-3.11,4.22-4.95,9.04-5.92,14.19-.24,1.27,.24,1.94,1.54,2.14,2.56,.4,5.1,.86,7.65,1.31,1.34,.24,1.87-.43,2.07-1.65,1.07-6.61,2.15-13.22,3.32-20.34Zm-.07,33.56c-.34,3.62-.68,7.1-.98,10.59q-.44,4.94,4.73,4.8c.26,0,.52-.02,.78,0,1.56,.12,2.32-.52,2.6-2.15,.68-3.96,1.62-7.88,2.3-11.85,1.17-6.76,1.13-6.76-5.96-7.37-2.95-.25-3.96,1.21-2.73,3.93,.47,1.04,1.54,1.73,1.71,2.97-.94,.19-1.1-1.07-2.45-.91Zm-128.79,75.61c2.65-.61,5.31-1.21,7.95-1.85,.89-.22,1.3-.92,1.12-1.77-.8-3.81-1.64-7.6-2.5-11.4-.31-1.35-1.17-1.43-2.37-1.07-2.48,.75-5,1.34-7.49,2.04-1.38,.39-1.76,1.33-1.43,2.71,.75,3.15,1.45,6.32,2.15,9.48,.31,1.4,1.15,1.95,2.57,1.86Zm14.46,42.96c-3.62,.95-6.98,1.84-10.35,2.71-1.09,.28-1.43,1-1.25,2.04,.66,3.84,1.31,7.67,1.99,11.51,.21,1.19,.9,1.34,1.98,.97,1.96-.68,3.96-1.25,5.95-1.85,1.13-.34,1.71-1.01,1.7-2.25-.03-4.27-.01-8.54-.01-13.13Zm-19.57-75.17c-2.07-.1-2.37,.13-2.14,2.95,.24,2.84,.59,5.67,.95,8.5,.22,1.7,1.07,2.53,2.94,2.02,2.25-.61,4.52-1.16,6.81-1.57,1.72-.31,2.03-1.26,1.78-2.77-.35-2.18-.66-4.36-.89-6.55-.14-1.26-.75-1.81-1.98-1.9-2.2-.16-4.39-.39-7.48-.68Zm6.42,92.91c-.49-3.26-1.01-6.21-1.36-9.17-.72-6.12-.98-4.82-5.59-3.07-3.98,1.51-3.94,1.63-3,5.61,.39,1.64,.82,3.28,1.19,4.93,1.3,5.82,1.92,6.13,7.27,3.75,1.12-.5,1.71-1.11,1.49-2.05Zm-4.32-31c-2.22,.54-4.33,1.17-6.48,1.54-2.06,.35-2.91,1.32-2.6,3.43,.54,3.72,1.05,7.44,2.05,11.32,2.24-.6,4.34-1.19,6.45-1.72,1.52-.38,2.08-1.23,1.87-2.83-.5-3.85-.86-7.71-1.29-11.74Zm118.62-221.43s.02,0,.03,0c0,1.29-.01,2.58,0,3.87,.01,.87,.36,1.39,1.33,1.54,4.19,.66,5.57-.48,5.59-4.71,0-1.16-.02-2.32-.02-3.48,0-1.51-.65-2.31-2.23-2.59-4.21-.75-4.68-.41-4.7,3.82,0,.52,0,1.03,0,1.55Zm6.47-8.99c0-2.4-.64-4.63-1.36-6.83-.63-1.89-1.79-3.45-3.63-4.34-.83-.4-1.55-.2-1.54,.91,.02,2.2,.11,4.39,.12,6.58,.03,3.82,.01,3.83,3.78,4.06,.76,.05,1.54,.21,2.63-.38Zm-25.88,235.62c.05,0,.1,0,.15,0,0,1.42-.09,2.85,.02,4.26,.18,2.38,2.13,1.76,3.55,1.92,1.59,.18,2-.74,1.87-2.16-.2-2.32-.34-4.64-.52-6.96-.05-.64-.17-1.24-.88-1.56-2.51-1.13-4.45,.18-4.32,2.96,.02,.52,.08,1.03,.13,1.55Zm-1.02-23.38c0,.52,0,1.04,0,1.56,.05,2.99,.99,3.82,3.93,3.56,.92-.08,1.44-.49,1.46-1.42,.06-2.33,.11-4.67,.14-7,0-.66-.19-1.21-.94-1.5-2.75-1.06-4.53,.01-4.6,2.86-.02,.65,0,1.3,0,1.95Zm16.23-224.66c-3.9,2.91-4.92,6.37-5.36,10.12-.08,.69,.26,1.24,.9,1.56,2.55,1.26,4.73,.02,4.85-2.82,.11-2.66,.18-5.33-.38-8.85Zm-37.39,225.38h-.04c0-1.04,0-2.08,0-3.12,0-1.24-.04-2.35-1.78-2.35-1.65,0-2.73,.31-2.69,2.34,.04,2.07-.27,4.15-.36,6.23-.05,1.1,.55,1.55,1.66,1.68,2.65,.3,3.14-.07,3.21-2.82,.02-.65,0-1.3,0-1.95Zm21.51,10.59c.07,1.08,.14,2.37,.25,3.67,.06,.66,.28,1.19,1.04,1.43,2.44,.8,4.03-.28,4.01-2.82,0-1.3-.08-2.6-.21-3.89-.22-2.12-1.17-2.71-3.8-2.61-2.29,.08-1.27,1.74-1.4,2.84-.05,.38,.06,.77,.12,1.38Zm-26.34,1.06h.07c0,.64,.02,1.28,0,1.92-.06,1.66,.03,3,2.35,3.03,2.35,.03,2.36-1.4,2.39-3,.02-1.15,.04-2.31,.11-3.46,.1-1.62-.18-2.73-2.23-2.65-2.3,.09-2.6,.26-2.68,2.63-.02,.51,0,1.03,0,1.54Zm4.68,11.87h-.07c0-.91-.03-1.81,0-2.72,.06-1.58-.82-1.91-2.21-1.9-1.56,.02-2.46,.49-2.37,2.22,.07,1.29-.01,2.59,.03,3.88,.08,2.35,.76,2.95,2.98,2.87,2.08-.08,1.61-1.57,1.63-2.8,0-.52,0-1.03,0-1.55Zm.49,10.89s-.03,0-.04,0c-.06-.9-.17-1.8-.18-2.7-.02-1.25-.54-1.8-1.84-1.92-2.74-.26-3.06,0-2.8,2.95,.1,1.15,.24,2.31,.4,3.46,.28,1.96,1.08,2.48,3.12,2.31,1.8-.15,1.47-1.45,1.48-2.56,0-.51-.09-1.03-.14-1.54Zm22.5-3.38c-.63,2.06-.33,3.88-.27,5.68,.06,1.78,1.43,1.57,2.57,1.51,1.07-.06,2.42,.46,2.85-1.24,1.04-4.1-.03-5.69-4.17-6.05-.25-.02-.52,.05-.98,.1Z"/><g><path class="cls-5" d="M3581.03,1153.06c-5.63,1.12-10.97,2.17-16.31,3.24-5.14,1.03-8.04-2.14-6.38-7.09,4.27-12.71,8.7-25.37,12.85-38.12,3.23-9.9,6.15-19.88,8.58-30.03,1.54-6.44,4.16-12.61,5.93-19.01,2.82-10.16,5.08-20.47,6.98-30.84,.56-3.05,2.49-4.72,4.61-6.44,.77-.62,1.61-.62,2.57-.47,2.09,.33,4,1.12,5.9,1.98,14.15,6.43,29.1,10.47,44.49,14.73-1.36-18.66-4.28-36.8-6.61-55.02-2.41,.04-4.15,1.06-6.04,1.43-2.32,.45-3.07-.02-3.45-2.38-.43-2.67-.08-4.78,2.44-6.72,13.17-10.16,22.39-23.45,29.58-38.27,.34-.7,.7-1.4,.95-2.14,.55-1.63,1.48-2.36,3.35-2.6,6.47-.85,12.97-1.08,19.46-1.62,2.91-.24,3.06-.03,4.21,2.91,1.42,3.63,2.88,7.23,5.31,10.56,3.58-2.15,6.98-4.22,8.52-8.31,.38-1,.6-1.98,.61-3.03,.02-1.11-.04-2.03-1.58-2.09-2.02-.08-2.09-1.4-1.82-3.05,.37-2.25,1.47-4.17,2.46-6.13,1.3-2.55,2.74-5.03,4.11-7.55,.79-1.45,2.05-1.86,3.6-1.82,1.6,.03,1.73,1.38,2.19,2.39,1.31,2.84,2.62,5.67,3.8,8.56,1.23,3.01,.77,4.27-2.17,5.48-1.95,.8-2.84,2.14-3.03,4.12-.25,2.72-.66,5.44-.73,8.17-.11,4.34-2.19,7.32-5.76,9.57-4.31,2.7-4.17,2.71-1.78,7.28,2.08,3.98,4.85,7.37,7.89,10.62,2.87,3.07,2.8,3.24,.85,7.05-.24,.46-.41,.96-.65,1.42q-1.74,3.32-5.36,2.34c-3.06-.83-3.18-.85-3.82,2.32-3.81,18.91-7.24,37.87-8.01,57.2-.03,.75-.21,1.54,.6,2.49,2.03-1.02,4.2-1.88,6.14-3.1,5.85-3.67,12.14-6.59,17.82-10.55,1.19-.83,2.41-1.46,3.98-1.26,1.82,.24,3.16,.85,3.79,2.78,1.28,3.88,3.73,7.11,6.07,10.41,.76,1.07,1.57,1.48,2.9,1.46,6.15-.07,12.25-.62,18.13-2.39,2.58-.78,4.57,.16,6.73,1,1.22,.47,1.16,1.58,1.28,2.62,1.73,14.65,4.89,29.02,8.91,43.19,3.28,11.55,8.24,22.51,13.38,33.32,4.69,9.87,9.48,19.71,14.23,29.55,.34,.71,.88,1.45,.35,2.18-1.54,2.11-3.36,3.97-5.49,5.48-.73,.52-1.43-.29-2.13-.58-3.48-1.46-6.94-2.97-10.46-4.31-2.79-1.06-3.01-.69-4.51,1.82-4.38,7.35-5.16,15.76-7.07,23.79-3.26,13.7-4.57,27.73-6.37,41.68-1.47,11.41-1.06,22.89-2.36,34.28-.19,1.68-.39,3.37-.46,5.06-.08,1.73-.59,2.34-2.59,2.34-49.51-.11-99.03-.12-148.54-.14-1.82,0-3.66-.03-5.46,.2-2.15,.27-3.09-.64-3.5-2.65-.47-2.29-1.25-4.52-1.77-6.8-5.09-22.08-9.17-44.37-13.51-66.6-1.6-8.17-3.81-16.22-5.72-24.33-.71-3.03-1.35-6.09-2.12-9.56Zm88.09-142.86c1.14-2.53,1.54-5.11,.63-7.92-1.81,.07-3.32,.86-4.89,1.37-1.14,.37-1.7,1.11-1.4,2.36,.66,2.75,.38,5.66,1.72,8.87,1.08-1.25,1.99-2.31,2.89-3.37-.42,1.11-.84,2.22-1.39,3.67,1.75-.37,3.4-.25,3.67-1.98,.15-1.01,.8-2.69-1.24-3Zm78.99,175.85c.42-1.96,2.37-2.98,3.16-4.89-1.29-.62-2.41-.38-3.53-.17-1.07,.21-1.73,1.01-1.46,1.93,.35,1.23-1.67,3.17,1.04,3.69-3.44,4.81-1.32,10.25-2.23,15.38,4.95,.22,5.2,.16,5.45-2.38,.55-5.53,.97-11.07,1.45-16.71-1.99,.32-2.57,2.19-3.87,3.15Zm-153.72-80.29c-2.17,4.56-3.42,9.2-1.23,14.25,2.89-.22,5.26-2.02,7.97-2.81,1.12-.33,1.1-1.28,.98-2.23-.55-4.38-1.04-8.76-1.66-13.13-.28-1.95-1.54-2.39-2.9-.92-1.2,1.31-2.01,2.97-2.99,4.48,.55-1.16,.84-2.33,.32-3.57-4.42,.88-4.85,1.93-2.8,6.42,1.06-.57,1.86-1.36,2.31-2.49Zm43.05,77.68c-1.88-.47-2.93-2.07-4.27-3.25-1.65-1.45-3.26-.35-4.78,.08-1.55,.43-.99,1.92-.88,3.01,.69,6.47,1.49,12.92,2.13,19.39,.18,1.86,1,2.17,2.57,1.69,1.87-.56,3.73-1.14,5.63-1.59,1.59-.38,2-1.36,1.97-2.85-.06-2.99-.16-6,.03-8.98,.19-2.96-.27-5.58-2.55-7.66,.77-.3,1.41,.69,2.45,.09-.11-1.75,.4-3.65-.33-5.55-1.93-.19-3.51,.54-5.1,1.11,.29,2.29,2.87,2.53,3.12,4.49Zm80.08,20.92c-4.37,2.81-9,3.03-13.27,4.55-1.31,.47-1.93,.99-1.95,2.41-.07,4.55-.22,9.1-.39,13.65-.06,1.69,.36,2.73,2.35,2.69,3.12-.07,6.25-.04,9.37,.04,1.87,.05,2.55-.79,2.51-2.57-.07-3.65,.58-7.25,.93-10.87,.29-2.96,.81-5.92,.45-9.89Zm-93.54-22.84c-2.54,.1-4.61,1.25-6.82,1.84-1.71,.45-2.2,1.42-1.88,3.17,.85,4.72,1.54,9.48,2.3,14.22,.38,2.4,.34,4.88,1.38,7.13,1.74-.03,3.16-.76,4.68-1.04,1.79-.33,2.22-1.35,2.15-3.04-.31-7.38-1-14.71-1.81-22.26Zm-21-60.88c-1.38,.5-2.14,.69-2.82,1.04-2.18,1.1-5.41,1.07-6.48,3.08-1.14,2.15,.04,5.04,.45,7.6,.43,2.65-.24,6.21,1.78,7.65,2.04,1.46,5.2-.55,7.91-.65,.26-.01,.51-.08,.77-.12,1.02-.2,1.68-.73,1.48-1.86-1-5.46-2.02-10.92-3.1-16.73Zm36.25,85.49c-2.19,.61-4.38,1.38-6.64,1.8-2.01,.37-2.42,1.43-2.26,3.25,.37,4.12,.65,8.25,.88,12.39,.3,5.35,.26,5.35,5.46,4.93,2.98-.24,3.09-.25,2.9-3.15-.33-5.05-.11-10.09-.02-15.14,.02-1.27,.34-2.57-.32-4.07Zm63.2,2.18c3.48-.87,6.4-1.44,9.22-2.33,5.48-1.73,6.11-2.65,6.56-8.36,.01-.13,.03-.26,.04-.39,.19-2.84,.15-2.97-2.59-2.92-3.63,.07-7.25,.33-10.88,.45-1.23,.04-1.99,.42-1.92,1.79,.2,3.74-.1,7.46-.43,11.75Zm-111.68-110.02c2.36-.3,4.27-1.82,6.47-2.52,1.81-.57,1.97-1.71,1.65-3.32-.81-4.08-1.4-8.2-2.31-12.25-.44-1.96-.31-4.11-1.46-5.98-5.05,4.3-7.29,16.98-4.36,24.06Zm127.86,122.97c0,1.75,0,3.18,0,4.61,0,.78,0,1.64,1.05,1.76,.89,.1,1.95,.36,2.51-.54,.38-.61,.4-1.47,.49-2.23,1.13-9.43,.82-18.96,2.16-28.37,.21-1.45-.23-2.21-1.83-2.19-1.43,.02-2.52,.1-2.56,2.01-.08,3.5-.21,7-.63,10.51-.58,4.9-.83,9.84-1.2,14.45Zm-109.11-132.17c-.79-4.51-1.65-9.5-4.32-13.91-.96-1.58-2.11-2.93-4.2-3.06-1.44-.09-2.29,.26-1.97,1.92,1.15,5.97,2.27,11.94,3.43,17.9,.15,.79,.53,1.57,1.55,1.24,1.6-.51,3.18-1.09,4.73-1.73,.8-.33,1.14-1.02,.77-2.36Zm105.88-15.04s.07,0,.1,.01c0,.52,.02,1.04,0,1.56-.22,5.9-.22,5.85,5.62,5.96,1.59,.03,2.39-.3,2.41-2.08,.03-2.07,.09-4.19,.56-6.18,1.17-4.87-2.22-7.39-5.04-10.16-1.08-1.06-2.5-.37-2.7,1.22-.4,3.21-.64,6.44-.95,9.67Zm-20.98,145.59c5.16-1.46,5.49-1.82,5.57-6.71,.05-3.12,.17-6.22,.53-9.32,.27-2.31,.19-4.66,.23-7,.01-.64-.07-1.26-.82-1.58-2.69-1.16-5.26,.32-5.37,3.31-.16,4.02-.11,8.05-.14,12.07-.02,3.07,0,6.14,0,9.22Zm-24.4-224.82c-.28-4.17-.54-8.04-.81-11.9-.08-1.1-.47-1.68-1.73-1.23-3.57,1.29-6.25,5.11-6.08,8.97,.09,2.06,.35,4.12,.67,6.16,.72,4.51,.72,4.37,5.25,3.09,2.17-.62,3.05-1.65,2.7-3.83-.08-.5-.01-1.03-.01-1.25Zm-60.24,101.19c-1.76,.66-3.2,1.23-4.65,1.73-.97,.33-1.58,.88-1.4,1.97,.85,5.18,1.55,10.4,3.54,15.43,1.55-.53,2.88-1.04,4.24-1.42,1.35-.39,1.91-1.17,1.67-2.57-.83-4.95-1.52-9.94-3.39-15.15Zm16.52,114.4c-1.97-.03-3.2,.82-4.55,1.17-2.02,.53-2.54,1.76-2.22,3.75,.58,3.59,.92,7.21,1.44,10.8,.51,3.5,.73,3.58,4.24,3.18,1.47-.17,2.4-.39,2.24-2.28-.47-5.42-.76-10.85-1.15-16.62Zm56.82-212c-2.88,.14-5.38,1.16-7.94,1.93-1.11,.33-1.28,1.16-1.21,2.13,.25,3.34,.49,6.68,1.28,10.15,2.11-.5,4.1-1.01,6.1-1.45,1.2-.26,1.76-.97,1.81-2.15,.16-3.47,.39-6.94-.03-10.6Zm-75.47,119.98c.59,5.48,1.33,9.97,1.82,14.48,.69,6.33-.6,5.36,6.2,4.89,1.62-.11,2.37-.64,1.91-2.44-.55-2.14-.89-4.33-1.26-6.51-.18-1.06-.47-1.98-1.26-2.77-2.27-2.28-4.49-4.61-7.41-7.63Zm149.67,82.57c.91-.39,1.01-1.03,1.07-1.67,.49-5.18,1.48-10.29,2.82-15.3,.55-2.03-.29-2.5-1.9-2.85-3.56-.77-4.07-.46-4.56,3.08-.45,3.21-.84,6.43-1.31,9.64-.14,.93-.21,1.79,.41,2.59,1.18,1.51,2.34,3.04,3.46,4.52Zm-25.11-128.2s-.04,0-.06,0c.15-2.2,.38-4.4,.42-6.61,.05-2.4-.44-2.67-3.02-2.9-2.02-.18-2.01,1.13-2.15,2.44-.27,2.58-.55,5.17-.77,7.76-.16,1.94-.25,3.89-.31,5.84-.08,2.53,.31,2.94,2.77,3.11,2.21,.15,2.54-.13,2.73-2.63,.18-2.33,.26-4.67,.39-7.01Zm12.43,143.06c-.05,1-.16,2.95-.24,4.9-.06,1.36-.06,2.64,1.92,2.58,1.56-.05,2.85-.17,2.94-2.19,.22-4.8,.52-9.6,.77-14.4,.03-.62,.04-1.28-.71-1.62-2.17-.97-4.53,.35-4.65,2.76-.12,2.33-.03,4.68-.03,7.96Zm-71.1-230.16c0,3.72-.01,7.19,0,10.66,0,.75,.41,1.27,1.22,1.09,2.53-.56,4.99-1.38,7.36-2.44,.29-.13,.54-.55,.65-.89,.73-2.31-.52-5.08-2.78-6.01-2.13-.88-4.32-1.62-6.45-2.41Zm9.01,28.9c-2.2,.03-4.12,.84-6.1,1.41-1.08,.31-1.38,1.09-1.31,2.1,.17,2.34,.38,4.67,.53,7.01,.07,1.19,.59,1.59,1.76,1.36,1.02-.21,2.06-.28,3.09-.44,1.15-.18,1.94-.71,1.96-2.01,.04-3.1,.68-6.2,.08-9.42Zm74.87,190.08c-4.95-.55-4.92-.55-5.14,3.87-.16,3.38-.41,6.76-.62,10.13-.06,.91-.12,1.82-.17,2.73-.08,1.51,.82,1.68,2.02,1.52,1.3-.17,1.77-1.01,1.74-2.17-.12-5.39,1.53-10.54,2.16-16.08Zm-35.52-23.13c-2.17-1.98-4.33-2.87-6.61-3.35-2.29-.49-3.11,.1-3.37,2.44-.23,2.05-.2,4.13-.28,6.19-.02,.62-.26,1.38,.38,1.76,.71,.42,1.5,.31,2.15-.26,2.51-2.19,5.01-4.4,7.72-6.78Zm-7.18-93.85c-.07,3.14,1.26,4.02,6.25,4.16,1.78,.05,2.17-.83,2.28-5.26,.08-2.82-.55-3.18-5.5-3.25-2.86-.04-2.94,.08-3.03,4.36Zm-13.94,104.63c1.55-.07,3.12,0,4.64-.26,1.7-.29,2.18-1.7,1.19-3.11-1.37-1.95-3.31-3.24-5.31-4.46-.95-.58-1.72-.47-2.36,.39-.53,.72-1.06,1.47-1.44,2.28-2.35,4.91-2.14,5.22,3.27,5.16Zm22.02-9.56c-2.45,2-4.58,3.65-6.61,5.42-1.48,1.29-1.19,3.01,.7,3.44,2.63,.6,5.87,1.36,7.83-.36,1.41-1.25,.04-4.16-.7-6.24-.21-.6-.6-1.13-1.22-2.25Zm2.29-127.71c0-.24,.04-.76,0-1.27-.07-.84,.33-1.93-.71-2.37-1.06-.46-2.06,.07-2.82,.79-1.7,1.6-3.2,3.37-3.94,5.64-.61,1.89-.41,2.33,1.69,2.36,5.74,.09,5.58,1.46,5.8-5.14Zm-43.25-67.36c.21-.24,.41-.48,.62-.72-.4-1.21-.67-2.48-1.21-3.62-1.54-3.26-4.26-4.64-7.55-4.03-.68,.13-1.25,.31-1.49,1.02-.43,1.29,.47,3.71,1.8,4.28,2.57,1.11,5.22,2.06,7.83,3.08Zm-10.7,36.4c-.1-1.4-.14-2.04-.19-2.69-.24-3.42-.52-3.54-3.63-2.37-1.32,.49-1.93,1.15-1.68,2.56,.27,1.53,.47,3.07,.71,4.6,.18,1.13,.14,2.41,1.92,2.26,2.01-.17,2.78-.85,2.87-2.79,.04-.77,0-1.55,0-1.58Zm38.57,165.16c.71-3.86,.22-7.12,.28-10.53-3.11,.18-5.27,1.85-7.6,3.21,.72,1.65,2.27,2.24,3.38,3.26,1.22,1.12,1.81,2.83,3.94,4.06Zm-10.06,29.68c-1.75,.83-3.06,1.37-4.29,2.04-1.36,.75-2.16,4.19-1.37,5.95,.73,1.63,2.25,.81,3.44,.93,1.28,.12,1.84-.62,2.02-1.83,.33-2.19,.48-4.37,.19-7.09Zm28.23-162.57c-.07,0-.15,0-.22,0,0,.9,.02,1.8,0,2.7-.04,1.23,.48,1.84,1.75,2.04,2.73,.44,3.5-.19,3.22-3.02-.24-2.35-1.14-4.47-2.63-6.31-.32-.39-.82-.59-1.38-.46-.67,.15-.7,.73-.72,1.2-.05,1.28-.02,2.57-.02,3.85Zm3.44,31.1c.02-2.63,.01-2.64-1.91-3.03-2.91-.59-3.26-.32-3.49,2.81-.09,1.29-.15,2.59-.19,3.88-.04,1.19,.59,1.66,1.71,1.4,2.28-.54,3.86-2.63,3.88-5.05Zm-116.8,36.22c.26-.07,.52-.14,.78-.2-.28-1.76-.54-3.52-.84-5.27-.19-1.08-.84-1.61-1.91-1.17-.88,.36-2.07,.3-2.57,1.76,1.47,1.58,3.01,3.23,4.55,4.88Zm106.73-60.56q1.47,1.97,3.09,2.62,.1-2.66-3.09-2.62Zm32.06,135.44c-.28,1.25-.95,2.31,.47,2.85,.3,.11,.99-.04,1.05-.23,.41-1.16-.34-1.82-1.53-2.62Z"/><path class="cls-5" d="M3676.9,1052.64c-.23-1.71,.13-4.14,1.36-4.37,8.09-1.51,9.91-9.43,14.91-14.03-1.97,6.97-3.61,14.12-12.59,15.54-1.36,.21-1.73,2.77-3.68,2.86Z"/></g><rect class="cls-5" y="1255.85" width="4096" height="792.15"/></g></g></svg>