<?xml version="1.0" encoding="UTF-8"?><svg xmlns="http://www.w3.org/2000/svg" width="4096" height="2048" xmlns:xlink="http://www.w3.org/1999/xlink" viewBox="0 0 4096 2048"><defs><style>.cls-1{isolation:isolate;}.cls-2{fill:#d12f00;}.cls-3{fill:#feeebd;}.cls-4{fill:url(#radial-gradient);}.cls-5{clip-path:url(#clippath);}.cls-6{fill:url(#radial-gradient-2);}.cls-7{fill:none;}.cls-8{mix-blend-mode:multiply;}</style><clipPath id="clippath"><rect class="cls-7" width="4096" height="2048"/></clipPath><radialGradient id="radial-gradient" cx="1660.74" cy="874.54" fx="1660.74" fy="874.54" r="1668.25" gradientUnits="userSpaceOnUse"><stop offset=".37" stop-color="#f7931e"/><stop offset=".47" stop-color="#f08219"/><stop offset="1" stop-color="#d12f00"/></radialGradient><radialGradient id="radial-gradient-2" cx="1660.74" cy="874.54" fx="1660.74" fy="874.54" r="554.86" gradientUnits="userSpaceOnUse"><stop offset="0" stop-color="#fff"/><stop offset="1" stop-color="#fdffa5"/></radialGradient></defs><g class="cls-1"><g id="sky"><rect class="cls-2" x="2.1" y="2.61" width="4094.09" height="2045.39"/></g><g id="moon"><g class="cls-5"><circle class="cls-4" cx="1660.74" cy="874.54" r="1668.25"/></g><g><circle class="cls-6" cx="1660.74" cy="874.54" r="554.86"/><g class="cls-8"><g><path class="cls-3" d="M2050.31,1229.08c-26.17,30.04-56.69,55.28-89.76,77.03-96.75,63.64-203.99,90.62-319.12,88.51-7.17-.13-14.33-1.17-21.49-1.79,11.52-1.75,23.06-3.45,34.56-5.29,2.35-.38,4.6-1.32,6.9-2.01-2.07-.52-4.11-1.36-6.2-1.5-5.28-.35-10.6-.26-15.88-.63-1.17-.08-2.37-1.19-3.29-2.1-.2-.19,.91-2.3,1.14-2.26,12.4,2.65,23.61-7.1,36.66-2.53,13.58,4.75,27.19,12.59,42.66,6.25,6.63-2.72,12.87-3.97,20.64-1.28,16.53,5.73,40.35-5,38.88-16.84-.36-2.89-16.2-1.89-4.35-11.69-1.17-.54-2.52-.86-3.46-1.67-.74-.64-1.5-2.61-1.35-2.71,4.51-3.17,10.36,4.4,14.6-1.81,7.33,10.03,16.69,3.56,25.26,2.92,.8-.06,2.33-2.9,1.95-3.65-1.08-2.11-2.69-4.37-4.7-5.41-.85-.44-4.19,1.72-4.66,3.24-.95,3.05-.46,3.21-3.34,1.27-3.18-2.15-.02-10.64-8.5-7.82-5.94,1.97-12.48,3.58-18.6,3.15-4.98-.35-9.74-3.96-14.56-6.22-.05-.03,.27-1.62,.76-1.93,5.35-3.35,10.83-6.5,16.14-9.91,1.32-.85,2.16-2.45,3.22-3.7-1.58-.08-3.19-.4-4.73-.18-6.85,.98-18.33,5.59-16.91-5.62,2.44-19.26-11.89-25.49-22.54-31.73-16.36-9.59-35.98-13.77-50.63-26.68-5.72-5.05-9.74-5.16-15.83-1.66-8.45,4.86-13.15,1.27-14.89-7.85-.5-2.63-2.33-5.01-3.55-7.5-1.33,1.82-2.31,4.22-4.08,5.31-2.34,1.45-5.29,2-8.05,2.57-.33,.07-1.96-2.8-1.6-3.27,10.84-14.37-2.54-11.22-9.33-13.41-6.16-1.99-12.49-2.88-18.44-6.71-3.71-2.39-10.11-7.82-16.2-2.28-.45,.41-.33,2.29,.18,2.71,1.05,.87,2.53,1.22,3.84,1.78-.84,1.31-1.47,3.54-2.54,3.77-12.32,2.66-18.58-3.21-21.56-14.84-.81-3.16-4.79-5.51-7.41-8.14-.09-.09-1.53,.69-1.75,1.29-3.8,10.25-11.51,3.93-15.91,2.24-4.63-1.78-9.81-7.47-10.7-12.21-.99-5.27,5.86-5.98,10.59-7.09,3.52-.83,6.77-2.86,10.13-4.35-1.08-1.94-1.79-5.17-3.3-5.62-20.05-5.86,12.64-11.66-.05-17.27,1.93-.77,3.85-1.54,5.78-2.32-2.81-1.66-5.46-3.75-8.48-4.87-3.16-1.17-6.67-1.42-10.03-2.07,4.09,4.22,9.96,6.2,1.65,14.19-5.46,5.25-4.56-6.76-6.86-.62-4.82,12.82-19.28,5.82-22.52,4.5-15.9-6.47-33.04-7.51-48.69-13.63-4.64-1.81-7.68-7.45-11.81-10.91-9.31-7.8-15.39,2.55-23.01,4.36-2.11,.5-4.37,.41-6.56,.59,2.54,2.44,5.09,4.87,7.6,7.33,8.55,8.36,22.32,10.8,26.87,23.65,.56,1.59,.57,3.38,.84,5.08-1.21-.74-2.41-1.51-3.63-2.23-3.15-1.85-6.31-3.67-9.47-5.51,0,3.7,.18,7.4-.04,11.09-.1,1.67-.78,4.56-1.53,4.67-1.83,.27-4.2-.29-5.67-1.42-.96-.74-.72-3.05-1.01-4.65-.75,1.3-2.46,3.12-2.08,3.82,1.39,2.57,3.88,7,5.22,6.75,11.71-2.15,8.89,7.66,11.03,13.08,.31,.79-2.92,4.23-3.59,3.97-5.83-2.16-12.88-1.72-15.53-10.19-1.29-4.12-5.6-8.43-12.65-7.27-7.29,1.2-14.97,.4-22.44-.1-1.63-.11-3.65-4.2-4.55-3.87-3.88,1.42-3.88,5-3.55,8.71,1.12,12.6,1.03,12.61-13.87,7.16-.41-.15-.99-.11-1.23-.39-6.13-7.21-18.18-15.79-16.93-21.37,1.84-8.2-4.35-9.35-4.74-12.75-1.38-11.91-9.59-.3-11.39-4.17-4.13-8.9,7.57-11.03,8.9-18.01,.13-.69,5.73-1.08,8.48-.39,8.39,2.1,3.61,6.7,1.61,10.67,11.09,4.49,10.98,15.77,14.86,24.62,.68,1.55,.62,4.77,1.16,4.83,3.53,.38,7.12,.09,10.7,.03-1.44-3.39-3.98-6.75-4.1-10.18-.34-10.16-20.21-12.69-9.78-27.83,2.73-3.97-2.54-13.53-4.53-20.4-.09-.33-4.6,1.44-6.14,.59-9.92-5.49-7.12,7.82-14.59,9.41-15.09,3.21-28.94,12-43.56,17.85-4.55,1.82-9.92,1.64-14.93,2.15-.37,.04-1.52-2.42-1.32-2.6,9.64-8.56-2.38-9.83-4.88-13.97-10.75-17.77-26.92-32.99-31.14-53.74-3.21-15.79-7.18-31.8-16.91-43.2-6.74-7.9-9.12-15.3-11.24-24.12-.63-2.6-3.48-6.6-2.75-7.3,14.81-14.32-.58-20.73-7.13-29.77-2.46-3.4-7.53-1.9-8.91-9.23-2.26-11.94,1.93-25.2-7.61-36.35-7.81-9.14-19.53-16.11-15.71-33.31,1.85-8.34-1.94-20.62-3.73-30.84-1.32-7.58-4.72-15.09-4.84-22.81-.27-18.37,.61-36.77,.42-55.14-.1-9.91-3.63-20.22-1.82-29.61,4.5-23.35,2.59-46.87,4.34-70.26,.08-1.01-.52-2.07-.81-3.1-.94,.63-2.47,1.08-2.72,1.91-3.59,12.32-20.25,15.42-20.92,29.74,8.76-36.46,21.28-71.51,38.05-105.14,40.95-82.11,98.17-150.39,173.17-203.28,19.97-14.08,40.25-28.16,63.28-37.27-3.39,17.99,11.46,6.87,16.74,10.74,8.61,6.33,14.34,2.2,20.77-3.1,2.42-1.99,5.85-2.77,8.82-4.1-1.5,2.52-2.95,5.08-4.52,7.57-2.04,3.24,.82,2.92,2.5,3.81,9.01,4.78,16.49-2.8,24.94-2.97,13.76-.28,25.71-6.64,37.24-13.18,13.61-7.72,25.89-18.24,40.15-24.17,8.47-3.52,24.88-8.41,28.22,1.77,3.86,11.77-13.32,9.93-20.97,14.46-3.7,2.19-5.87,3.64-1.25,6.04,17.42,9.05,38.08,4.92,55.94,14.54,11.83,6.37,28.04,5.04,32.85,22.07,.44,1.56,4.17,2.12,6.27,3.31,12.29,6.93,26.27-14.44,38.01,2.26,.92,1.3,2.4,2.21,3.62,3.3-2.26,.46-4.55,1.37-6.76,1.22-1.83-.12-3.59-1.48-5.37-2.29-.08,3.97,6.63,5.91,3.26,10.86,1.63,0,3.25-.05,4.88-.02,2.25,.05,4.49,.15,6.74,.23-.27,2.3,.26,5.21-.96,6.8-5.18,6.76-21.39,11.45-3.34,21.81,.24,.14-.07,2.18-.67,2.67-6.48,5.29-12.67,13.92-19.74,14.75-8.85,1.04-2.47,12.82-11.84,11.75-3.74-.43-12.6,.29-11.75,6.95,1.03,8.08,6.6,3.43,10.69,1.31,.46-.24,1.83,1.92,2.99,2.28,6.19,1.9,12.65,14.32,15.13,9.16,5.96-12.38,12.82-8.06,20.99-6.12,7.6,1.81,13.48-.79,16.75-8.17,.35-.79,.2-2.01-.15-2.86-2.66-6.48-7.85-13.06-7.47-19.32,.37-6.17,7.53-10.39,14.61-11.77,1.92-.37,4.63-.63,5.48-1.92,11.96-18.27,28.03-1.3,42.15-4.24,9.77-2.03,21.53,7.86,32.85,9.72,4.33,.71,8.37,2.02,12.54,3.04-1.15,4.01-2.21,8.06-3.5,12.03-.43,1.32-1.7,1.5,.37,3.44,6.53,6.13,18.98,7.59,17.41,20.68-.09,.72,2.01,2.2,3.27,2.47,2.56,.54,6.17-5.11,7.69,.5,1.47,5.43-3.5-.22-5.42,2.42-6.5,8.89-20.12,18.09-25.12,19.46-25.91,7.12,7.57,16.78-2.47,22.12,13.28,7.08,19.42-8.67,30.48-10.04,3.05-.38-3.71-3.85-4.95-6.55-.25-.54,.85-2.45,1.26-2.43,6.54,.33,13.17,.37,19.59,1.49,10.9,1.9,15.87,9.01,13.29,19.66-.67,2.76-6.76,6.75-9.07,6.03-4.54-1.41-6.46,3.09-6.36,3.29,3.02,5.99,6.43,11.78,9.78,17.6,.02-2.05,0-4.11,.06-6.16,.08-3.1,1.41-4.67,4.69-3.65,15.41,4.77,.44,10.81,.51,16.21,.01,.94-2.07,2-3.31,2.84-11.89,8.07-12.32-.76-15.03-9.12-2.01-6.19-8.31-16.49-10.96-15.98-9.49,1.83-2.29,15.21-10.28,19.93,1.5,2.23,2.79,4.65,4.54,6.67,6.04,6.98,6.72,8.93,4.47,8.92-16.09-.08-32.87,2.9-46.43-9.68-1.02-.95-3.5-1.17-4.89-.65-1.85,.69-3.3,2.46-4.93,3.76,1.31,1.16,2.43,2.81,3.96,3.39,15.81,5.96,31.78,11.5,47.47,17.75,4.36,1.74,7.96,5.4,11.91,8.18-3.03,.13-6.08,.48-9.09,.33-3.3-.17-6.57-.82-9.86-1.26,4,1.92,7.83,4.54,12.05,5.59,4.86,1.21,6.37,4.69,7.68,8.47,.53,1.54,.5,4.26-.47,5.18-8.91,8.39,3.77,19.01-3.03,27.46,6.69,4.82,3.85,11.29,2.8,17.29-.78,4.47,.87,6.86,5.03,8.06,1.57,.45,3.02,1.32,4.52,2-1.13,1.11-2.14,2.4-3.42,3.29-3.46,2.4-5.33,5.67-4.03,9.65,1.26,3.85,4.45,1.82,7.03,1.34,2.97-.56,4.26,1.53,2.84,3.46-3.12,4.23-6.41,8.84-10.73,11.51-3.92,2.43-9.51,1.96-14,3.71-11.28,4.41,6.81,4.17,1.4,7.94-.65,.45-1.23,2.01-1.43,1.93-6.24-2.29-12.59-4.41-18.53-7.33-1.6-.79-2.17-4-2.87-6.2-.73-2.29-.95-4.74-1.73-7.01-.09-.26-3.22-.09-3.39,.41-.82,2.41-1.23,4.98-1.54,7.52-.23,1.9-.09,3.84-.11,5.77-1.75-.25-3.56-.3-5.25-.78-13.85-3.93-25.64-5.18-31.18,13.05-3.61,11.89-14.71,18.27-26.41,20.43-4.37,.8-17.32,5.65-12.57-10.11,3.42-11.35-5.78-15.01-14.82-14.97-14.17,.05-21.98,18.48-38.17,14.11-1.89-.51-4.81,.52-5.79-.53-1.68-1.8-2.45-4.61-3.1-7.12-.41-1.6,.09-3.44,.18-5.17-2.04,.11-4.37-.37-6.07,.45-4.38,2.09-7.37,1.75-12.06-.87-4.15-2.32-13.27-8.02-15.5,2.7-1.35,6.5,1.39,13.75,1.26,20.64-.14,7.14,7.34,15.09,.83,20.9-7.3,6.51-8.8-5.28-13.77-6.61-2.86-.77-6.59,.78-9.64,2-1.52,.61-2.39,2.84-3.56,4.34,13.4,6.35,8.19,24.06,20.93,32.43,9.21,6.05,27.89,14.38,9.59,31.82-4.64,4.42-6.45,12.07-8.77,18.53-1.18,3.28,7.3,13.76-5.55,7.01-7.69-4.04-23.63,7.31-23.15-12.21,.04-1.69-1.6-4.95-1.76-4.91-14.35,3.9-30.62,5.07-42.41,12.94-15.47,10.32,7.86,11.3,7.91,19.11,0,.09,3.48,.3,3.49,.23,1.06-8.97,9.07-12.1,14.58-17.2,1.63-1.51,5.19-3.14,6.49-2.37,4.06,2.39,7.53,5.83,11.01,9.1,.28,.26-.78,2.91-1.75,3.4-6.37,3.19-15.83,.31-19.06,9.86-.16,.48-2.27,.29-3.47,.41,.24-1.74,.57-3.46,.69-5.21,.12-1.67,.02-3.36,.02-5.04-1.19,1.21-2.9,2.21-3.5,3.66-8.22,19.94,13.68,20.25,20.21,30.63,1.35,2.14,5.96,4.04,5.67,5.11-1.57,5.67-3.16,11.95-6.85,16.2-2.76,3.18-4.63-2.42-6.78-4.37-.82-.74-2.19-.88-3.31-1.3,.21,1.33,.61,2.67,.59,4-.15,10.33,14.29,17.98,7.87,27.73-3.53,5.36-16.86,.42-21.33,10.39-.71,1.59-3.85,2.37-4.07,3.81-.23,1.46,1.37,3.99,2.85,4.79,9.34,5.08-5.95,11.37,.95,16.37-2.3,.78-4.56,2.02-6.92,2.25-9.05,.89-7.45,8.98-9.82,14.28-1.51,3.36-1.29,6.91,2.19,9.26,.96,.65,2.38,.63,3.59,.92-.05-1.09-.48-2.35-.07-3.22,1.2-2.56-7.31-10.86,4.92-7.52,4.02,1.1,15.88,5.1,13.17-8.81-.59-3.02,1.84-6.63,2.88-9.97,2.51,1.17,6.04,1.65,7.34,3.62,5.21,7.87,10.91,5.59,17.31,2.08,1.34-.74,3.66,.57,5.46,.35,7.11-.87,19.94-.93,20.34-3.16,2.66-14.67,13.13,.1,17.26-5.55,4.84,5.3-1.53,7.16-3.02,10.61-.57,1.32,.12,4.32,1.2,4.98,1.96,1.19,4.64,1.59,7.02,1.62,5.2,.05,10.82-2.44,14.52,3.83,1.42,2.4,3.44,1.45,3.98-.91,.88-3.87,2.94-5.13,6.58-3.76,3.19,1.2,3.58,2.98,4.1,6.79,1.08,7.88,1.5,17.81,12.74,19.83,2.4,.43,6.2,1.02,4.56,4.07-5.13,9.53,8.84,12.69,6.4,21,9.42-1.33,18.84-2.6,28.23-4.12,.58-.09,1.41-2.23,1.17-3.17-2.59-9.98,6.76-8.1,10.88-9.86,5.99-2.56,9.37,3.99,11.5,7.91,2.17,3.98,0,8.21-6.19,7.28-.32-.05-1.45,1.7-1.25,2.27,4.38,12.17,11.59,8.36,19.25,3.5,2-1.27,4.71-1.43,7.1-2.09,.56,2.01,2.23,4.68,1.49,5.91-3.3,5.5-7.15,10.7-11.06,15.81-7.04,9.19-22.39-3.46-24.42,4.66-4.18,16.78-28.3,9.25-29.49,28.69-.48,7.79-29.35,6.42-9.6,25.01,2.99,2.81,1.89,8.78,7.91,3.25,.57-.52,5.25,1.55,5.62,3.02,2.57,10.14,5.3,20.08,13.47,27.37,3.97,3.54,4.75,5.72-1.3,8.03-1.29,.49-.71,5.96-.81,9.14,0,.12,2.16,.77,2.83,.37,7.87-4.71,15.93-8.95,20.22-18.1,1.22-2.6,6.46-3.33,9.85-4.91,.25,.98,.7,1.95,.71,2.93,.07,14.21,13.42,8.1,19.85,12.58,.54,.38,3.87-3.25,5.9-5.02-1.75,.28-3.53,.88-5.24,.73-.99-.08-2.46-1.19-2.73-2.12-1.27-4.35-6.23-9.93-1.51-12.99,4.89-3.17,11.74-3,17.14,2.11,1.72,1.63,4.98,1.62,7.54,2.36-.51-1.93-.87-3.93-1.57-5.79-1.33-3.5,.35-5.72,3.18-7.04,2.53-1.18,7.48-1.17,6.4,1.72-3.48,9.35,5.44,14.49,6.08,22.58,.95,12.13,15.21,.24,19.29,8.77,.02,.05,1.39-.37,1.38-.5-.38-3.97,0-8.32-1.59-11.76-1.31-2.84-4.77-4.92-7.69-6.66-1.34-.8-3.65,.05-5.52,.15,.66-1.38,1.14-3.8,2-3.95,3.24-.55,6.81-1.08,9.87-.24,3.51,.97,6.43,3.99,9.93,5.05,3.6,1.09,8.25-.23,11.24,1.53,3.46,2.04-.72,4.04-2.2,4.6-7.62,2.9-4.67,10.71-2.09,11.44,7.96,2.26,7.77,11.78,9.59,12.78,8.88,4.85,14.6,6.68,.3,11.31,.6,.74,1.11,2.02,1.81,2.14,10.8,1.75,20.21-2.97,26.3-10.43,4.03-4.94,5.07-11.58,13.39-11.45,3.03,.05,5.78-2.08,4.93-5.63-.21-.86-3.57-.9-5.45-1.44-1.21-.34-2.36-.9-3.54-1.37,3.72-6.07,3.18-17.59,10.56-17.75,8.24-.18,16.25,1.03,24.05-2.6,.21,.53,.46,1.05,.63,1.6,6.58,20.73-3.45,31.35-22.25,36.77-1.44,.42-2.94,1.66-3.72,2.95-.39,.65,.61,3.11,1.24,3.22,1.62,.28,3.38-.41,5.09-.52,2.44-.15,4.88-.13,7.32-.18-.55,4.07-.94,8.17-1.81,12.17-.16,.74-2.47,1.71-3.53,1.46-18.13-4.17-22.48,13.71-33.42,20.95-4.13,2.73-8.72,10.73-10.59,9.99-18.6-7.39-32.1-1.42-42.46,14.19-3.75,5.64-6.79,12.46-.38,18.01,6.92,5.98,8.83,10.37-.11,16.26-2.24,1.48-2.1,6.66-2.85,10.19-.12,.55,.74,1.7,1.36,1.89,.56,.18,1.72-.38,2.08-.95,.99-1.56,1.71-3.3,2.53-4.97,2.01,2.54,4.02,5.09,6.03,7.63-2.2,1.19-4.53,2.19-6.57,3.61-8.92,6.23-14.84-4.73-22.83-3.92-1.44,.14-2.99-.81-4.49-1.26,1.93-1.3,3.77-2.77,5.82-3.87,6.22-3.35,10.34-10.54,8.88-15.29-1.5-4.86-6.21,2.66-10.06,2.91-1.97,.13-3.93,.35-5.89,.49-3.24,.24-6.51,.25-9.71,.74-2.91,.45-7.15,2.48-3.54,5.17,8.5,6.32,4.45,7.49-2.44,8.95-.73,.15-1.03,2.46-1.47,3.78-3.69,10.91,10.32,7.48,12.2,15.26,1.77,7.29-2.5,28.83,17.25,11.85,.26-.22,.85-.03,1.28-.07,53.77-5.31,101.01-23.95,140.99-62.11,23.98-22.89,54.4-38.5,78.16-62.18Zm-573.66-355.76l.07,.08c-3.53-8.86,3.61-15.17,5.43-22.75,1.32-5.48-4.09-6.69-6.46-9.8-.38-.49-1.78-.2-2.71-.28,.04,1.32-.1,2.67,.15,3.95,2.22,11.68,1.7,22.98-8.64,30.62-6.17,4.56-7.39,9.33-5.92,16.27,.58,2.75-1.02,5.96-1.62,8.96-1.17-1.53-2.18-3.25-3.58-4.53-1.05-.96-2.8-2.09-3.89-1.81-.93,.24-1.78,2.34-1.94,3.71-.67,5.67-.3,11.56-1.73,17-2.4,9.13-8.17,17.99-8.15,26.95,.02,7,3.47,18.42,15.71,14.75,6.72-2.02,.52-12.31,4.42-14.01,10.23-4.44,15.77-20.92,31.04-12.89,.13,.07,.66-.62,1.01-.95-.71-.69-1.3-1.61-2.14-2.04-12.13-6.22-10.25-11.99,2.6-20.4,5.12-3.35-15.24-10.14-2.85-18.88,.32-.23,.83-.26,1.26-.27,6.76-.11,6.43-4.64,4.61-8.67-3.45-7.62-8.61-11.71-16.68-5.02Zm-166.76,95.83c-4.65-10.78-15.52-11.25-23.68-11.09-7.25,.14-12.68,3.27-16.27-6.14-1.25-3.26-6.97-4.82-10.64-7.16-.8,1.58-2.72,3.99-2.24,4.63,10.89,14.82,2.25,8.43-6.36,7.06-8.42-1.34-2.19-4.66-2.7-7.06-.33-1.55-.98-3.54-2.14-4.26-1.2-.74-3.3-.45-4.81,.02-.44,.14-.54,2.59-.16,3.78,.75,2.35,3.42,5.32-.18,6.63-4.88,1.78-8.97-2.12-10.65-5.56-2.04-4.16-1.67-9.51-2.34-14.34,2.09,.39,4.17,.81,6.27,1.17,1.23,.21,3.05,.9,3.59,.36,1.24-1.25,1.87-3.11,2.74-4.72-.6-.18-1.27-.63-1.79-.49-7.69,2.11-10.08-3.22-11.01-8.77-1.1-6.53-4.69-14.64,5.36-17.8,4.64-1.46,2.69-3.25,1.05-5.44-6.12-8.23-12.18-16.51-18.4-24.67-1.59-2.08-.95-8.12-5.76-5.01-3.83,2.48-5.67,7.4-2.31,11.8,6.61,8.64,6.93,17.55,4.11,27.86-7.73,28.24,10.67,62.72,36.86,70.78,1.68,.52,2.54,3.41,4.24,4.24,7.1,3.46,1.74,10.57,5.22,16.2,7.31,11.82,15.62-1.79,23.68,3.7,6.53,4.45,13.53,8.98,18.75,14.44,5.36,5.61-1.93,8.69-6.38,11.54-.98,.63-1.49,4-1.37,4.05,14.45,6,15.94,19.73,19.88,32.2,.82,2.6,4.6,4.27,7.02,6.37-4.66-.66-9.33-1.28-13.98-2.01-1.55-.24-3.06-.79-4.58-1.2,.12,1.09-.17,2.53,.41,3.23,12.25,14.6-2.29,35.16,11.05,49.46-1.93,1.55-3.7,3.39-5.83,4.59-4.01,2.26-2.65,5.66-2.16,8.82,.1,.67,1.55,1.13,2.37,1.68,2.92-7.57,15.41-9.38,11.98-20.97-4.07-13.75,10.82-10.64,15.64-16.59,.25-.31,2.12,.26,2.88,.87,3.95,3.2,3.95,12.6,10.89,10.06,6.5-2.37-9.83-8.68,.38-12.99-2.93-3.31-4.84-8.32,.4-9.14,5.72-.9,13.35,.08,17.82,3.39,15.65,11.56,6.19-12.56,14.9-9.86-.09-1.24,.21-2.69-.33-3.68-7.93-14.48-23.98-26.25-21.21-43.97,.97-6.22-1.07-22.11,14.69-21.95,6.61,.07,5.83-7.06,8.76-10.62,.48-.58-.46-3.45-1.39-3.89-15.52-7.29-29.12-5.76-42.97,5.79-11.17,9.31-12.39-14.16-23.71-9.86-.25,.1-1.19-1.63-1.81-2.51,1.88-.37,3.87-.46,5.61-1.16,4.46-1.82,11.03,6.44,13.45-2.35,.61-2.22-2.64-6.35-5.11-8.39-5.37-4.43-5.81,3.68-9.2,4.29-15.07,2.7-16.98-3.15-8.49-15.36Zm171.64-281.77c3.4,.07,8.36-.8,7.88,3.71-.58,5.38-3.61,10.49-5.57,15.71-1.27-.91-3.49-1.67-3.65-2.74-1.74-11.43-12.32-9.39-19.28-12.09-2.64-1.02-7.76,2.5-7.8,7.37-.01,1.77,2.77,5.15,2.89,5.09,14.4-7.36,13,9.54,20.17,13.04-2.11,2.04-4.29,4.01-6.27,6.18-.27,.29,.3,2.03,.84,2.27,8.43,3.73,16.88,7.43,25.47,10.77,.86,.34,3.36-1.41,3.77-2.63,.38-1.14-.68-3.16-1.68-4.28-1.33-1.48-5.15-1.2-3.36-4.72,1.66-3.27,6.23-1.34,7.04-2.07,5.71-5.22,15.44,16.61,20.42-4.98,3.93-17.04,2.81-29.41-7-42.52-1.01-1.35,.36-4.84,1.29-7.07,.28-.68,3.61-1.14,4.13-.52,10.46,12.54,8.65-2.2,11.43-5.38,2.7-3.08,5.71-4.62,9.05-3.05,8.03,3.79,8.06-4.86,12.07-7.19-1.3-1.65-2.27-3.98-3.98-4.83-4.47-2.21-8.27-1.91-11.2,3.33-1.23,2.2-4.31,8.45-6.59,4.92-7.68-11.87-6.87-.04-9.2,2.71-1.57,1.86-2.9,3.93-4.33,5.91-2.39-1.93-4.79-3.85-7.18-5.78-7.84-6.31-15.54-12.81-23.57-18.87-8.31-6.27-18.48,10.43-26.55-1.86-.62,.69-1.7,1.33-1.77,2.07-.24,2.52-.67,5.25,.04,7.57,.49,1.58,6.85,.52,3,4.46-2.6,2.66-6.45,1.46-9.78-1.13-3.47-2.7-8.81-7.44-11.92-3.25-3.24,4.36-4.73,12.68-.14,16.94,4.82,4.48,8.35-2.47,12.2-5.1,.84-.57,2.28-.59,3.36-.41,12.43,2.02,10.59,18.17,21.49,21.74-2.18,4.69-2.87,8.38,4.31,6.67Zm260.29-118.06c.84-.12-.24,.03-1.31,.19,.66,.88,1.21,1.87,1.98,2.63,3.76,3.69,.56,14.38,11.19,11.16-.6,1.44-.99,3.03-1.85,4.29-3.24,4.73-6.7,1.21-10.52,.75-7.22-.87-14.67,.18-22.03,.44,3.97,.9,8.39,1.02,11.76,2.97,2.35,1.36,3.44,5.13,4.67,8.01,.21,.49-1.72,1.9-2.66,2.89-1.67-1.82-3.35-3.62-5-5.46-.7-.78-1.34-1.63-2-2.45-.15,.38-.5,.8-.44,1.15,1.48,8.02-4.35,12.06-8.76,17.16-2.32,2.68-3.05,6.72-4.5,10.14,1.41,.38,2.91,1.29,4.21,1.06,24.67-4.53,26-5.72,27.37-23.26,.05-.64,1.59-1.84,2.01-1.68,5.78,2.25,10.66,1.17,14.99-3.28,4.24-4.36,16.46-.69,12.61-13.36-2.84-9.37-9.01-4.14-14.07-4.27-5.62-.15-5.7-4.6-5.93-8.39-.25-4.16,2.46-4.71,6.25-5.06,11.55-1.07,11.48-11.76,14.82-19.43,.38-.88-1.78-4.13-2.7-4.1-8.4,.25-17.38-.62-24.91,2.24-3.73,1.42-4.79,9.93-6.82,15.32-.07,.18,2.48,1.95,3.76,1.9,2.99-.13,5.61,.38,5.73,3.66,.13,3.6-2.59,4.79-7.84,4.78Zm-264.48,7.68c4.02-1.03,6.71-.24,6.39,2.91-1.56,15.45,7.91,8.81,12.95,5.7,12.6-7.8,24.37-16.93,36.59-25.34,1.93-1.33,5.12-1.14,6.64-2.71,1.96-2.03,4.05-5.03,.83-8.04-2.5,2.75-4.84,7.67-7.52,7.86-8.2,.57-16.53-.67-24.8-1.2,.49-5.52-11.47-2.01-7.35-10.15-1.77-.8-3.49-1.78-5.33-2.37-6.04-1.91-9.63,2.39-13.37,5.79-.49,.45,.42,3.04,1.28,4.19,.79,1.05,2.39,1.48,3.63,2.19-2.73,1.61-6.31,5.2-8.02,4.46-5.96-2.58-11.08-.13-13.33,3.67-1.33,2.24,9.51,3.11,6.7,10.37-.11,.29,3.56,2.03,4.71,2.68Zm104.18,104.27c.66,.44-1.89-.63-1.79-1.29,.46-3.01,.85-6.7,2.77-8.69,3.82-3.94,8.63-6.91,13.03-10.28-7.89-5.12-13.86,1.77-20.71,3.24-4.78,1.03-10.25,7.69-14.03,2.76-6.82-8.89-11.93,.08-17.66,.32-1.02,.04-1.86,5.04-2.66,7.79-.05,.17,1.35,1.06,1.48,.94,14.73-13.16,17.81,13.24,31.65,9.16,7.37-2.17,10.62,17.08,23.8,11.29,.99-.43,6.57-5.37,6.55,1.93,0,.68-1.26,1.29-1.47,2.06-.2,.75,.22,1.66,.36,2.5,4.47-4.45,8.94-8.9,13.4-13.36-10.75-2.59-21.5-5.19-34.75-8.38Zm-369.09,45.74c.55-.22,1.1-.45,1.65-.67-.79-1.64-1.59-3.29-2.38-4.93-1.34,1.34-3.15,2.45-3.94,4.06-3.8,7.82-1.69,17.61-10.4,24.37-2.82,2.18-2.85,14.3,7.41,15.05,4.37,.32,12.86-2.46,12.82-3.58-.39-10.58,7.33-14.88,13.85-20.22,2.65-2.17,3.59-4.84,1.22-7.4-.76-.82-3.87-.61-5,.28-3.29,2.59-6.72,7.02-10.68,4.06-2.73-2.04-3.11-7.23-4.54-11.01Zm463.3-139.89c-2.93-1.44-4.7-2.88-6.63-3.12-2.44-.3-5.93-.59-7.35,.79-7.2,7.01-12.25,8.6-14.3-3.73-.17-1.03-3.07-2.52-4.43-2.28-7.85,1.36-4.3,9.17-7.1,13.49-.13,.19,1.24,1.76,2.14,2.12,1.58,.64,4.07-3.81,4.82,.48,.21,1.2-2.53,3.21-4.24,4.39-2.54,1.74-1.8,2.95,.28,4.09,11.9,6.51,14.05-10.16,23.76-10.08,3.95,.03,7.93-3.6,13.06-6.15Zm-128.66,395.95c2.07-1.19,4.13-2.39,6.2-3.58-6.76-5.46-5.1-18.4-16.66-19.36-5.85-.48-7.81,5.59-7.11,8.94,1.77,8.48,3.77,18.76,17.57,14Zm220.44-366.73c8.39,28.44,21.95-1.51,32.5,3.19,.69,.31,2.06-.93,3.12-1.44-10.33-2.8-20.57-6.01-31.03-8.2-4.68-.98-3.41,4.3-4.59,6.45Zm-473.1,455.78c-3.31-6.29,1.83-19.54-11.17-18.29-12.08,1.16-4.93,12-4.85,18.39,.05,4.28,4.5,7.93,9.4,8.19,4.94,.26,5.6-4.07,6.63-8.29Zm-101.4-282.29c1.38,1.22,3.78,3.8,4.11,3.56,7.06-5.16,19.6-10.48,19.75-16.08,.59-21.67-12.98,3.45-17.96-4.09-1.85,5.22-3.71,10.44-5.91,16.62Zm339.29,231.74c2.03-1.58,.37-.67,.48-.32,3.15,10.11,8.34,18.64,19.65,20.69,1.37,.25,5.58-5.64,5.12-6.29-5.48-7.65-8.97-18.6-25.24-14.08Zm169.48-326.82c3.6,13.32,16.54,1.48,20.88,9.5,3.32-3.92,6.64-7.84,9.97-11.77-7.92-1.46-15.8-3.45-23.78-4.02-2.16-.15-4.63,4-7.07,6.28Zm-112.59,154.61c1.18-8.96-10.32-6.67-10.5-13.68-2.62,4.19-7.17,8.31-7.33,12.58-.16,4.36,4.01,8.87,6.29,13.32,3.95-4.28,13.36-3.73,11.54-12.22Zm89.23-164.54c-9.66-1.93-10.8,5-9.2,10.96,3.01,11.19,10.24-4.62,14.7,1.5,1.51-1.34,4.37-2.75,4.3-4-.33-5.8-2.65-10.2-9.79-8.46Zm-245.17,262.85c-2.36,.89-4.06,3.93-8.1,3.03-9.74-2.17-8.32,8.44-11.74,13.55-.26,.39,1.87,3.09,2.08,3,8.21-3.84,17.2-7,17.77-19.58Zm377.72-386.04c-2.01,2.26-4.29,3.66-4.22,4.94,.68,12.75,11.82,6.95,18.13,9.14,1.99,.69,6.21-5.05,9.42-7.84-7.27-3.96-16.4,1.74-23.33-6.24Zm-106.33,687.68c3.29-.91,5.45-1.28,7.42-2.11,3.57-1.52,5.04-4.65,4-8.15-2.04-6.86-10.34-3.92-14.06-8.4-.91,.77-2.68,1.64-2.6,2.3,.53,4.8,5.24,3.4,7.9,5.11,1.13,.73,1.53,2.62,2.25,3.98-1.92,.46-3.86,1.33-5.74,1.23-1.17-.07-2.18-2.22-3.4-2.4-3.92-.56-1.96,2.63-1.35,3.36,1.69,2.05,3.94,3.63,5.59,5.07Zm-350.74-684.85c-.49-6.01-.89-10.94-1.29-15.87-3.68,6.19-7.87,12.15-10.81,18.68-1.29,2.87,2.02,4.75,5.13,4.77,5.82,.04,5.76-4.97,6.97-7.58Zm206.05-178.12c1.68-1.19,4.12-2.91,6.55-4.64-2.53-1.24-5.22-3.76-7.54-3.45-5.11,.68-11.28-1.56-15.1,4.05,4.93,1.23,9.85,2.47,16.1,4.04Zm271.26,119.88c-.53,.24-2.26,1.03-3.99,1.82,2.28,3.82,3.46,9.24,9.45,8.33,1.9-.29,4.99-2.91,4.9-4.28-.36-5.17-4.6-5.84-10.35-5.86Zm-557.7,525.77c1.08-1.47,2.52-3.15,2.39-3.28-3.27-3.3-6.7-6.44-10.11-9.6-1.07,3.18-3.42,6.57-2.97,9.51,1.26,8.08,7.47-1.2,10.69,3.37Zm57.57,94.62c1.35,4.74,1.36,9.43,6.78,9.76,.92,.06,3.05-2.77,2.79-3.2-1.84-3.18-4.15-6.09-6.31-9.09-1.16,.9-2.32,1.8-3.27,2.53Zm233.53-245.58c-.7-.51-1.12-1.07-1.48-1.03-.4,.05-.97,.61-1.02,1-.04,.31,.58,.96,.95,.99,.38,.04,.82-.48,1.55-.96Zm-95.7-16.88l-.25-.29c-.11,.18-.22,.36-.33,.54,.13,.03,.28,.11,.37,.07,.1-.04,.14-.21,.21-.32Zm186.03,146.17c-.09-.06-.18-.12-.27-.19-.06,.17-.11,.33-.17,.5,.11,0,.25,.04,.33-.01,.07-.05,.08-.2,.12-.3Z"/><path class="cls-3" d="M1883.18,1124.24c-7.57,.2-9.35-1.38-8.31-6.29,.48-2.27-1.15-4.98-1.82-7.49-3.42,1.33-6.03,3.07-8.92,5.92-7.38,7.28-7.33,17.06-11.7,25.13-.08,.15-3.99-1.12-3.98-1.66,.42-15.21-18.82-11.63-22.17-23.48-2-7.09-5.62-13.71-8.19-20.66-.2-.54,2.33-3.01,3.42-2.89,1.79,.19,3.6,1.55,5.1,2.78,2.18,1.78,4.09,3.89,6.11,5.86,1.99-2.28,3.86-4.69,6-6.83,8.69-8.69,7.34-25.65,27.1-25.74,18.45-.09,30.84,11.41,46.43,16.22-8.39,9.87,4.02,24.19,.64,27.09-8.38,7.19-21.36,9.03-29.72,12.03Z"/><path class="cls-3" d="M1885.94,465.36c-4.15,2.61-8.82,5.55-13.49,8.48,3.34,1.85,7.03,3.26,9.94,5.63,6.95,5.65,13.22,11.89,9.8,22.23-2.52-1.07-4.97-2.36-7.57-3.17-6.48-2.01-16.06,5.91-19.2-8.27-.99-4.47-13.37-6.23-18-12.96-1.18-1.72-2.3-3.52-3.12-5.43-.27-.63,.51-1.71,.81-2.58,1.37,.82,2.84,2.47,4.1,2.33,10.02-1.18,21.11,2.29,29.44-6.82,1.36-1.49,4.29-1.85,6.55-2.07,1.09-.11,2.33,1.33,3.5,2.07-.74,.15-1.49,.3-2.77,.55Z"/><path class="cls-3" d="M1917.38,1270.12c-4.42-3.08-10.1-5.09-12.07-8.98-1.79-3.55,4.16-2.5,6.58-3.69,6.18-3.02,1.07-12.16,10-15.34,10.36-3.69,18.09,1.57,20.68,7.15,3.14,6.79-7.08,10.01-12.29,13.63-4.14,2.87-10.55,2.02-12.89,7.22Z"/><path class="cls-3" d="M1878.4,686.37c-9.35,.8-15.36-2.44-15.55-10.22-.1-4.2,4.07-8.5,6.32-12.76,3.76,2.13,8.77,3.39,11.02,6.59,4.22,5.99,6.08,12.94-1.79,16.4Z"/><path class="cls-3" d="M1917.08,456.4c-3.18-4.05-7.37-9.27-11.27-14.71-.16-.22,2.88-3.71,3.6-3.44,6.52,2.4,15.51,.68,18.76,8.13,.93,2.13-2.07,9.6-11.09,10.01Z"/><path class="cls-3" d="M1906.47,1144.99c1.09,.3,3.33,.92,5.57,1.54-5.13,6.39-10.78,12.11-19.1,14.12-.52,.13-2.11-1.53-2.14-2.39-.36-9.92,6.43-12.08,15.67-13.27Z"/><path class="cls-3" d="M1798.63,449.79c-1.19,1.45-1.57,2.21-1.81,2.17-5.31-.89-10.6-1.86-15.89-2.84-.24-.05-.45-.35-.65-.55-3.9-3.84-14.75-4.68-11.39-10.34,2.75-4.64,9.6,3.59,14.67,6.16,4.52,2.29,9.58,3.49,15.07,5.41Z"/><path class="cls-3" d="M1946.9,473.34c-4.59-.66-8.48,.55-9.66-3.87-.08-.3,2.76-2.14,3.91-1.86,3.36,.8,7.97-.72,9.35,4.15,.06,.22-3.09,1.36-3.59,1.58Z"/><path class="cls-3" d="M1840.14,422.15c-4.25-5.62-6.01-7.95-7.77-10.27,1.26-.64,3.07-2.16,3.67-1.78,2.31,1.47,4.58,3.31,6.11,5.53,.58,.84-.88,3.08-2.02,6.53Z"/><path class="cls-3" d="M1689.95,1315.19c4.41,7.61-7.16,15.92-2.24,21.71,9.31,10.96-3.13,5.5-4.05,5.66-6.79,1.23-13.72,1.64-20.6,2.4-1.64,.18-3.24,.72-4.86,1.09,1.02,2.87,1.85,5.85,3.22,8.55,.35,.68,2.45,.55,3.75,.65,1.79,.13,3.59,.11,5.39,.15-1.54,1.06-2.93,2.59-4.63,3.11-17.17,5.33-34.62,1.19-51.92,1.13-19.59-.07-38.3-6.49-55.54-14.45-5.62-2.6-11.68-7.19-18.21-9.77,.45-.71,.8-1.53,1.38-2.11,2.01-2,4.1-3.92,6.16-5.87,2.95,6.99,5.87,12.94,7.59-.44,.15-1.19-.3-2.47-.48-3.7-7.51,4.62-.37-17.22-11.47-6.37-.58,.57-2.19,.09-3.32,.09,.23-1.68,.08-4.65,.76-4.85,5.57-1.65,11.38-4.11,16.93-3.72,5.84,.41,5.59-4.07,7.74-6.53,.6-.68-.26-3.59-1.3-4.55-2.24-2.08-2-3.59,.06-5.34,2.19-1.86,4.41-3.68,6.62-5.52-1.11-.86-2.38-2.59-3.31-2.42-4.28,.76-9.94,.76-12.33,3.47-3.19,3.62-6.51,3.59-10.21,4.07-.26,.03-1.01-1.34-.92-1.43,3.2-3.09,6.23-8.36,9.79-8.76,17.6-1.95,35.33-2.93,53.04-3.45,3.74-.11,7.46,3.9,11.43,4.54,2.38,.38,5.22-2.11,7.85-3.31-1.75-1.47-3.53-2.91-5.24-4.41-.47-.41-.75-1.02-1.12-1.55,1.63-.35,3.78-1.54,4.8-.91,12.49,7.75,28.93,5.15,40.65,16.87,3.1,3.1,9.55,7.8,15.9,9.65,7.22,2.1,10.75,7.69,8.71,16.32Zm-116.88,31.32c.55-.31,2.95-1.64,5.35-2.98-4.23-1.55-8.4-3.34-12.73-4.49-1.08-.29-3.98,2.03-3.88,2.25,1.61,3.87,4.8,5.41,11.27,5.21Z"/><path class="cls-3" d="M1742.28,1368.26c-13.01-1.36-24.69-2.53-36.34-3.89-1.25-.15-2.37-1.4-3.55-2.15,1.19-.62,2.32-1.41,3.58-1.83,7.9-2.67-2.47-7.49,1.49-11.61,2.6-2.71,.04-9.15,8.29-4.32,8.43,4.94,13.94-7,23.16-8.24,11.07-1.48,17.2,4.49,25.34,7.73-.66,1.22-1.02,2.82-2.02,3.59-5.98,4.57-11.55,10.48-18.35,12.94-5.92,2.14,8.63,9.79-1.59,7.78Z"/><path class="cls-3" d="M1344.82,1241.64c9.78-1.58,13.88-.31,16.42,4.76,2.75,5.5,7.92,6.37,11.84,2.69,7.17-6.76,13.07-.48,19.47,.6,.67,.11,1.18,1.17,1.76,1.78-.36,.31-.75,.9-1.08,.87-3.68-.39-9.86-2.3-9.41,2.72,.7,7.93,5.13,15.49,12.25,19.97,8.53,5.36,17.67,9.74,26.5,14.62,.62,.34,.93,1.27,1.38,1.92-.76,.24-1.64,.86-2.27,.67-20.47-6.26-41.51-11.1-56-29.3-5.13-6.44-12.72-10.88-18.73-16.71-2.68-2.6-.97-4.92-2.14-4.59Z"/><path class="cls-3" d="M1543.02,1233.47c5.66,2.49,9.99,4.4,14.32,6.3-3.41,1.67-6.92,3.16-10.2,5.06-2.33,1.34-4.36,3.2-6.48,4.88-1.63,1.3-3.03,3.25-4.86,3.77-.83,.23-3.54-2.35-3.49-3.58,.14-3.3,1.31-6.56,2.06-9.84,7.18,4.75,6.81-3.47,8.65-6.6Z"/><path class="cls-3" d="M1324.86,1234.29c-1.05,1.23-2.17,2.94-2.46,2.81-6.53-2.94-12.19-6.96-15.18-13.78-.14-.32,1.38-1.99,1.9-1.88,7.36,1.47,11.56,6.74,15.74,12.86Z"/><path class="cls-3" d="M1409.98,1267.92c-4.28-6.15-7.81-11.21-11.25-16.33-.03-.05,1.29-1.39,1.66-1.26,5.05,1.79,10.05,3.74,15.07,5.65-6.25,1.03-1.98,7.29-5.48,11.94Z"/><path class="cls-3" d="M1718.56,1336.95c-4.57-3.08-8.49-5.72-12.41-8.36,2.4-2.14,6.03-6.54,6.99-6.02,4.53,2.45,8.33,6.25,12.39,9.56-2.19,1.51-4.37,3.03-6.97,4.82Z"/></g></g></g></g></g></svg>